shantell_organic--light.ufo
<glyph name="dollar" format="2">
  <advance width="700"/>
  <unicode hex="0024"/>
  <outline>
    <contour>
      <point x="241" y="-9" type="curve" smooth="yes"/>
      <point x="454" y="-9"/>
      <point x="619" y="62"/>
      <point x="619" y="167" type="curve" smooth="yes"/>
      <point x="619" y="350"/>
      <point x="170" y="353"/>
      <point x="170" y="444" type="curve" smooth="yes"/>
      <point x="170" y="518"/>
      <point x="324" y="611"/>
      <point x="569" y="641" type="curve" smooth="yes"/>
      <point x="606" y="645"/>
      <point x="617" y="658"/>
      <point x="617" y="677" type="curve" smooth="yes"/>
      <point x="617" y="698"/>
      <point x="603" y="710"/>
      <point x="575" y="710" type="curve" smooth="yes"/>
      <point x="432" y="710"/>
      <point x="99" y="609"/>
      <point x="99" y="438" type="curve" smooth="yes"/>
      <point x="99" y="268"/>
      <point x="525" y="292"/>
      <point x="553" y="161" type="curve"/>
      <point x="513" y="93"/>
      <point x="402" y="59"/>
      <point x="232" y="59" type="curve" smooth="yes"/>
      <point x="146" y="59"/>
      <point x="139" y="77"/>
      <point x="108" y="77" type="curve" smooth="yes"/>
      <point x="86" y="77"/>
      <point x="75" y="66"/>
      <point x="75" y="50" type="curve" smooth="yes"/>
      <point x="75" y="15"/>
      <point x="131" y="-9"/>
    </contour>
    <contour>
      <point x="362" y="281" type="curve" smooth="yes"/>
      <point x="377" y="281"/>
      <point x="378" y="291"/>
      <point x="381" y="307" type="curve" smooth="yes"/>
      <point x="407" y="457"/>
      <point x="441.8028452941" y="593.8481874662"/>
      <point x="400" y="790" type="curve" smooth="yes"/>
      <point x="397" y="806"/>
      <point x="385" y="817"/>
      <point x="366" y="817" type="curve" smooth="yes"/>
      <point x="331" y="817"/>
      <point x="328" y="798"/>
      <point x="333" y="777" type="curve" smooth="yes"/>
      <point x="370.2490928337" y="607.1441366784"/>
      <point x="342" y="461"/>
      <point x="320" y="336" type="curve" smooth="yes"/>
      <point x="314" y="299"/>
      <point x="341" y="281"/>
    </contour>
    <contour>
      <point x="340" y="343" type="curve" smooth="yes"/>
      <point x="325" y="343"/>
      <point x="319" y="333"/>
      <point x="316" y="317" type="curve" smooth="yes"/>
      <point x="292" y="185"/>
      <point x="268.2365207168" y="43.4877931249"/>
      <point x="304" y="-126" type="curve" smooth="yes"/>
      <point x="307" y="-142"/>
      <point x="318" y="-153"/>
      <point x="338" y="-153" type="curve" smooth="yes"/>
      <point x="372" y="-153"/>
      <point x="376" y="-134"/>
      <point x="371" y="-113" type="curve" smooth="yes"/>
      <point x="338.3217911317" y="37.022686168"/>
      <point x="358" y="176"/>
      <point x="377" y="288" type="curve" smooth="yes"/>
      <point x="383" y="325"/>
      <point x="361" y="343"/>
    </contour>
  </outline>
</glyph>
<glyph name="quotesingle" format="2">
  <advance width="259"/>
  <unicode hex="0027"/>
  <outline>
    <contour>
      <point x="118" y="425" type="curve" smooth="yes"/>
      <point x="133.077" y="425"/>
      <point x="141" y="435"/>
      <point x="146" y="451" type="curve" smooth="yes"/>
      <point x="168" y="516"/>
      <point x="184" y="610"/>
      <point x="167" y="690" type="curve" smooth="yes"/>
      <point x="164" y="706"/>
      <point x="149" y="717"/>
      <point x="133" y="717" type="curve" smooth="yes"/>
      <point x="110" y="717"/>
      <point x="95.294" y="698.176"/>
      <point x="100" y="677" type="curve" smooth="yes"/>
      <point x="115" y="607"/>
      <point x="100" y="534"/>
      <point x="85" y="480" type="curve" smooth="yes"/>
      <point x="74.05" y="443.167"/>
      <point x="97.257" y="425"/>
    </contour>
  </outline>
</glyph>
<glyph name="comma" format="2">
	<unicode hex="002C"/>
	<advance width="234"/>
	<outline>
		<contour>
			<point x="112" y="147" type="curve" smooth="yes"/>
			<point x="91" y="147"/>
			<point x="78" y="130"/>
			<point x="78" y="96" type="curve" smooth="yes"/>
			<point x="78" y="23"/>
			<point x="65" y="-30"/>
			<point x="36" y="-84" type="curve" smooth="yes"/>
			<point x="21" y="-113"/>
			<point x="14" y="-131"/>
			<point x="14" y="-144" type="curve" smooth="yes"/>
			<point x="14" y="-158"/>
			<point x="24" y="-168"/>
			<point x="39" y="-168" type="curve" smooth="yes"/>
			<point x="57" y="-168"/>
			<point x="81" y="-156"/>
			<point x="96" y="-136" type="curve" smooth="yes"/>
			<point x="140" y="-73"/>
			<point x="167" y="22"/>
			<point x="167" y="83" type="curve" smooth="yes"/>
			<point x="167" y="130"/>
			<point x="147" y="147"/>
		</contour>
	</outline>
</glyph>
<glyph name="zero" format="2">
	<unicode hex="0030"/>
	<advance width="700"/>
	<image fileName="zero.png" xScale="2.3662938837" yScale="2.3662938837" xOffset="-8471.8248343698" yOffset="-212.644631698" color="0,0,0,0.16492"/>
	<outline>
		<contour>
			<point x="275" y="510" type="curve" smooth="yes"/>
			<point x="293" y="524"/>
			<point x="301" y="537"/>
			<point x="301" y="554" type="curve" smooth="yes"/>
			<point x="301" y="578"/>
			<point x="292" y="583"/>
			<point x="275" y="583" type="curve" smooth="yes"/>
			<point x="211.2843137255" y="583"/>
			<point x="81" y="455.6900958466"/>
			<point x="81" y="290" type="curve" smooth="yes"/>
			<point x="81" y="129"/>
			<point x="187" y="59"/>
			<point x="317" y="59" type="curve" smooth="yes"/>
			<point x="464" y="59"/>
			<point x="618" y="175.2663551402"/>
			<point x="618" y="417" type="curve" smooth="yes"/>
			<point x="618" y="568.0476190476"/>
			<point x="552" y="661"/>
			<point x="400" y="661" type="curve" smooth="yes"/>
			<point x="265" y="661"/>
			<point x="128" y="523"/>
			<point x="128" y="477" type="curve" smooth="yes"/>
			<point x="128" y="465"/>
			<point x="139" y="454"/>
			<point x="151" y="454" type="curve" smooth="yes"/>
			<point x="168" y="454"/>
			<point x="187" y="455"/>
			<point x="195" y="466" type="curve" smooth="yes"/>
			<point x="249" y="545"/>
			<point x="328" y="596"/>
			<point x="400" y="596" type="curve" smooth="yes"/>
			<point x="513" y="596"/>
			<point x="551" y="520.1790393013"/>
			<point x="551" y="417" type="curve" smooth="yes"/>
			<point x="551" y="227.4419889503"/>
			<point x="444" y="125"/>
			<point x="317" y="125" type="curve" smooth="yes"/>
			<point x="195" y="125"/>
			<point x="148" y="196"/>
			<point x="148" y="290" type="curve" smooth="yes"/>
			<point x="148" y="384.4166666667"/>
			<point x="212.0340770462" y="460.9236188742"/>
		</contour>
	</outline>
</glyph>
<glyph name="one" format="2">
  <advance width="700"/>
  <unicode hex="0031"/>
  <image fileName="zero.png" xScale="2.3662938837" yScale="2.3662938837" xOffset="-35.8248343698" yOffset="-212.644631698" color="0,0,0,0.16492"/>
  <outline>
    <contour>
      <point x="91" y="149"/>
      <point x="106" y="157"/>
      <point x="141" y="157" type="curve" smooth="yes"/>
      <point x="252" y="157"/>
      <point x="417" y="166"/>
      <point x="545" y="166" type="curve" smooth="yes"/>
      <point x="586" y="166"/>
      <point x="630" y="155"/>
      <point x="629" y="127" type="curve" smooth="yes"/>
      <point x="628" y="112"/>
      <point x="612" y="100"/>
      <point x="592" y="100" type="curve" smooth="yes"/>
      <point x="476" y="100"/>
      <point x="308" y="90"/>
      <point x="194" y="90" type="curve" smooth="yes"/>
      <point x="125" y="90"/>
      <point x="91" y="106"/>
      <point x="91" y="130" type="curve" smooth="yes"/>
    </contour>
    <contour>
      <point x="126" y="562" type="curve" smooth="yes"/>
      <point x="201.96153846153845" y="562.0"/>
      <point x="287.54997870783683" y="587.5411959223189"/>
      <point x="376" y="641" type="curve" smooth="yes"/>
      <point x="394" y="652"/>
      <point x="410" y="657"/>
      <point x="423" y="657" type="curve" smooth="yes"/>
      <point x="448" y="657"/>
      <point x="463" y="640"/>
      <point x="463" y="613" type="curve" smooth="yes"/>
      <point x="463.0" y="582.0"/>
      <point x="419.0" y="418.5139442231076"/>
      <point x="419" y="161" type="curve" smooth="yes"/>
      <point x="419" y="143"/>
      <point x="408" y="128"/>
      <point x="395" y="128" type="curve" smooth="yes"/>
      <point x="372" y="128"/>
      <point x="352" y="147"/>
      <point x="352" y="169" type="curve" smooth="yes"/>
      <point x="352.0" y="305.2323651452282"/>
      <point x="367.115036826535" y="470.68499201254934"/>
      <point x="389" y="601" type="curve"/>
      <point x="410" y="587" type="line"/>
      <point x="321.28385992432607" y="529.4807443465411"/>
      <point x="231.63082437275986" y="497.0"/>
      <point x="141" y="497" type="curve" smooth="yes"/>
      <point x="117" y="497"/>
      <point x="97" y="510"/>
      <point x="97" y="536" type="curve" smooth="yes"/>
      <point x="97" y="552"/>
      <point x="108" y="562"/>
    </contour>
  </outline>
</glyph>
<glyph name="two" format="2">
	<unicode hex="0032"/>
	<advance width="700"/>
	<image fileName="zero.png" xScale="2.3662938837" yScale="2.3662938837" xOffset="-763.8248343698" yOffset="-212.644631698" color="0,0,0,0.16492"/>
	<outline>
		<contour>
			<point x="143" y="682" type="curve" smooth="yes"/>
			<point x="202" y="727"/>
			<point x="289" y="763"/>
			<point x="378" y="763" type="curve" smooth="yes"/>
			<point x="524" y="763"/>
			<point x="580" y="683"/>
			<point x="580" y="569" type="curve" smooth="yes"/>
			<point x="580" y="422.3865030675"/>
			<point x="500.5666702841" y="214.2829478396"/>
			<point x="132" y="0" type="curve"/>
			<point x="120" y="26" type="line"/>
			<point x="139" y="16"/>
			<point x="156" y="14"/>
			<point x="175" y="14" type="curve" smooth="yes"/>
			<point x="267.9117647059" y="14"/>
			<point x="407.8529411765" y="36"/>
			<point x="565" y="36" type="curve" smooth="yes"/>
			<point x="621" y="36"/>
			<point x="634" y="13"/>
			<point x="634" y="-4" type="curve" smooth="yes"/>
			<point x="634" y="-22"/>
			<point x="621" y="-30"/>
			<point x="589" y="-30" type="curve" smooth="yes"/>
			<point x="373.1847826087" y="-30"/>
			<point x="280.0434782609" y="-50"/>
			<point x="171" y="-50" type="curve" smooth="yes"/>
			<point x="112" y="-50"/>
			<point x="80" y="-30"/>
			<point x="80" y="14" type="curve" smooth="yes"/>
			<point x="80" y="31"/>
			<point x="89" y="47"/>
			<point x="103" y="55" type="curve" smooth="yes"/>
			<point x="428.8729610959" y="258.9403630699"/>
			<point x="513" y="431.6175115207"/>
			<point x="513" y="569" type="curve" smooth="yes"/>
			<point x="513" y="649"/>
			<point x="470" y="698"/>
			<point x="378" y="698" type="curve" smooth="yes"/>
			<point x="238" y="698"/>
			<point x="182" y="618"/>
			<point x="148" y="618" type="curve" smooth="yes"/>
			<point x="130" y="618"/>
			<point x="117" y="631"/>
			<point x="117" y="646" type="curve" smooth="yes"/>
			<point x="117" y="658"/>
			<point x="125" y="668"/>
		</contour>
	</outline>
</glyph>
<glyph name="three" format="2">
  <advance width="700"/>
  <unicode hex="0033"/>
  <image fileName="zero.png" xScale="2.3662938837" yScale="2.3662938837" xOffset="-2104.8248343698" yOffset="-212.644631698" color="0,0,0,0.16492"/>
  <outline>
    <contour>
      <point x="106" y="678"/>
      <point x="235" y="752"/>
      <point x="372" y="752" type="curve" smooth="yes"/>
      <point x="516.448275862069" y="752.0"/>
      <point x="585.0" y="680.9473684210526"/>
      <point x="585" y="572" type="curve" smooth="yes"/>
      <point x="585.0" y="490.1576354679803"/>
      <point x="536.0824194182787" y="396.51955602893105"/>
      <point x="318" y="359" type="curve"/>
      <point x="319" y="376" type="line"/>
      <point x="518.0052217536941" y="378.00005247993363"/>
      <point x="608.0" y="307.6428571428571"/>
      <point x="608" y="178" type="curve" smooth="yes"/>
      <point x="608.0" y="37.55555555555557"/>
      <point x="493.0" y="-62.0"/>
      <point x="317" y="-62" type="curve" smooth="yes"/>
      <point x="183" y="-62"/>
      <point x="112" y="-6"/>
      <point x="112" y="32" type="curve" smooth="yes"/>
      <point x="112" y="51"/>
      <point x="123" y="65"/>
      <point x="139" y="65" type="curve" smooth="yes"/>
      <point x="174.64848484848486" y="65.0"/>
      <point x="175.69696969696972" y="3.0"/>
      <point x="312" y="3" type="curve" smooth="yes"/>
      <point x="432.7264957264957" y="3.0"/>
      <point x="538.0" y="72.79768786127167"/>
      <point x="538" y="178" type="curve" smooth="yes"/>
      <point x="538.0" y="290.0"/>
      <point x="437.2886727963048" y="322.01258328827043"/>
      <point x="303" y="323" type="curve" smooth="yes"/>
      <point x="270" y="323"/>
      <point x="251" y="346"/>
      <point x="251" y="367" type="curve" smooth="yes"/>
      <point x="251" y="382"/>
      <point x="260" y="396"/>
      <point x="281" y="401" type="curve" smooth="yes"/>
      <point x="403.6733646947781" y="432.2696811966708"/>
      <point x="518.0" y="475.3478260869565"/>
      <point x="518" y="572" type="curve" smooth="yes"/>
      <point x="518.0" y="670.44"/>
      <point x="441.58878504672896" y="687.0"/>
      <point x="372" y="687" type="curve" smooth="yes"/>
      <point x="199" y="687"/>
      <point x="176" y="613"/>
      <point x="140" y="613" type="curve" smooth="yes"/>
      <point x="116" y="613"/>
      <point x="106" y="624"/>
      <point x="106" y="640" type="curve" smooth="yes"/>
    </contour>
  </outline>
</glyph>
<glyph name="four" format="2">
	<unicode hex="0034"/>
	<advance width="700"/>
	<image fileName="zero.png" xScale="2.36629" yScale="2.36629" xOffset="-2868.825" yOffset="-192.645"/>
	<outline>
		<contour>
			<point x="378" y="107" type="curve" smooth="yes"/>
			<point x="378" y="-11"/>
			<point x="391" y="-61"/>
			<point x="425" y="-61" type="curve" smooth="yes"/>
			<point x="443" y="-61"/>
			<point x="455" y="-45"/>
			<point x="455" y="-17" type="curve" smooth="yes"/>
			<point x="455" y="15"/>
			<point x="445" y="40"/>
			<point x="445" y="98" type="curve" smooth="yes"/>
			<point x="445" y="274.945"/>
			<point x="492" y="397.962"/>
			<point x="492" y="565" type="curve" smooth="yes"/>
			<point x="492" y="683"/>
			<point x="478" y="735"/>
			<point x="438" y="735" type="curve" smooth="yes"/>
			<point x="338.137" y="735"/>
			<point x="151.229" y="553.934"/>
			<point x="57" y="329" type="curve" smooth="yes"/>
			<point x="39" y="286"/>
			<point x="33" y="267"/>
			<point x="33" y="242" type="curve" smooth="yes"/>
			<point x="33" y="199"/>
			<point x="66" y="170"/>
			<point x="118" y="170" type="curve" smooth="yes"/>
			<point x="293.02" y="170"/>
			<point x="421.306" y="222"/>
			<point x="642" y="222" type="curve" smooth="yes"/>
			<point x="675" y="222"/>
			<point x="689" y="233"/>
			<point x="689" y="249" type="curve" smooth="yes"/>
			<point x="689" y="271"/>
			<point x="663" y="287"/>
			<point x="616" y="287" type="curve" smooth="yes"/>
			<point x="405.742" y="287"/>
			<point x="279.436" y="236"/>
			<point x="125" y="236" type="curve" smooth="yes"/>
			<point x="106" y="236"/>
			<point x="99" y="237"/>
			<point x="64" y="252" type="curve"/>
			<point x="88" y="214" type="line"/>
			<point x="145.435" y="411.494"/>
			<point x="281.157" y="579.486"/>
			<point x="438" y="679" type="curve"/>
			<point x="410" y="682" type="line"/>
			<point x="420" y="652"/>
			<point x="425" y="616"/>
			<point x="425" y="563" type="curve" smooth="yes"/>
			<point x="425" y="389.342"/>
			<point x="378" y="248.517"/>
		</contour>
	</outline>
</glyph>
<glyph name="five" format="2">
	<unicode hex="0035"/>
	<advance width="700"/>
	<image fileName="zero.png" xScale="2.3662938837" yScale="2.3662938837" xOffset="-5227.8248343698" yOffset="-192.644631698" color="0,0,0,0.16492"/>
	<outline>
		<contour>
			<point x="561" y="701" type="curve" smooth="yes"/>
			<point x="587" y="701"/>
			<point x="604" y="710"/>
			<point x="605" y="725" type="curve" smooth="yes"/>
			<point x="606" y="746"/>
			<point x="582" y="766"/>
			<point x="535" y="766" type="curve" smooth="yes"/>
			<point x="424" y="766"/>
			<point x="368" y="747"/>
			<point x="220" y="750" type="curve" smooth="yes"/>
			<point x="193" y="750"/>
			<point x="170" y="733"/>
			<point x="157" y="691" type="curve" smooth="yes"/>
			<point x="128.9829923663" y="597.6099745542"/>
			<point x="117" y="531.7088607595"/>
			<point x="117" y="483" type="curve" smooth="yes"/>
			<point x="117" y="414"/>
			<point x="132.0147067517" y="397.8499133158"/>
			<point x="345" y="354" type="curve" smooth="yes"/>
			<point x="458.7638210937" y="329.9831933246"/>
			<point x="544" y="304"/>
			<point x="544" y="239" type="curve" smooth="yes"/>
			<point x="544" y="90.5483870968"/>
			<point x="411" y="3"/>
			<point x="239" y="3" type="curve" smooth="yes"/>
			<point x="167" y="3"/>
			<point x="174" y="65"/>
			<point x="142" y="65" type="curve" smooth="yes"/>
			<point x="124" y="65"/>
			<point x="115" y="49"/>
			<point x="115" y="28" type="curve" smooth="yes"/>
			<point x="115" y="-26"/>
			<point x="158" y="-62"/>
			<point x="252" y="-62" type="curve" smooth="yes"/>
			<point x="469" y="-62"/>
			<point x="611" y="74.3529411765"/>
			<point x="611" y="243" type="curve" smooth="yes"/>
			<point x="611" y="319"/>
			<point x="566.3553537698" y="373.5843826384"/>
			<point x="381" y="412" type="curve" smooth="yes"/>
			<point x="189.6640294275" y="451.9492685811"/>
			<point x="184" y="457"/>
			<point x="184" y="489" type="curve" smooth="yes"/>
			<point x="184" y="553.1242937853"/>
			<point x="216.5214498973" y="659.6062519775"/>
			<point x="246" y="716" type="curve"/>
			<point x="180" y="685" type="line"/>
			<point x="350" y="682"/>
			<point x="417" y="701"/>
		</contour>
	</outline>
</glyph>
<glyph name="six" format="2">
  <advance width="700"/>
  <unicode hex="0036"/>
  <image fileName="zero.png" xScale="2.3662938837" yScale="2.3662938837" xOffset="-5902.8248343698" yOffset="-192.644631698" color="0,0,0,0.16492"/>
  <outline>
    <contour>
      <point x="459" y="693" type="curve" smooth="yes"/>
      <point x="254.708295608589" y="542.7164473442493"/>
      <point x="152.0" y="361.0704845814978"/>
      <point x="152" y="189" type="curve" smooth="yes"/>
      <point x="152.0" y="51.393162393162385"/>
      <point x="236.0" y="5.0"/>
      <point x="351" y="5" type="curve" smooth="yes"/>
      <point x="451.0" y="5.0"/>
      <point x="547.0" y="53.32984293193718"/>
      <point x="547" y="186" type="curve" smooth="yes"/>
      <point x="547.0" y="246.70588235294116"/>
      <point x="505.5159235669" y="315.0"/>
      <point x="380" y="315" type="curve" smooth="yes"/>
      <point x="233.9545454545" y="315"/>
      <point x="212" y="281"/>
      <point x="170" y="281" type="curve" smooth="yes"/>
      <point x="153" y="281"/>
      <point x="148" y="289"/>
      <point x="148" y="307" type="curve" smooth="yes"/>
      <point x="148" y="341"/>
      <point x="233.3821138211" y="380"/>
      <point x="384" y="380" type="curve" smooth="yes"/>
      <point x="538.6968325792" y="380.0"/>
      <point x="615.0" y="289.5897435897436"/>
      <point x="615" y="175" type="curve" smooth="yes"/>
      <point x="615.0" y="57.9795918367347"/>
      <point x="526.0" y="-60.0"/>
      <point x="351" y="-60" type="curve" smooth="yes"/>
      <point x="164.0" y="-60.0"/>
      <point x="85.0" y="31.605351170568554"/>
      <point x="85" y="189" type="curve" smooth="yes"/>
      <point x="85.0" y="372.66666666666663"/>
      <point x="193.01730255552795" y="579.2937763292625"/>
      <point x="415" y="740" type="curve" smooth="yes"/>
      <point x="448" y="763"/>
      <point x="458" y="771"/>
      <point x="476" y="771" type="curve" smooth="yes"/>
      <point x="489" y="771"/>
      <point x="498" y="761"/>
      <point x="498" y="746" type="curve" smooth="yes"/>
      <point x="498" y="725"/>
      <point x="490" y="715"/>
    </contour>
  </outline>
</glyph>
<glyph name="seven" format="2">
	<unicode hex="0037"/>
	<advance width="700"/>
	<image fileName="zero.png" xScale="2.3662938837" yScale="2.3662938837" xOffset="-6555.8248343698" yOffset="-192.644631698" color="0,0,0,0.16492"/>
	<outline>
		<contour>
			<point x="222" y="346" type="curve" smooth="yes"/>
			<point x="324.0338983051" y="346"/>
			<point x="414.5988023952" y="374"/>
			<point x="566" y="374" type="curve" smooth="yes"/>
			<point x="607" y="374"/>
			<point x="632" y="356"/>
			<point x="632" y="329" type="curve" smooth="yes"/>
			<point x="632" y="317"/>
			<point x="621" y="309"/>
			<point x="601" y="309" type="curve" smooth="yes"/>
			<point x="411.4410876133" y="309"/>
			<point x="343.5498575498" y="281"/>
			<point x="260" y="281" type="curve" smooth="yes"/>
			<point x="225" y="281"/>
			<point x="199" y="303"/>
			<point x="199" y="322" type="curve" smooth="yes"/>
			<point x="199" y="336"/>
			<point x="211" y="346"/>
		</contour>
		<contour>
			<point x="120" y="597" type="curve" smooth="yes"/>
			<point x="197" y="634"/>
			<point x="276" y="660"/>
			<point x="376" y="660" type="curve" smooth="yes"/>
			<point x="524" y="660"/>
			<point x="580" y="601"/>
			<point x="580" y="515" type="curve" smooth="yes"/>
			<point x="580" y="402.1317829457"/>
			<point x="410" y="248.974248927"/>
			<point x="410" y="99" type="curve" smooth="yes"/>
			<point x="410" y="54"/>
			<point x="403" y="41"/>
			<point x="383" y="41" type="curve" smooth="yes"/>
			<point x="361" y="41"/>
			<point x="343" y="60"/>
			<point x="343" y="99" type="curve" smooth="yes"/>
			<point x="343" y="258.6695464363"/>
			<point x="513" y="422.6374269006"/>
			<point x="513" y="512" type="curve" smooth="yes"/>
			<point x="513" y="567"/>
			<point x="487" y="593"/>
			<point x="383" y="593" type="curve" smooth="yes"/>
			<point x="236" y="593"/>
			<point x="173" y="530"/>
			<point x="129" y="530" type="curve" smooth="yes"/>
			<point x="109" y="530"/>
			<point x="93" y="542"/>
			<point x="93" y="562" type="curve" smooth="yes"/>
			<point x="93" y="576"/>
			<point x="103" y="589"/>
		</contour>
	</outline>
</glyph>
<glyph name="eight" format="2">
	<unicode hex="0038"/>
	<advance width="700"/>
	<image fileName="zero.png" xScale="2.3662938837" yScale="2.3662938837" xOffset="-7182.8248343698" yOffset="-192.644631698" color="0,0,0,0.16492"/>
	<outline>
		<contour>
			<point x="446" y="676" type="curve" smooth="yes"/>
			<point x="246.2235419037" y="680.1404447274"/>
			<point x="150" y="643.8015267176"/>
			<point x="150" y="565" type="curve" smooth="yes"/>
			<point x="150" y="518.2253521127"/>
			<point x="170.147992035" y="477.3210445705"/>
			<point x="374" y="403" type="curve" smooth="yes"/>
			<point x="589.7325925313" y="324.8360171988"/>
			<point x="603" y="255.3802816901"/>
			<point x="603" y="180" type="curve" smooth="yes"/>
			<point x="603" y="59.0806451613"/>
			<point x="510.5555555556" y="-58"/>
			<point x="291" y="-58" type="curve"/>
			<point x="159.3428571429" y="-58"/>
			<point x="109.8321474942" y="23.7538821101"/>
			<point x="111" y="102" type="curve" smooth="yes"/>
			<point x="111.9258213722" y="176.0657097744"/>
			<point x="122.6111236593" y="245.9388412643"/>
			<point x="334" y="389" type="curve" smooth="yes"/>
			<point x="434" y="456"/>
			<point x="487" y="512"/>
			<point x="513" y="602" type="curve" smooth="yes"/>
			<point x="522" y="631"/>
			<point x="528.7777777778" y="643"/>
			<point x="546" y="643" type="curve" smooth="yes"/>
			<point x="562.8596491228" y="643"/>
			<point x="577" y="628"/>
			<point x="577" y="609" type="curve" smooth="yes"/>
			<point x="577" y="535"/>
			<point x="518.4832924048" y="430.6804694585"/>
			<point x="381" y="340" type="curve" smooth="yes"/>
			<point x="215.96875672" y="233.2150778777"/>
			<point x="175" y="164.8549618321"/>
			<point x="175" y="101" type="curve" smooth="yes"/>
			<point x="175" y="63.9638554217"/>
			<point x="182.7309208766" y="25.9875899129"/>
			<point x="210" y="-5" type="curve"/>
			<point x="167" y="38" type="line"/>
			<point x="197" y="17"/>
			<point x="236" y="7"/>
			<point x="291" y="7" type="curve"/>
			<point x="416.6956521739" y="7"/>
			<point x="536" y="64.7027027027"/>
			<point x="536" y="182" type="curve" smooth="yes"/>
			<point x="536" y="247.0939597315"/>
			<point x="500.1377310762" y="287.0977322735"/>
			<point x="349" y="341" type="curve" smooth="yes"/>
			<point x="113.5805034556" y="424.7047098825"/>
			<point x="81.90292322" y="486.913395059"/>
			<point x="83" y="567" type="curve" smooth="yes"/>
			<point x="84.7938925214" y="676.4274438048"/>
			<point x="183.108974359" y="741"/>
			<point x="405" y="741" type="curve" smooth="yes"/>
			<point x="455" y="741"/>
			<point x="477" y="720"/>
			<point x="477" y="699" type="curve" smooth="yes"/>
			<point x="477" y="686"/>
			<point x="462" y="675"/>
		</contour>
	</outline>
</glyph>
<glyph name="nine" format="2">
	<unicode hex="0039"/>
	<advance width="700"/>
	<image fileName="zero.png" xScale="2.3662938837" yScale="2.3662938837" xOffset="-7800.8248343698" yOffset="-227.644631698" color="0,0,0,0.16492"/>
	<outline>
		<contour>
			<point x="496" y="539" type="curve" smooth="yes"/>
			<point x="510" y="539"/>
			<point x="517" y="559"/>
			<point x="517" y="579" type="curve" smooth="yes"/>
			<point x="517" y="629"/>
			<point x="462" y="660"/>
			<point x="369" y="660" type="curve" smooth="yes"/>
			<point x="198" y="660"/>
			<point x="92" y="532"/>
			<point x="92" y="408" type="curve" smooth="yes"/>
			<point x="92" y="301"/>
			<point x="150" y="228"/>
			<point x="277" y="228" type="curve" smooth="yes"/>
			<point x="389" y="228"/>
			<point x="501" y="295"/>
			<point x="537" y="406" type="curve"/>
			<point x="513" y="409" type="line"/>
			<point x="513" y="271.7553444181"/>
			<point x="506.8366929306" y="164.455073008"/>
			<point x="519" y="88" type="curve" smooth="yes"/>
			<point x="524" y="59"/>
			<point x="540" y="41"/>
			<point x="567" y="41" type="curve" smooth="yes"/>
			<point x="582" y="41"/>
			<point x="590" y="52"/>
			<point x="590" y="71" type="curve" smooth="yes"/>
			<point x="590" y="101.4306220096"/>
			<point x="578" y="131.7760617761"/>
			<point x="578" y="230" type="curve" smooth="yes"/>
			<point x="578" y="270"/>
			<point x="575" y="369"/>
			<point x="576" y="475" type="curve"/>
			<point x="595" y="581"/>
			<point x="571" y="607"/>
			<point x="532" y="607" type="curve" smooth="yes"/>
			<point x="515" y="607"/>
			<point x="504" y="589"/>
			<point x="504" y="554" type="curve" smooth="yes"/>
			<point x="504" y="370"/>
			<point x="392" y="293"/>
			<point x="277" y="293" type="curve" smooth="yes"/>
			<point x="202" y="293"/>
			<point x="159" y="332"/>
			<point x="159" y="408" type="curve" smooth="yes"/>
			<point x="159" y="515"/>
			<point x="248" y="595"/>
			<point x="369" y="595" type="curve" smooth="yes"/>
			<point x="474" y="595"/>
			<point x="460" y="539"/>
		</contour>
	</outline>
</glyph>
<glyph name="question" format="2">
  <advance width="462"/>
  <unicode hex="003F"/>
  <outline>
    <contour>
      <point x="46" y="682" type="curve" smooth="yes"/>
      <point x="35" y="676"/>
      <point x="28" y="664"/>
      <point x="28" y="652" type="curve" smooth="yes"/>
      <point x="28" y="633"/>
      <point x="42" y="618"/>
      <point x="62" y="618" type="curve" smooth="yes"/>
      <point x="95" y="618"/>
      <point x="132" y="652"/>
      <point x="219" y="652" type="curve" smooth="yes"/>
      <point x="312" y="652"/>
      <point x="349" y="625"/>
      <point x="349" y="577" type="curve" smooth="yes"/>
      <point x="349" y="543"/>
      <point x="338" y="520"/>
      <point x="278" y="476" type="curve" smooth="yes"/>
      <point x="165" y="396"/>
      <point x="161" y="357"/>
      <point x="161" y="321" type="curve" smooth="yes"/>
      <point x="161" y="264"/>
      <point x="210" y="216"/>
      <point x="256" y="216" type="curve" smooth="yes"/>
      <point x="272" y="216"/>
      <point x="283" y="227"/>
      <point x="283" y="242" type="curve" smooth="yes"/>
      <point x="283" y="281"/>
      <point x="231" y="281"/>
      <point x="231" y="325" type="curve" smooth="yes"/>
      <point x="231" y="350"/>
      <point x="239" y="369"/>
      <point x="314" y="420" type="curve" smooth="yes"/>
      <point x="405" y="484"/>
      <point x="417" y="527"/>
      <point x="417" y="577" type="curve" smooth="yes"/>
      <point x="417" y="656"/>
      <point x="358" y="720"/>
      <point x="219" y="720" type="curve" smooth="yes"/>
      <point x="164" y="720"/>
      <point x="89" y="704"/>
    </contour>
    <contour>
      <point x="250" y="-10" type="curve" smooth="yes"/>
      <point x="286" y="-10"/>
      <point x="300" y="16"/>
      <point x="300" y="41" type="curve" smooth="yes"/>
      <point x="300" y="78"/>
      <point x="279" y="113"/>
      <point x="225" y="113" type="curve" smooth="yes"/>
      <point x="198" y="113"/>
      <point x="175" y="91"/>
      <point x="175" y="61" type="curve" smooth="yes"/>
      <point x="175" y="16"/>
      <point x="209" y="-10"/>
    </contour>
  </outline>
</glyph>
<glyph name="A" format="2">
	<unicode hex="0041"/>
	<advance width="713"/>
	<outline>
		<contour>
			<point x="587" y="-4" type="curve" smooth="yes"/>
			<point x="601" y="-4"/>
			<point x="610" y="6"/>
			<point x="610" y="24" type="curve" smooth="yes"/>
			<point x="610" y="58.7108433735"/>
			<point x="568.2978333007" y="132.2202225264"/>
			<point x="544" y="359" type="curve" smooth="yes"/>
			<point x="524.0050375863" y="550.769866786"/>
			<point x="510.0638297872" y="632"/>
			<point x="399" y="632" type="curve" smooth="yes"/>
			<point x="333.9333333333" y="632"/>
			<point x="267.6661049467" y="567.1973676604"/>
			<point x="216" y="443" type="curve"/>
			<point x="245" y="450" type="line"/>
			<point x="234" y="468"/>
			<point x="220" y="479"/>
			<point x="204" y="479" type="curve"/>
			<point x="188" y="479"/>
			<point x="179" y="465"/>
			<point x="179" y="444" type="curve" smooth="yes"/>
			<point x="179" y="348.4547563805"/>
			<point x="107" y="198.9688149688"/>
			<point x="107" y="89" type="curve" smooth="yes"/>
			<point x="107" y="53"/>
			<point x="120" y="42"/>
			<point x="140" y="42" type="curve" smooth="yes"/>
			<point x="155" y="42"/>
			<point x="162" y="55"/>
			<point x="165" y="75" type="curve" smooth="yes"/>
			<point x="205.8167709072" y="334.6641383245"/>
			<point x="319" y="569"/>
			<point x="396" y="569" type="curve" smooth="yes"/>
			<point x="453.7564102564" y="569"/>
			<point x="465.8801440538" y="508.4151232617"/>
			<point x="481" y="367" type="curve" smooth="yes"/>
			<point x="491.9036107992" y="267.958868574"/>
			<point x="507.9128604561" y="150.2693404085"/>
			<point x="530" y="82" type="curve" smooth="yes"/>
			<point x="550" y="20"/>
			<point x="561" y="-4"/>
		</contour>
		<contour>
			<point x="76" y="194" type="curve" smooth="yes"/>
			<point x="169" y="194"/>
			<point x="244" y="264"/>
			<point x="607" y="264" type="curve" smooth="yes"/>
			<point x="642" y="264"/>
			<point x="672" y="284"/>
			<point x="672" y="303" type="curve" smooth="yes"/>
			<point x="672" y="321"/>
			<point x="665" y="330"/>
			<point x="623" y="330" type="curve" smooth="yes"/>
			<point x="409" y="330"/>
			<point x="217" y="305"/>
			<point x="72" y="248" type="curve" smooth="yes"/>
			<point x="50" y="239"/>
			<point x="44" y="230"/>
			<point x="44" y="216" type="curve" smooth="yes"/>
			<point x="44" y="205"/>
			<point x="55" y="194"/>
		</contour>
	</outline>
	<anchor name="top" x="401" y="621"/>
	<anchor name="bottom" x="355" y="48"/>
	<anchor name="ring" x="401" y="622"/>
	<anchor name="ogonek" x="601" y="16"/>
</glyph>
<glyph name="C" format="2">
	<unicode hex="0043"/>
	<advance width="604"/>
	<image fileName="B_.png" xScale="2.611894476" yScale="2.611894476" xOffset="-677.7903116164" yOffset="-300.367864743" color="0,0,0,0.25523"/>
	<outline>
		<contour>
			<point x="302" y="60" type="curve" smooth="yes"/>
			<point x="460" y="60"/>
			<point x="534" y="151"/>
			<point x="534" y="196" type="curve" smooth="yes"/>
			<point x="534" y="214"/>
			<point x="527" y="229"/>
			<point x="514" y="229" type="curve" smooth="yes"/>
			<point x="481" y="229"/>
			<point x="461" y="125"/>
			<point x="301" y="125" type="curve" smooth="yes"/>
			<point x="211" y="125"/>
			<point x="153" y="190"/>
			<point x="153" y="308" type="curve" smooth="yes"/>
			<point x="153" y="440"/>
			<point x="237" y="566"/>
			<point x="360" y="566" type="curve" smooth="yes"/>
			<point x="421" y="566"/>
			<point x="429" y="538"/>
			<point x="429" y="510" type="curve" smooth="yes"/>
			<point x="429" y="478"/>
			<point x="422" y="450"/>
			<point x="452" y="450" type="curve" smooth="yes"/>
			<point x="482" y="450"/>
			<point x="497" y="482"/>
			<point x="497" y="515" type="curve" smooth="yes"/>
			<point x="497" y="585"/>
			<point x="460" y="631"/>
			<point x="362" y="631" type="curve" smooth="yes"/>
			<point x="202" y="631"/>
			<point x="86" y="474"/>
			<point x="86" y="309" type="curve" smooth="yes"/>
			<point x="86" y="169"/>
			<point x="146" y="60"/>
		</contour>
	</outline>
	<anchor name="top" x="339" y="618"/>
	<anchor name="bottom" x="308" y="73"/>
</glyph>
<glyph name="D" format="2">
	<unicode hex="0044"/>
	<advance width="642"/>
	<outline>
		<contour>
			<point x="224" y="36" type="curve" smooth="yes"/>
			<point x="373" y="36"/>
			<point x="569" y="199"/>
			<point x="569" y="434" type="curve" smooth="yes"/>
			<point x="569" y="574"/>
			<point x="494" y="655"/>
			<point x="339" y="655" type="curve" smooth="yes"/>
			<point x="234" y="655"/>
			<point x="110" y="621"/>
			<point x="53" y="591" type="curve" smooth="yes"/>
			<point x="40" y="584"/>
			<point x="31" y="572"/>
			<point x="31" y="560" type="curve" smooth="yes"/>
			<point x="31" y="547"/>
			<point x="41" y="537"/>
			<point x="63" y="537" type="curve" smooth="yes"/>
			<point x="132" y="537"/>
			<point x="195" y="590"/>
			<point x="346" y="590" type="curve" smooth="yes"/>
			<point x="462" y="590"/>
			<point x="503" y="532"/>
			<point x="503" y="432" type="curve" smooth="yes"/>
			<point x="503" y="239"/>
			<point x="349" y="97"/>
			<point x="177" y="93" type="curve"/>
			<point x="199" y="81" type="line"/>
			<point x="189" y="123"/>
			<point x="187" y="158"/>
			<point x="187" y="193" type="curve" smooth="yes"/>
			<point x="187" y="361"/>
			<point x="211" y="457"/>
			<point x="211" y="533" type="curve" smooth="yes"/>
			<point x="211" y="559"/>
			<point x="199" y="581"/>
			<point x="185" y="581" type="curve" smooth="yes"/>
			<point x="165" y="581"/>
			<point x="156" y="567"/>
			<point x="151" y="528" type="curve" smooth="yes"/>
			<point x="137" y="411"/>
			<point x="123" y="298"/>
			<point x="123" y="140" type="curve" smooth="yes"/>
			<point x="123" y="89"/>
			<point x="166" y="36"/>
		</contour>
	</outline>
	<anchor name="top" x="338" y="644"/>
	<anchor name="bottom" x="225" y="42"/>
</glyph>
<glyph name="F" format="2">
	<unicode hex="0046"/>
	<advance width="554"/>
	<outline>
		<contour>
			<point x="163" y="270" type="curve" smooth="yes"/>
			<point x="160" y="371"/>
			<point x="189.4810873488" y="535.958697729"/>
			<point x="208" y="634" type="curve" smooth="yes"/>
			<point x="212" y="662"/>
			<point x="211" y="682"/>
			<point x="193" y="682" type="curve" smooth="yes"/>
			<point x="164" y="682"/>
			<point x="146" y="662"/>
			<point x="133" y="602" type="curve" smooth="yes"/>
			<point x="110.8507058443" y="503.4356410069"/>
			<point x="95" y="384.8489208633"/>
			<point x="95" y="294" type="curve" smooth="yes"/>
			<point x="95" y="164.696969697"/>
			<point x="108.830473132" y="101.6861780348"/>
			<point x="136" y="43" type="curve" smooth="yes"/>
			<point x="161" y="-12"/>
			<point x="175" y="-30"/>
			<point x="201" y="-30" type="curve" smooth="yes"/>
			<point x="218" y="-30"/>
			<point x="227" y="-16"/>
			<point x="227" y="2" type="curve" smooth="yes"/>
			<point x="227" y="44.1451612903"/>
			<point x="168" y="68"/>
		</contour>
		<contour>
			<point x="457" y="671" type="curve" smooth="yes"/>
			<point x="490" y="671"/>
			<point x="501" y="679"/>
			<point x="501" y="696" type="curve" smooth="yes"/>
			<point x="501" y="720"/>
			<point x="480" y="736"/>
			<point x="440" y="736" type="curve" smooth="yes"/>
			<point x="329" y="736"/>
			<point x="172" y="719"/>
			<point x="81" y="700" type="curve" smooth="yes"/>
			<point x="60" y="695"/>
			<point x="53" y="683"/>
			<point x="53" y="667" type="curve" smooth="yes"/>
			<point x="53" y="651"/>
			<point x="69" y="639"/>
			<point x="94" y="639" type="curve" smooth="yes"/>
			<point x="135" y="639"/>
			<point x="259" y="671"/>
		</contour>
		<contour>
			<point x="189" y="303" type="curve" smooth="yes"/>
			<point x="255.4812960235" y="315.7848646199"/>
			<point x="306.6579836535" y="323.1898559752"/>
			<point x="430" y="332" type="curve" smooth="yes"/>
			<point x="495" y="337"/>
			<point x="519" y="347"/>
			<point x="519" y="375" type="curve" smooth="yes"/>
			<point x="519" y="395"/>
			<point x="507" y="399"/>
			<point x="467" y="399" type="curve"/>
			<point x="377.1139067607" y="397.8015187568"/>
			<point x="262.9494965898" y="381.3084797696"/>
			<point x="171" y="368" type="curve" smooth="yes"/>
			<point x="129" y="362"/>
			<point x="118" y="351"/>
			<point x="118" y="326" type="curve" smooth="yes"/>
			<point x="118" y="316"/>
			<point x="127" y="291"/>
		</contour>
	</outline>
	<anchor name="top" x="297" y="719"/>
	<anchor name="bottom" x="197" y="-17"/>
</glyph>
<glyph name="H" format="2">
	<unicode hex="0048"/>
	<advance width="716"/>
	<outline>
		<contour>
			<point x="163" y="28" type="curve" smooth="yes"/>
			<point x="177" y="28"/>
			<point x="188" y="41"/>
			<point x="188" y="56" type="curve" smooth="yes"/>
			<point x="188" y="209.542"/>
			<point x="193" y="432.137"/>
			<point x="193" y="660" type="curve" smooth="yes"/>
			<point x="193" y="727"/>
			<point x="176" y="759"/>
			<point x="154" y="759" type="curve" smooth="yes"/>
			<point x="135" y="759"/>
			<point x="126" y="748"/>
			<point x="126" y="724" type="curve" smooth="yes"/>
			<point x="126" y="414.598"/>
			<point x="121" y="302.072"/>
			<point x="121" y="115" type="curve" smooth="yes"/>
			<point x="121" y="50"/>
			<point x="143" y="28"/>
		</contour>
		<contour>
			<point x="585" y="-50" type="curve" smooth="yes"/>
			<point x="597" y="-50"/>
			<point x="609" y="-35"/>
			<point x="603" y="-7" type="curve" smooth="yes"/>
			<point x="587.463" y="87.417"/>
			<point x="585.2" y="164.603"/>
			<point x="584" y="233" type="curve" smooth="yes"/>
			<point x="583.079" y="324.206"/>
			<point x="590" y="467.921"/>
			<point x="590" y="584" type="curve" smooth="yes"/>
			<point x="590" y="642"/>
			<point x="571" y="674"/>
			<point x="551" y="674" type="curve" smooth="yes"/>
			<point x="536" y="674"/>
			<point x="523" y="663"/>
			<point x="523" y="638" type="curve" smooth="yes"/>
			<point x="523" y="558.311"/>
			<point x="516" y="438.319"/>
			<point x="516" y="311" type="curve" smooth="yes"/>
			<point x="516" y="36.595"/>
			<point x="529" y="-50"/>
		</contour>
		<contour>
			<point x="98" y="312" type="curve" smooth="yes"/>
			<point x="174.012" y="312"/>
			<point x="297.016" y="342"/>
			<point x="640" y="342" type="curve" smooth="yes"/>
			<point x="672" y="342"/>
			<point x="691" y="353"/>
			<point x="691" y="371" type="curve" smooth="yes"/>
			<point x="691" y="384"/>
			<point x="669" y="405"/>
			<point x="607" y="405" type="curve" smooth="yes"/>
			<point x="424.882" y="405"/>
			<point x="257.397" y="394.112"/>
			<point x="67" y="371" type="curve" smooth="yes"/>
			<point x="42" y="368"/>
			<point x="35" y="353"/>
			<point x="35" y="342" type="curve" smooth="yes"/>
			<point x="35" y="327"/>
			<point x="57" y="312"/>
		</contour>
	</outline>
	<anchor name="bottom" x="359" y="0"/>
	<anchor name="top" x="359" y="700"/>
</glyph>
<glyph name="K" format="2">
	<unicode hex="004B"/>
	<advance width="654"/>
	<image fileName="B_.png" xScale="2.61189" yScale="2.61189" xOffset="-1993.79" yOffset="-300.368"/>
	<outline>
		<contour>
			<point x="135" y="-11" type="curve" smooth="yes"/>
			<point x="151" y="-11"/>
			<point x="161" y="0"/>
			<point x="161" y="19" type="curve" smooth="yes"/>
			<point x="161" y="73"/>
			<point x="149" y="69"/>
			<point x="149" y="225" type="curve" smooth="yes"/>
			<point x="149" y="332"/>
			<point x="174" y="467"/>
			<point x="174" y="552" type="curve" smooth="yes"/>
			<point x="174" y="617"/>
			<point x="168" y="710"/>
			<point x="122" y="710" type="curve" smooth="yes"/>
			<point x="107" y="710"/>
			<point x="95" y="700"/>
			<point x="95" y="676" type="curve" smooth="yes"/>
			<point x="95" y="637"/>
			<point x="107" y="618"/>
			<point x="107" y="552" type="curve" smooth="yes"/>
			<point x="107" y="484"/>
			<point x="83" y="346"/>
			<point x="83" y="187" type="curve" smooth="yes"/>
			<point x="83" y="41"/>
			<point x="96" y="-11"/>
		</contour>
		<contour>
			<point x="581" y="-11" type="curve" smooth="yes"/>
			<point x="601" y="-11"/>
			<point x="609" y="-2"/>
			<point x="609" y="14" type="curve" smooth="yes"/>
			<point x="609" y="36"/>
			<point x="588" y="51"/>
			<point x="559" y="56" type="curve" smooth="yes"/>
			<point x="346.656" y="91.889"/>
			<point x="209" y="195.412"/>
			<point x="209" y="281" type="curve" smooth="yes"/>
			<point x="209" y="335.149"/>
			<point x="301.51" y="445.851"/>
			<point x="472" y="542" type="curve" smooth="yes"/>
			<point x="508" y="562"/>
			<point x="530" y="577"/>
			<point x="530" y="600" type="curve" smooth="yes"/>
			<point x="530" y="617"/>
			<point x="520" y="625"/>
			<point x="502" y="625" type="curve" smooth="yes"/>
			<point x="481" y="625"/>
			<point x="459" y="615"/>
			<point x="417" y="588" type="curve" smooth="yes"/>
			<point x="283.064" y="509.622"/>
			<point x="149" y="398.793"/>
			<point x="149" y="278" type="curve" smooth="yes"/>
			<point x="149" y="96.809"/>
			<point x="460" y="-11"/>
		</contour>
	</outline>
	<anchor name="bottom" x="309" y="0"/>
	<anchor name="top" x="309" y="700"/>
</glyph>
<glyph name="L" format="2">
	<unicode hex="004C"/>
	<advance width="556"/>
	<image fileName="B_.png" xScale="2.611894476" yScale="2.611894476" xOffset="-2674.7903116164" yOffset="-300.367864743" color="0,0,0,0.25523"/>
	<outline>
		<contour>
			<point x="286" y="66" type="curve" smooth="yes"/>
			<point x="350.6478873239" y="66"/>
			<point x="406" y="75"/>
			<point x="456" y="96" type="curve" smooth="yes"/>
			<point x="473" y="103"/>
			<point x="484" y="119"/>
			<point x="484" y="135" type="curve" smooth="yes"/>
			<point x="484" y="151"/>
			<point x="474" y="161"/>
			<point x="457" y="161" type="curve" smooth="yes"/>
			<point x="433.1137440758" y="161"/>
			<point x="403" y="129"/>
			<point x="289" y="129" type="curve" smooth="yes"/>
			<point x="207" y="129"/>
			<point x="174" y="173.7787610619"/>
			<point x="174" y="244" type="curve" smooth="yes"/>
			<point x="174" y="348.625"/>
			<point x="214" y="422.875"/>
			<point x="214" y="514" type="curve" smooth="yes"/>
			<point x="214" y="561"/>
			<point x="200" y="580"/>
			<point x="173" y="580" type="curve" smooth="yes"/>
			<point x="148" y="580"/>
			<point x="147" y="563"/>
			<point x="147" y="528" type="curve" smooth="yes"/>
			<point x="147" y="436.1203931204"/>
			<point x="106" y="358.5331695332"/>
			<point x="106" y="251" type="curve" smooth="yes"/>
			<point x="106" y="131"/>
			<point x="169.4285714286" y="66"/>
		</contour>
	</outline>
	<anchor name="top" x="157" y="700"/>
	<anchor name="bottom" x="289" y="0"/>
</glyph>
<glyph name="M" format="2">
	<unicode hex="004D"/>
	<advance width="916"/>
	<image fileName="B_.png" xScale="2.611894476" yScale="2.611894476" xOffset="-3165.7903116164" yOffset="-300.367864743" color="0,0,0,0.25523"/>
	<outline>
		<contour>
			<point x="183" y="426" type="line"/>
			<point x="177.9615320991" y="491.5000827112"/>
			<point x="156.5588235294" y="541"/>
			<point x="125" y="541" type="curve" smooth="yes"/>
			<point x="108" y="541"/>
			<point x="99" y="533"/>
			<point x="99" y="520" type="curve" smooth="yes"/>
			<point x="99" y="494.3756613757"/>
			<point x="123" y="471.4021164021"/>
			<point x="123" y="353" type="curve" smooth="yes"/>
			<point x="123" y="295"/>
			<point x="113" y="240"/>
			<point x="113" y="155" type="curve" smooth="yes"/>
			<point x="113" y="51"/>
			<point x="140.862745098" y="35"/>
			<point x="162" y="35" type="curve" smooth="yes"/>
			<point x="178" y="35"/>
			<point x="190" y="47"/>
			<point x="190" y="71" type="curve" smooth="yes"/>
			<point x="190" y="278"/>
			<point x="223" y="451"/>
			<point x="275" y="551" type="curve"/>
			<point x="269" y="549" type="line"/>
			<point x="297" y="498"/>
			<point x="315" y="421"/>
			<point x="326" y="343" type="curve" smooth="yes"/>
			<point x="344" y="233"/>
			<point x="367" y="126"/>
			<point x="410" y="68" type="curve" smooth="yes"/>
			<point x="427" y="47"/>
			<point x="438" y="38"/>
			<point x="458" y="38" type="curve" smooth="yes"/>
			<point x="482" y="38"/>
			<point x="490" y="47"/>
			<point x="501" y="65" type="curve" smooth="yes"/>
			<point x="612" y="242"/>
			<point x="610" y="444"/>
			<point x="691" y="531" type="curve"/>
			<point x="682" y="533" type="line"/>
			<point x="707" y="497"/>
			<point x="720" y="461"/>
			<point x="724" y="390" type="curve" smooth="yes"/>
			<point x="729" y="291"/>
			<point x="754" y="162"/>
			<point x="785" y="97" type="curve" smooth="yes"/>
			<point x="807" y="51"/>
			<point x="819" y="38"/>
			<point x="845" y="38" type="curve" smooth="yes"/>
			<point x="861" y="38"/>
			<point x="875" y="48"/>
			<point x="861" y="83" type="curve" smooth="yes"/>
			<point x="818" y="178"/>
			<point x="791" y="295"/>
			<point x="785" y="401" type="curve" smooth="yes"/>
			<point x="776" y="571"/>
			<point x="726" y="607"/>
			<point x="693" y="607" type="curve" smooth="yes"/>
			<point x="664" y="607"/>
			<point x="637" y="577"/>
			<point x="598" y="500" type="curve" smooth="yes"/>
			<point x="551" y="408"/>
			<point x="527" y="212"/>
			<point x="446" y="93" type="curve"/>
			<point x="463" y="100" type="line"/>
			<point x="428" y="158"/>
			<point x="413" y="213"/>
			<point x="406" y="256" type="curve" smooth="yes"/>
			<point x="371" y="475"/>
			<point x="352" y="611"/>
			<point x="282" y="611" type="curve" smooth="yes"/>
			<point x="232" y="611"/>
			<point x="197" y="554"/>
			<point x="174" y="427" type="curve"/>
		</contour>
	</outline>
	<anchor name="top" x="476" y="594"/>
	<anchor name="bottom" x="458" y="48"/>
</glyph>
<glyph name="N" format="2">
  <advance width="754"/>
  <unicode hex="004E"/>
  <anchor x="384" y="56.55" name="bottom"/>
  <anchor x="384" y="595.35" name="top"/>
  <outline>
    <contour>
      <point x="117" y="47.25" type="curve" smooth="yes"/>
      <point x="135" y="47.25"/>
      <point x="148" y="63.25"/>
      <point x="156.6" y="85.55" type="curve" smooth="yes"/>
      <point x="181.35" y="151.05"/>
      <point x="193" y="227.4"/>
      <point x="193" y="310.8" type="curve" smooth="yes"/>
      <point x="193" y="379.7"/>
      <point x="184.575" y="447.443"/>
      <point x="175" y="540.25" type="curve"/>
      <point x="164" y="536.25" type="line"/>
      <point x="330.25" y="464.55"/>
      <point x="368.317" y="48.5"/>
      <point x="567" y="48.5" type="curve" smooth="yes"/>
      <point x="645" y="48.5"/>
      <point x="658" y="132.627"/>
      <point x="658" y="248.5" type="curve" smooth="yes"/>
      <point x="658" y="355.57"/>
      <point x="650.333" y="436.242"/>
      <point x="669" y="530.35" type="curve" smooth="yes"/>
      <point x="676" y="567.35"/>
      <point x="663" y="600.35"/>
      <point x="638" y="600.35" type="curve" smooth="yes"/>
      <point x="617" y="600.35"/>
      <point x="606" y="587.35"/>
      <point x="599" y="555.35" type="curve" smooth="yes"/>
      <point x="578.668" y="463.969"/>
      <point x="588" y="359.463"/>
      <point x="588" y="243.5" type="curve" smooth="yes"/>
      <point x="588" y="175.214"/>
      <point x="580.05" y="140.65"/>
      <point x="552.35" y="110.6" type="curve"/>
      <point x="576" y="121.95" type="line"/>
      <point x="413.8" y="122.55"/>
      <point x="361.8" y="602.75"/>
      <point x="156" y="602.75" type="curve" smooth="yes"/>
      <point x="122.7" y="602.75"/>
      <point x="107" y="575.318"/>
      <point x="107" y="537.25" type="curve" smooth="yes"/>
      <point x="107" y="513.35"/>
      <point x="123" y="406.3"/>
      <point x="123" y="312.1" type="curve" smooth="yes"/>
      <point x="123" y="162.75"/>
      <point x="83.65" y="128.5"/>
      <point x="83.65" y="86.55" type="curve" smooth="yes"/>
      <point x="83.65" y="56.65"/>
      <point x="99.344" y="47.25"/>
    </contour>
  </outline>
</glyph>
<glyph name="O" format="2">
	<unicode hex="004F"/>
	<advance width="687"/>
	<outline>
		<contour>
			<point x="256.5" y="495.5" type="curve" smooth="yes"/>
			<point x="283.5" y="512.5"/>
			<point x="302.5" y="533.5"/>
			<point x="285.5" y="558.5" type="curve" smooth="yes"/>
			<point x="275.85" y="571.85"/>
			<point x="267.5" y="573.5"/>
			<point x="259.5" y="573.5" type="curve" smooth="yes"/>
			<point x="230.7870813397" y="573.5"/>
			<point x="83" y="470.5418367347"/>
			<point x="83" y="283.5" type="curve" smooth="yes"/>
			<point x="83" y="151.997826087"/>
			<point x="167.7364620939" y="35.5"/>
			<point x="327.5" y="35.5" type="curve" smooth="yes"/>
			<point x="495.7265372168" y="35.5"/>
			<point x="604" y="148.6179166666"/>
			<point x="604" y="291.55" type="curve" smooth="yes"/>
			<point x="604" y="476.0610320284"/>
			<point x="509.4072847682" y="626.5"/>
			<point x="334.5" y="626.5" type="curve" smooth="yes"/>
			<point x="263.5" y="626.5"/>
			<point x="223.5" y="570.35"/>
			<point x="223.5" y="508.5" type="curve" smooth="yes"/>
			<point x="223.5" y="479.5"/>
			<point x="242.5" y="463.5"/>
			<point x="260.5" y="463.5" type="curve" smooth="yes"/>
			<point x="278.5" y="463.5"/>
			<point x="295.5" y="478.5"/>
			<point x="295.5" y="508.5" type="curve" smooth="yes"/>
			<point x="295.5" y="538.35"/>
			<point x="306.5" y="561.5"/>
			<point x="341.5" y="561.5" type="curve" smooth="yes"/>
			<point x="470.6888888889" y="561.5"/>
			<point x="534" y="417.8511574074"/>
			<point x="534" y="291.55" type="curve" smooth="yes"/>
			<point x="534" y="175.6477011494"/>
			<point x="445.870292887" y="101.5"/>
			<point x="327.5" y="101.5" type="curve" smooth="yes"/>
			<point x="207.7946859903" y="101.5"/>
			<point x="153" y="189.268902439"/>
			<point x="153" y="283.5" type="curve" smooth="yes"/>
			<point x="153" y="400.4308383233"/>
			<point x="215.4951767585" y="468.1634511723"/>
		</contour>
	</outline>
	<anchor name="top" x="339.5" y="616.15"/>
	<anchor name="bottom" x="339.5" y="44.2"/>
	<anchor name="ogonek" x="465.5" y="73.2"/>
</glyph>
<glyph name="P" format="2">
  <advance width="570"/>
  <unicode hex="0050"/>
  <image fileName="B_.png" xScale="2.61189" yScale="2.61189" xOffset="-4065.79" yOffset="-300.368"/>
  <anchor x="180" y="24" name="bottom"/>
  <anchor x="299" y="660" name="top"/>
  <outline>
    <contour>
      <point x="148" y="67" type="curve" smooth="yes"/>
      <point x="148" y="28"/>
      <point x="162" y="10"/>
      <point x="181" y="10" type="curve" smooth="yes"/>
      <point x="202" y="10"/>
      <point x="215" y="24"/>
      <point x="215" y="49" type="curve" smooth="yes"/>
      <point x="215" y="244"/>
      <point x="158" y="347"/>
      <point x="158" y="466" type="curve" smooth="yes"/>
      <point x="158" y="559.559"/>
      <point x="205" y="610"/>
      <point x="298" y="610" type="curve" smooth="yes"/>
      <point x="368.55" y="610"/>
      <point x="434" y="562"/>
      <point x="434" y="466" type="curve" smooth="yes"/>
      <point x="434" y="380"/>
      <point x="367" y="308"/>
      <point x="256" y="308" type="curve" smooth="yes"/>
      <point x="197" y="308"/>
      <point x="185" y="326"/>
      <point x="158" y="326" type="curve" smooth="yes"/>
      <point x="147" y="326"/>
      <point x="139" y="318"/>
      <point x="139" y="303" type="curve" smooth="yes"/>
      <point x="139" y="272"/>
      <point x="189" y="243"/>
      <point x="259" y="243" type="curve" smooth="yes"/>
      <point x="405" y="243"/>
      <point x="501" y="351"/>
      <point x="501" y="466" type="curve" smooth="yes"/>
      <point x="501" y="599"/>
      <point x="409.832" y="675"/>
      <point x="299" y="675" type="curve" smooth="yes"/>
      <point x="154" y="675"/>
      <point x="91" y="590.364"/>
      <point x="91" y="466" type="curve" smooth="yes"/>
      <point x="91" y="341"/>
      <point x="148" y="231"/>
    </contour>
  </outline>
</glyph>
<glyph name="R" format="2">
  <advance width="700"/>
  <unicode hex="0052"/>
  <anchor x="312" y="0" name="bottom"/>
  <anchor x="408" y="700" name="top"/>
  <outline>
    <contour>
      <point x="97" y="602" type="curve" smooth="yes"/>
      <point x="67" y="602"/>
      <point x="63" y="584"/>
      <point x="80" y="541" type="curve" smooth="yes"/>
      <point x="111" y="464"/>
      <point x="116" y="450"/>
      <point x="121" y="395" type="curve"/>
      <point x="86" y="272"/>
      <point x="70" y="181"/>
      <point x="70" y="106" type="curve" smooth="yes"/>
      <point x="70" y="30"/>
      <point x="80" y="-13"/>
      <point x="114" y="-13" type="curve" smooth="yes"/>
      <point x="133" y="-13"/>
      <point x="137" y="-5"/>
      <point x="137" y="68" type="curve" smooth="yes"/>
      <point x="137" y="343"/>
      <point x="252" y="645"/>
      <point x="455" y="645" type="curve" smooth="yes"/>
      <point x="528" y="645"/>
      <point x="556" y="600"/>
      <point x="556" y="547" type="curve" smooth="yes"/>
      <point x="556" y="465"/>
      <point x="479" y="372"/>
      <point x="232" y="281" type="curve" smooth="yes"/>
      <point x="189" y="265"/>
      <point x="182" y="239"/>
      <point x="215" y="204" type="curve" smooth="yes"/>
      <point x="329" y="90"/>
      <point x="614" y="-12"/>
      <point x="686" y="-12" type="curve" smooth="yes"/>
      <point x="709" y="-12"/>
      <point x="719" y="-3"/>
      <point x="719" y="14" type="curve" smooth="yes"/>
      <point x="719" y="34"/>
      <point x="709" y="45"/>
      <point x="667" y="55" type="curve" smooth="yes"/>
      <point x="509" y="96"/>
      <point x="367" y="157"/>
      <point x="274" y="232" type="curve"/>
      <point x="564" y="337"/>
      <point x="626" y="450"/>
      <point x="626" y="548" type="curve" smooth="yes"/>
      <point x="626" y="639"/>
      <point x="577" y="710"/>
      <point x="464" y="710" type="curve" smooth="yes"/>
      <point x="338" y="710"/>
      <point x="226" y="637"/>
      <point x="149" y="453" type="curve"/>
      <point x="173" y="462" type="line"/>
      <point x="157" y="570"/>
      <point x="131" y="602"/>
    </contour>
  </outline>
</glyph>
<glyph name="S" format="2">
	<unicode hex="0053"/>
	<advance width="561"/>
	<outline>
		<contour>
			<point x="230" y="13" type="curve" smooth="yes"/>
			<point x="365.0151515152" y="13"/>
			<point x="496" y="57.3382352941"/>
			<point x="496" y="147" type="curve" smooth="yes"/>
			<point x="496" y="302"/>
			<point x="121" y="315"/>
			<point x="121" y="418" type="curve" smooth="yes"/>
			<point x="121" y="498"/>
			<point x="240.5033460879" y="577.5459668651"/>
			<point x="459" y="611" type="curve" smooth="yes"/>
			<point x="493" y="616"/>
			<point x="504" y="628"/>
			<point x="504" y="647" type="curve" smooth="yes"/>
			<point x="504" y="668"/>
			<point x="490" y="680"/>
			<point x="461" y="680" type="curve" smooth="yes"/>
			<point x="333.3172588832" y="680"/>
			<point x="52" y="584"/>
			<point x="52" y="415" type="curve" smooth="yes"/>
			<point x="52" y="254.5620437956"/>
			<point x="416.9326212836" y="253.4417049183"/>
			<point x="435" y="135" type="curve"/>
			<point x="395.8607913629" y="100.8786386241"/>
			<point x="329.889298893" y="79"/>
			<point x="224" y="79" type="curve" smooth="yes"/>
			<point x="178" y="79"/>
			<point x="170" y="89"/>
			<point x="142" y="89" type="curve" smooth="yes"/>
			<point x="122" y="89"/>
			<point x="113" y="80"/>
			<point x="113" y="64" type="curve" smooth="yes"/>
			<point x="113" y="34.1698113208"/>
			<point x="151.3445378151" y="13"/>
		</contour>
	</outline>
</glyph>
<glyph name="T" format="2">
	<unicode hex="0054"/>
	<advance width="647"/>
	<outline>
		<contour>
			<point x="295" y="526" type="curve" smooth="yes"/>
			<point x="277.5703257363" y="321.201327401"/>
			<point x="286.9196355093" y="173.7768567435"/>
			<point x="293" y="115" type="curve" smooth="yes"/>
			<point x="301.0917874345" y="45.2083333774"/>
			<point x="322.4339622642" y="26"/>
			<point x="345" y="26" type="curve" smooth="yes"/>
			<point x="360" y="26"/>
			<point x="371" y="33"/>
			<point x="371" y="52" type="curve" smooth="yes"/>
			<point x="371" y="82.0104166667"/>
			<point x="340.2205572179" y="190.4229196311"/>
			<point x="357" y="454" type="curve" smooth="yes"/>
			<point x="362" y="542"/>
			<point x="355" y="570"/>
			<point x="324" y="570" type="curve" smooth="yes"/>
			<point x="307" y="570"/>
			<point x="297" y="552"/>
		</contour>
		<contour>
			<point x="134" y="559" type="curve" smooth="yes"/>
			<point x="262" y="555"/>
			<point x="337" y="554"/>
			<point x="489" y="554" type="curve" smooth="yes"/>
			<point x="553" y="554"/>
			<point x="618" y="570"/>
			<point x="618" y="605" type="curve" smooth="yes"/>
			<point x="618" y="620"/>
			<point x="608" y="631"/>
			<point x="586" y="631" type="curve" smooth="yes"/>
			<point x="555" y="631"/>
			<point x="545" y="620"/>
			<point x="452" y="620" type="curve" smooth="yes"/>
			<point x="317" y="620"/>
			<point x="245" y="626"/>
			<point x="80" y="626" type="curve" smooth="yes"/>
			<point x="52" y="626"/>
			<point x="41" y="617"/>
			<point x="41" y="605" type="curve" smooth="yes"/>
			<point x="41" y="583"/>
			<point x="56" y="561"/>
		</contour>
	</outline>
	<anchor name="top" x="339" y="612"/>
	<anchor name="bottom" x="345" y="35"/>
</glyph>
<glyph name="U" format="2">
  <advance width="650"/>
  <unicode hex="0055"/>
  <anchor x="344" y="51" name="bottom"/>
  <anchor x="453" y="63" name="ogonek"/>
  <anchor x="340" y="613" name="top"/>
  <outline>
    <contour>
      <point x="351" y="37" type="curve" smooth="yes"/>
      <point x="509" y="37"/>
      <point x="581" y="143.582"/>
      <point x="581" y="298" type="curve" smooth="yes"/>
      <point x="581" y="353.864"/>
      <point x="576" y="407.432"/>
      <point x="576" y="461" type="curve" smooth="yes"/>
      <point x="576" y="543.26"/>
      <point x="588" y="565.555"/>
      <point x="588" y="594" type="curve" smooth="yes"/>
      <point x="588" y="616"/>
      <point x="578" y="622"/>
      <point x="562" y="622" type="curve" smooth="yes"/>
      <point x="527" y="622"/>
      <point x="506" y="586"/>
      <point x="506" y="525" type="curve" smooth="yes"/>
      <point x="506" y="442.077"/>
      <point x="514" y="393"/>
      <point x="514" y="305" type="curve" smooth="yes"/>
      <point x="514" y="166.325"/>
      <point x="464" y="103"/>
      <point x="344" y="103" type="curve" smooth="yes"/>
      <point x="250.932" y="103"/>
      <point x="177" y="145.203"/>
      <point x="177" y="269" type="curve" smooth="yes"/>
      <point x="177" y="326"/>
      <point x="184" y="396"/>
      <point x="184" y="448" type="curve" smooth="yes"/>
      <point x="184" y="574.046"/>
      <point x="151" y="619"/>
      <point x="122" y="619" type="curve" smooth="yes"/>
      <point x="103" y="619"/>
      <point x="92" y="608"/>
      <point x="92" y="583" type="curve" smooth="yes"/>
      <point x="92" y="542.658"/>
      <point x="116" y="532.134"/>
      <point x="116" y="419" type="curve" smooth="yes"/>
      <point x="116" y="381"/>
      <point x="111" y="321"/>
      <point x="111" y="267" type="curve" smooth="yes"/>
      <point x="111" y="128.233"/>
      <point x="182.547" y="37"/>
    </contour>
  </outline>
</glyph>
<glyph name="V" format="2">
	<unicode hex="0056"/>
	<advance width="665"/>
	<outline>
		<contour>
			<point x="304" y="40"/>
			<point x="318" y="34"/>
			<point x="335" y="34" type="curve" smooth="yes"/>
			<point x="354" y="34"/>
			<point x="365" y="43"/>
			<point x="378" y="94" type="curve" smooth="yes"/>
			<point x="428.7268495874" y="291.3735602126"/>
			<point x="500.9503494771" y="392.772027675"/>
			<point x="616" y="590" type="curve" smooth="yes"/>
			<point x="630" y="614"/>
			<point x="639" y="637"/>
			<point x="639" y="659" type="curve" smooth="yes"/>
			<point x="639" y="673"/>
			<point x="632" y="684"/>
			<point x="617" y="684" type="curve" smooth="yes"/>
			<point x="600" y="684"/>
			<point x="594" y="678"/>
			<point x="559" y="624" type="curve" smooth="yes"/>
			<point x="456.7193786248" y="464.589662181"/>
			<point x="367.8427177454" y="303.8905312635"/>
			<point x="316" y="103" type="curve"/>
			<point x="339" y="110" type="line"/>
			<point x="240.6920543758" y="262.6113822548"/>
			<point x="213.8605321665" y="427.9483566458"/>
			<point x="148" y="553" type="curve" smooth="yes"/>
			<point x="120" y="609"/>
			<point x="98" y="631"/>
			<point x="69" y="631" type="curve" smooth="yes"/>
			<point x="55" y="631"/>
			<point x="48" y="622"/>
			<point x="48" y="609" type="curve" smooth="yes"/>
			<point x="48" y="587"/>
			<point x="59" y="568"/>
			<point x="91" y="517" type="curve" smooth="yes"/>
			<point x="139.7734535519" y="440.4761332204"/>
			<point x="182.2521132133" y="238.8576830096"/>
			<point x="266" y="103" type="curve" smooth="yes"/>
		</contour>
	</outline>
	<anchor name="top" x="336" y="700"/>
	<anchor name="bottom" x="336" y="0"/>
</glyph>
<glyph name="W" format="2">
  <advance width="948"/>
  <unicode hex="0057"/>
  <image fileName="W_.png" xScale="2.14942" yScale="2.14942" xOffset="-6246.522" yOffset="-188.078"/>
  <anchor x="478" y="64" name="bottom"/>
  <anchor x="478" y="584" name="top"/>
  <outline>
    <contour>
      <point x="141" y="541" type="curve" smooth="yes"/>
      <point x="138" y="578"/>
      <point x="132" y="597"/>
      <point x="101" y="597" type="curve" smooth="yes"/>
      <point x="77" y="597"/>
      <point x="68" y="579"/>
      <point x="70" y="560" type="curve" smooth="yes"/>
      <point x="83.994" y="413.06"/>
      <point x="145.044" y="185.485"/>
      <point x="206" y="97" type="curve" smooth="yes"/>
      <point x="231" y="61"/>
      <point x="251" y="54"/>
      <point x="276" y="54" type="curve" smooth="yes"/>
      <point x="301" y="54"/>
      <point x="321" y="68"/>
      <point x="325" y="92" type="curve" smooth="yes"/>
      <point x="352.891" y="242.414"/>
      <point x="383" y="396"/>
      <point x="466" y="468" type="curve"/>
      <point x="456" y="471" type="line"/>
      <point x="546" y="398"/>
      <point x="511.012" y="191.478"/>
      <point x="580" y="105" type="curve" smooth="yes"/>
      <point x="620" y="55"/>
      <point x="645" y="51"/>
      <point x="672" y="51" type="curve" smooth="yes"/>
      <point x="691" y="51"/>
      <point x="707" y="61"/>
      <point x="724" y="92" type="curve" smooth="yes"/>
      <point x="783" y="202"/>
      <point x="797" y="419"/>
      <point x="852" y="528" type="curve" smooth="yes"/>
      <point x="874" y="574"/>
      <point x="869" y="597"/>
      <point x="844" y="597" type="curve" smooth="yes"/>
      <point x="821" y="597"/>
      <point x="811" y="592"/>
      <point x="793" y="559" type="curve" smooth="yes"/>
      <point x="731" y="440"/>
      <point x="722" y="209"/>
      <point x="654" y="104" type="curve"/>
      <point x="667" y="111" type="line"/>
      <point x="585" y="177"/>
      <point x="607.044" y="308.877"/>
      <point x="571" y="411" type="curve" smooth="yes"/>
      <point x="541" y="496"/>
      <point x="512" y="528"/>
      <point x="467" y="528" type="curve" smooth="yes"/>
      <point x="433" y="528"/>
      <point x="403" y="504"/>
      <point x="377" y="474" type="curve" smooth="yes"/>
      <point x="318.717" y="407.257"/>
      <point x="288" y="276"/>
      <point x="259" y="108" type="curve"/>
      <point x="274" y="109" type="line"/>
      <point x="194.239" y="233.073"/>
      <point x="149.997" y="441.037"/>
    </contour>
  </outline>
</glyph>
<glyph name="X" format="2">
	<unicode hex="0058"/>
	<advance width="587"/>
	<image fileName="W_.png" xScale="2.1183007847" xyScale="-0.3644236559" yxScale="0.3644236559" yScale="2.1183007847" xOffset="-7152.8449585541" yOffset="1029.1221139848" color="0,0,0,0.26332"/>
	<outline>
		<contour>
			<point x="173" y="551" type="curve" smooth="yes"/>
			<point x="213" y="402"/>
			<point x="400" y="255"/>
			<point x="449" y="165" type="curve" smooth="yes"/>
			<point x="493" y="83"/>
			<point x="474" y="59"/>
			<point x="453" y="59" type="curve" smooth="yes"/>
			<point x="441" y="59"/>
			<point x="426" y="60"/>
			<point x="401" y="108" type="curve" smooth="yes"/>
			<point x="344" y="224"/>
			<point x="174" y="366"/>
			<point x="132" y="468" type="curve" smooth="yes"/>
			<point x="96" y="559"/>
			<point x="107" y="584"/>
			<point x="135" y="584" type="curve" smooth="yes"/>
			<point x="154" y="584"/>
			<point x="166" y="575"/>
		</contour>
		<contour>
			<point x="446" y="474" type="curve" smooth="yes"/>
			<point x="351" y="384"/>
			<point x="207" y="194"/>
			<point x="115" y="12" type="curve" smooth="yes"/>
			<point x="97" y="-24"/>
			<point x="85" y="-30"/>
			<point x="70" y="-30" type="curve" smooth="yes"/>
			<point x="44" y="-30"/>
			<point x="34" y="-4"/>
			<point x="73" y="72" type="curve" smooth="yes"/>
			<point x="140" y="200"/>
			<point x="280" y="400"/>
			<point x="431" y="551" type="curve" smooth="yes"/>
			<point x="452" y="571"/>
			<point x="460" y="574"/>
			<point x="468" y="574" type="curve" smooth="yes"/>
			<point x="490" y="574"/>
			<point x="509" y="533"/>
		</contour>
	</outline>
	<anchor name="top" x="279" y="562"/>
	<anchor name="bottom" x="279" y="39"/>
</glyph>
<glyph name="Y" format="2">
	<unicode hex="0059"/>
	<advance width="601"/>
	<image fileName="W_.png" xScale="2.149419181" yScale="2.149419181" xOffset="-7799.9384359798" yOffset="-239.078106569" color="0,0,0,0.26332"/>
	<outline>
		<contour>
			<point x="542" y="554" type="curve" smooth="yes"/>
			<point x="419.3794219302" y="422.228632522"/>
			<point x="301.9366846883" y="263.7090801"/>
			<point x="268" y="78" type="curve" smooth="yes"/>
			<point x="259" y="28"/>
			<point x="247" y="16"/>
			<point x="222" y="16" type="curve" smooth="yes"/>
			<point x="196" y="16"/>
			<point x="184" y="38"/>
			<point x="198" y="99" type="curve" smooth="yes"/>
			<point x="232.1199372822" y="266.7563583043"/>
			<point x="356.5077723761" y="462.6231151358"/>
			<point x="501" y="620" type="curve" smooth="yes"/>
			<point x="527" y="648"/>
			<point x="542" y="653"/>
			<point x="557" y="653" type="curve" smooth="yes"/>
			<point x="570" y="653"/>
			<point x="583" y="642"/>
			<point x="583" y="623" type="curve" smooth="yes"/>
			<point x="583" y="599"/>
			<point x="579" y="592"/>
		</contour>
		<contour>
			<point x="62" y="651" type="curve" smooth="yes"/>
			<point x="151" y="517"/>
			<point x="206" y="500"/>
			<point x="301" y="363" type="curve" smooth="yes"/>
			<point x="312.8567342339" y="344.6759561839"/>
			<point x="317.3333333333" y="309"/>
			<point x="280" y="309" type="curve" smooth="yes"/>
			<point x="262" y="309"/>
			<point x="250" y="321"/>
			<point x="239" y="336" type="curve" smooth="yes"/>
			<point x="139" y="467"/>
			<point x="78" y="498"/>
			<point x="14" y="590" type="curve" smooth="yes"/>
			<point x="-11" y="629"/>
			<point x="-15" y="638"/>
			<point x="-15" y="654" type="curve" smooth="yes"/>
			<point x="-15" y="671"/>
			<point x="-4" y="682"/>
			<point x="13" y="682" type="curve" smooth="yes"/>
			<point x="33.2391304348" y="682"/>
			<point x="46.2848074006" y="673.5905893616"/>
		</contour>
	</outline>
	<anchor name="top" x="299" y="636"/>
	<anchor name="bottom" x="226" y="33"/>
</glyph>
<glyph name="Z" format="2">
  <advance width="636"/>
  <unicode hex="005A"/>
  <image fileName="W_.png" xScale="2.14942" yScale="2.14942" xOffset="-8482.561" yOffset="-239.078"/>
  <anchor x="331" y="29" name="bottom"/>
  <anchor x="322" y="666" name="top"/>
  <outline>
    <contour>
      <point x="171" y="659" type="curve" smooth="yes"/>
      <point x="139" y="651"/>
      <point x="125" y="638"/>
      <point x="125" y="621" type="curve" smooth="yes"/>
      <point x="125" y="601"/>
      <point x="144" y="593"/>
      <point x="159" y="593" type="curve" smooth="yes"/>
      <point x="191.079" y="593"/>
      <point x="228.772" y="613"/>
      <point x="321" y="613" type="curve" smooth="yes"/>
      <point x="388.61" y="613"/>
      <point x="417.288" y="598.048"/>
      <point x="446" y="581" type="curve"/>
      <point x="441" y="588" type="line"/>
      <point x="453" y="523"/>
      <point x="443.429" y="476.161"/>
      <point x="289" y="381" type="curve" smooth="yes"/>
      <point x="115.113" y="271.996"/>
      <point x="101" y="180"/>
      <point x="101" y="127" type="curve" smooth="yes"/>
      <point x="101" y="54"/>
      <point x="133" y="13"/>
      <point x="225" y="13" type="curve" smooth="yes"/>
      <point x="280.246" y="13"/>
      <point x="344.561" y="20"/>
      <point x="413" y="20" type="curve" smooth="yes"/>
      <point x="494" y="20"/>
      <point x="515" y="13"/>
      <point x="561" y="13" type="curve" smooth="yes"/>
      <point x="593" y="13"/>
      <point x="608" y="22"/>
      <point x="608" y="39" type="curve" smooth="yes"/>
      <point x="608" y="74"/>
      <point x="556" y="86"/>
      <point x="429" y="86" type="curve" smooth="yes"/>
      <point x="353.575" y="86"/>
      <point x="287.368" y="78"/>
      <point x="222" y="78" type="curve" smooth="yes"/>
      <point x="202" y="78"/>
      <point x="173" y="79"/>
      <point x="149" y="89" type="curve"/>
      <point x="173" y="64" type="line"/>
      <point x="160.045" y="150.696"/>
      <point x="146.335" y="205.628"/>
      <point x="314" y="316" type="curve" smooth="yes"/>
      <point x="487.867" y="430.477"/>
      <point x="510" y="473.699"/>
      <point x="510" y="536" type="curve" smooth="yes"/>
      <point x="510" y="613.217"/>
      <point x="474.375" y="680"/>
      <point x="320" y="680" type="curve" smooth="yes"/>
      <point x="271.122" y="680"/>
      <point x="223.421" y="670.914"/>
    </contour>
  </outline>
</glyph>
<glyph name="bracketleft" format="2">
  <advance width="492"/>
  <unicode hex="005B"/>
  <outline>
    <contour>
      <point x="422" y="746" type="curve" smooth="yes"/>
      <point x="443.111" y="746"/>
      <point x="462" y="764.286"/>
      <point x="462" y="786" type="curve" smooth="yes"/>
      <point x="462" y="812.694"/>
      <point x="435.831" y="817"/>
      <point x="397" y="817" type="curve" smooth="yes"/>
      <point x="326.208" y="817"/>
      <point x="220.547" y="804"/>
      <point x="173" y="804" type="curve" smooth="yes"/>
      <point x="154" y="804"/>
      <point x="136" y="793"/>
      <point x="133" y="774" type="curve" smooth="yes"/>
      <point x="113" y="637"/>
      <point x="132" y="356"/>
      <point x="126" y="242" type="curve" smooth="yes"/>
      <point x="121" y="127"/>
      <point x="98" y="-123"/>
      <point x="163" y="-245" type="curve" smooth="yes"/>
      <point x="169" y="-256"/>
      <point x="178" y="-264"/>
      <point x="193" y="-264" type="curve" smooth="yes"/>
      <point x="213" y="-264"/>
      <point x="235" y="-256"/>
      <point x="264" y="-256" type="curve" smooth="yes"/>
      <point x="296" y="-256"/>
      <point x="333" y="-259"/>
      <point x="367" y="-259" type="curve" smooth="yes"/>
      <point x="427" y="-259"/>
      <point x="460" y="-247.5"/>
      <point x="460" y="-213" type="curve" smooth="yes"/>
      <point x="460" y="-197.8"/>
      <point x="451.086" y="-185"/>
      <point x="434" y="-185" type="curve" smooth="yes"/>
      <point x="419.44" y="-185"/>
      <point x="381.624" y="-191"/>
      <point x="350" y="-191" type="curve" smooth="yes"/>
      <point x="288.258" y="-191"/>
      <point x="221.667" y="-183.111"/>
      <point x="183" y="-196" type="curve"/>
      <point x="225" y="-211" type="line"/>
      <point x="176" y="-83"/>
      <point x="191" y="133"/>
      <point x="196" y="238" type="curve" smooth="yes"/>
      <point x="202" y="351"/>
      <point x="182" y="628"/>
      <point x="203" y="764" type="curve"/>
      <point x="163" y="734" type="line"/>
      <point x="214" y="732"/>
      <point x="319" y="748"/>
      <point x="387" y="748" type="curve" smooth="yes"/>
      <point x="400" y="748"/>
      <point x="408" y="746"/>
    </contour>
  </outline>
</glyph>
<glyph name="backslash" format="2">
  <advance width="330"/>
  <unicode hex="005C"/>
  <outline>
    <contour>
      <point x="74" y="789" type="curve" smooth="yes"/>
      <point x="70" y="828"/>
      <point x="50" y="846"/>
      <point x="32" y="846" type="curve" smooth="yes"/>
      <point x="5" y="846"/>
      <point x="-7" y="824"/>
      <point x="-1" y="774" type="curve" smooth="yes"/>
      <point x="34" y="435"/>
      <point x="141" y="143"/>
      <point x="274" y="-137" type="curve" smooth="yes"/>
      <point x="285" y="-158"/>
      <point x="298" y="-169"/>
      <point x="313" y="-169" type="curve" smooth="yes"/>
      <point x="343" y="-169"/>
      <point x="363" y="-147"/>
      <point x="344" y="-104" type="curve" smooth="yes"/>
      <point x="220" y="160"/>
      <point x="107" y="432"/>
    </contour>
  </outline>
</glyph>
<glyph name="asciicircum" format="2">
	<unicode hex="005E"/>
	<advance width="610"/>
	<outline>
		<contour>
			<point x="301" y="646" type="line"/>
			<point x="427" y="489"/>
			<point x="453" y="449"/>
			<point x="513" y="449" type="curve" smooth="yes"/>
			<point x="533" y="449"/>
			<point x="544" y="462"/>
			<point x="544" y="478" type="curve" smooth="yes"/>
			<point x="544" y="514"/>
			<point x="495" y="515"/>
			<point x="387" y="657" type="curve" smooth="yes"/>
			<point x="356" y="699"/>
			<point x="339" y="709"/>
			<point x="310" y="709" type="curve" smooth="yes"/>
			<point x="271" y="709"/>
			<point x="268" y="687"/>
			<point x="206" y="634" type="curve" smooth="yes"/>
			<point x="77" y="525"/>
			<point x="67" y="505"/>
			<point x="67" y="483" type="curve" smooth="yes"/>
			<point x="67" y="468"/>
			<point x="84" y="454"/>
			<point x="106" y="454" type="curve" smooth="yes"/>
			<point x="136" y="454"/>
			<point x="152" y="470"/>
			<point x="318" y="647" type="curve"/>
		</contour>
	</outline>
</glyph>
<glyph name="a" format="2">
	<unicode hex="0061"/>
	<advance width="644"/>
	<outline>
		<contour>
			<point x="409" y="397" type="curve" smooth="yes"/>
			<point x="375.3500820703" y="189.4921727669"/>
			<point x="299.8383838384" y="78"/>
			<point x="207" y="78" type="curve" smooth="yes"/>
			<point x="169" y="78"/>
			<point x="156" y="85"/>
			<point x="127" y="117" type="curve"/>
			<point x="173" y="60" type="line"/>
			<point x="150.6659420166" y="106.3224906322"/>
			<point x="146" y="128.125984252"/>
			<point x="146" y="163" type="curve" smooth="yes"/>
			<point x="146" y="288.5070422535"/>
			<point x="239.0361617904" y="409.9095586259"/>
			<point x="379" y="431" type="curve" smooth="yes"/>
			<point x="400" y="433"/>
			<point x="409" y="445"/>
			<point x="409" y="460" type="curve" smooth="yes"/>
			<point x="409" y="482"/>
			<point x="391" y="494"/>
			<point x="367" y="494" type="curve" smooth="yes"/>
			<point x="197.7947019868" y="494"/>
			<point x="75" y="320.3919308357"/>
			<point x="75" y="163" type="curve" smooth="yes"/>
			<point x="75" y="72.5664739884"/>
			<point x="126.4857142857" y="14"/>
			<point x="211" y="14" type="curve" smooth="yes"/>
			<point x="312.6194331984" y="14"/>
			<point x="434.8084435771" y="109.3984744153"/>
			<point x="462" y="371" type="curve"/>
			<point x="433" y="372" type="line"/>
			<point x="439.5032226402" y="145.4710780341"/>
			<point x="489.9864526067" y="63.0558842438"/>
			<point x="549" y="-16" type="curve" smooth="yes"/>
			<point x="558.5648413659" y="-29.3907779122"/>
			<point x="565.4324324324" y="-37"/>
			<point x="581" y="-37" type="curve" smooth="yes"/>
			<point x="611.3157894737" y="-37"/>
			<point x="624.9322513847" y="-4.4689878805"/>
			<point x="605" y="21" type="curve" smooth="yes"/>
			<point x="523.1671490629" y="129.7368019301"/>
			<point x="503.1427288751" y="219.0490727486"/>
			<point x="490" y="368" type="curve" smooth="yes"/>
			<point x="487" y="408"/>
			<point x="468" y="434"/>
			<point x="442" y="434" type="curve" smooth="yes"/>
			<point x="422" y="434"/>
			<point x="413" y="420"/>
		</contour>
	</outline>
	<anchor name="top" x="329" y="485"/>
	<anchor name="bottom" x="329" y="25"/>
	<anchor name="ogonek" x="584" y="-35"/>
</glyph>
<glyph name="b" format="2">
	<unicode hex="0062"/>
	<advance width="575"/>
	<image fileName="b.png" xScale="2.58031" yScale="2.58031" xOffset="-92.141" yOffset="-580.57"/>
	<outline>
		<contour>
			<point x="172" y="693" type="curve" smooth="yes"/>
			<point x="172" y="735"/>
			<point x="152" y="759"/>
			<point x="132" y="759" type="curve" smooth="yes"/>
			<point x="114" y="759"/>
			<point x="104" y="739"/>
			<point x="104" y="718" type="curve" smooth="yes"/>
			<point x="104" y="631.736"/>
			<point x="88" y="568.764"/>
			<point x="88" y="404" type="curve" smooth="yes"/>
			<point x="88" y="348.102"/>
			<point x="99.958" y="248.729"/>
			<point x="117" y="155" type="curve" smooth="yes"/>
			<point x="124" y="118"/>
			<point x="133" y="94"/>
			<point x="147" y="94" type="curve" smooth="yes"/>
			<point x="158" y="94"/>
			<point x="168" y="100"/>
			<point x="173" y="123" type="curve" smooth="yes"/>
			<point x="201.285" y="278.952"/>
			<point x="265" y="387"/>
			<point x="363" y="387" type="curve" smooth="yes"/>
			<point x="416.186" y="387"/>
			<point x="430" y="342"/>
			<point x="430" y="294" type="curve" smooth="yes"/>
			<point x="430" y="167"/>
			<point x="319.191" y="100"/>
			<point x="178" y="100" type="curve" smooth="yes"/>
			<point x="154" y="100"/>
			<point x="127" y="112"/>
			<point x="110" y="112" type="curve" smooth="yes"/>
			<point x="96" y="112"/>
			<point x="86" y="103"/>
			<point x="86" y="86" type="curve" smooth="yes"/>
			<point x="86" y="49"/>
			<point x="141" y="35"/>
			<point x="190" y="35" type="curve" smooth="yes"/>
			<point x="348.51" y="35"/>
			<point x="497" y="127"/>
			<point x="497" y="285" type="curve" smooth="yes"/>
			<point x="497" y="403"/>
			<point x="441.439" y="453"/>
			<point x="363" y="453" type="curve" smooth="yes"/>
			<point x="287" y="453"/>
			<point x="178.816" y="395.677"/>
			<point x="150" y="232" type="curve"/>
			<point x="166" y="231" type="line"/>
			<point x="162.11" y="295.582"/>
			<point x="156" y="346.03"/>
			<point x="156" y="388" type="curve" smooth="yes"/>
			<point x="156" y="552.958"/>
			<point x="172" y="604.507"/>
		</contour>
	</outline>
	<anchor name="bottom" x="298" y="58"/>
	<anchor name="top" x="135" y="750"/>
</glyph>
<glyph name="c" format="2">
  <advance width="482"/>
  <unicode hex="0063"/>
  <image fileName="b.png" xScale="2.58031" yScale="2.58031" xOffset="-593.311" yOffset="-580.57"/>
  <anchor x="281" y="34" name="bottom"/>
  <anchor x="270" y="436" name="top"/>
  <outline>
    <contour>
      <point x="434" y="124" type="curve" smooth="yes"/>
      <point x="434" y="146"/>
      <point x="427" y="154"/>
      <point x="413" y="154" type="curve" smooth="yes"/>
      <point x="384.911" y="154"/>
      <point x="391" y="86"/>
      <point x="280" y="86" type="curve" smooth="yes"/>
      <point x="204" y="86"/>
      <point x="154" y="134"/>
      <point x="154" y="211" type="curve" smooth="yes"/>
      <point x="154" y="301.839"/>
      <point x="211.782" y="387"/>
      <point x="291" y="387" type="curve" smooth="yes"/>
      <point x="320" y="387"/>
      <point x="321" y="374"/>
      <point x="342" y="374" type="curve" smooth="yes"/>
      <point x="359" y="374"/>
      <point x="368" y="387"/>
      <point x="368" y="404" type="curve" smooth="yes"/>
      <point x="368" y="447"/>
      <point x="335" y="455"/>
      <point x="301" y="455" type="curve" smooth="yes"/>
      <point x="184.422" y="455"/>
      <point x="86" y="351.408"/>
      <point x="86" y="220" type="curve" smooth="yes"/>
      <point x="86" y="102"/>
      <point x="163" y="21"/>
      <point x="282" y="21" type="curve" smooth="yes"/>
      <point x="363" y="21"/>
      <point x="434" y="63"/>
    </contour>
  </outline>
</glyph>
<glyph name="e" format="2">
	<unicode hex="0065"/>
	<advance width="537"/>
	<outline>
		<contour>
			<point x="192" y="166" type="curve" smooth="yes"/>
			<point x="349" y="166"/>
			<point x="465" y="243.023"/>
			<point x="465" y="371" type="curve" smooth="yes"/>
			<point x="465" y="477.688"/>
			<point x="398.161" y="535"/>
			<point x="303" y="535" type="curve" smooth="yes"/>
			<point x="132.752" y="535"/>
			<point x="25" y="357"/>
			<point x="25" y="200" type="curve" smooth="yes"/>
			<point x="25" y="57"/>
			<point x="93.078" y="-45"/>
			<point x="249" y="-45" type="curve" smooth="yes"/>
			<point x="375.043" y="-45"/>
			<point x="500" y="37.129"/>
			<point x="500" y="89" type="curve" smooth="yes"/>
			<point x="500" y="109"/>
			<point x="496" y="118"/>
			<point x="481" y="118" type="curve" smooth="yes"/>
			<point x="443.837" y="118"/>
			<point x="400.116" y="20"/>
			<point x="246" y="20" type="curve" smooth="yes"/>
			<point x="133.373" y="20"/>
			<point x="92" y="97"/>
			<point x="92" y="191" type="curve" smooth="yes"/>
			<point x="92" y="336"/>
			<point x="179.404" y="469"/>
			<point x="300" y="469" type="curve" smooth="yes"/>
			<point x="370.889" y="469"/>
			<point x="399" y="437"/>
			<point x="399" y="375" type="curve" smooth="yes"/>
			<point x="399" y="284"/>
			<point x="326.344" y="231"/>
			<point x="188" y="231" type="curve" smooth="yes"/>
			<point x="146.303" y="231"/>
			<point x="121.545" y="239"/>
			<point x="102" y="239" type="curve" smooth="yes"/>
			<point x="83" y="239"/>
			<point x="77" y="232"/>
			<point x="77" y="217" type="curve" smooth="yes"/>
			<point x="77" y="192"/>
			<point x="106.053" y="166"/>
		</contour>
	</outline>
	<anchor name="bottom" x="252" y="-36"/>
	<anchor name="ogonek" x="391" y="-9"/>
	<anchor name="top" x="299" y="522"/>
</glyph>
<glyph name="f" format="2">
	<unicode hex="0066"/>
	<advance width="442"/>
	<outline>
		<contour>
			<point x="174" y="419"/>
			<point x="216" y="434"/>
			<point x="386" y="434" type="curve" smooth="yes"/>
			<point x="412" y="434"/>
			<point x="423" y="443"/>
			<point x="423" y="458" type="curve" smooth="yes"/>
			<point x="423" y="476"/>
			<point x="409" y="494"/>
			<point x="379" y="494" type="curve" smooth="yes"/>
			<point x="289" y="494"/>
			<point x="218" y="490"/>
			<point x="142" y="478" type="curve" smooth="yes"/>
			<point x="114" y="473"/>
			<point x="104" y="456"/>
			<point x="104" y="440" type="curve" smooth="yes"/>
			<point x="104" y="426"/>
			<point x="115" y="419"/>
			<point x="128" y="419" type="curve" smooth="yes"/>
		</contour>
		<contour>
			<point x="145" y="-188" type="curve" smooth="yes"/>
			<point x="163" y="-188"/>
			<point x="172" y="-179"/>
			<point x="172" y="-146" type="curve" smooth="yes"/>
			<point x="172" y="111.2668918919"/>
			<point x="139" y="254.0912162162"/>
			<point x="139" y="396" type="curve" smooth="yes"/>
			<point x="139" y="553"/>
			<point x="157" y="673"/>
			<point x="293" y="700" type="curve" smooth="yes"/>
			<point x="317" y="705"/>
			<point x="327" y="718"/>
			<point x="327" y="733" type="curve" smooth="yes"/>
			<point x="327" y="751"/>
			<point x="305" y="760"/>
			<point x="289" y="760" type="curve" smooth="yes"/>
			<point x="169" y="760"/>
			<point x="69" y="646"/>
			<point x="69" y="439" type="curve" smooth="yes"/>
			<point x="69" y="214.7411003236"/>
			<point x="102" y="127.427184466"/>
			<point x="102" y="-129" type="curve" smooth="yes"/>
			<point x="102" y="-166"/>
			<point x="124" y="-188"/>
		</contour>
	</outline>
	<anchor name="top" x="239" y="750"/>
	<anchor name="bottom" x="138" y="-168"/>
</glyph>
<glyph name="g" format="2">
	<unicode hex="0067"/>
	<advance width="610"/>
	<outline>
		<contour>
			<point x="438" y="513" type="curve" smooth="yes"/>
			<point x="413" y="513"/>
			<point x="405" y="501"/>
			<point x="405" y="474" type="curve" smooth="yes"/>
			<point x="405" y="275"/>
			<point x="327" y="204"/>
			<point x="231" y="204" type="curve" smooth="yes"/>
			<point x="139" y="204"/>
			<point x="97" y="242"/>
			<point x="97" y="312" type="curve" smooth="yes"/>
			<point x="97" y="398"/>
			<point x="182" y="478"/>
			<point x="289" y="478" type="curve" smooth="yes"/>
			<point x="368" y="478"/>
			<point x="351" y="413"/>
			<point x="394" y="413" type="curve" smooth="yes"/>
			<point x="407" y="413"/>
			<point x="418" y="434"/>
			<point x="418" y="447" type="curve" smooth="yes"/>
			<point x="418" y="494"/>
			<point x="382" y="544"/>
			<point x="278" y="544" type="curve" smooth="yes"/>
			<point x="148" y="544"/>
			<point x="30" y="436"/>
			<point x="30" y="317" type="curve" smooth="yes"/>
			<point x="30" y="201"/>
			<point x="108" y="141"/>
			<point x="232" y="141" type="curve" smooth="yes"/>
			<point x="350" y="141"/>
			<point x="434" y="213"/>
			<point x="454" y="367" type="curve"/>
			<point x="422" y="378" type="line"/>
			<point x="435.6034968314" y="241.9650316863"/>
			<point x="496" y="133.2765957447"/>
			<point x="496" y="-48" type="curve" smooth="yes"/>
			<point x="496" y="-143"/>
			<point x="466.3185840709" y="-196"/>
			<point x="367" y="-196" type="curve" smooth="yes"/>
			<point x="253.5454545455" y="-196"/>
			<point x="163" y="-138"/>
			<point x="163" y="-51" type="curve" smooth="yes"/>
			<point x="163" y="-30"/>
			<point x="155" y="-19"/>
			<point x="137" y="-19" type="curve" smooth="yes"/>
			<point x="115" y="-19"/>
			<point x="97" y="-43"/>
			<point x="97" y="-71" type="curve" smooth="yes"/>
			<point x="97" y="-149"/>
			<point x="176.4285714286" y="-260"/>
			<point x="375" y="-260" type="curve" smooth="yes"/>
			<point x="494.85" y="-260"/>
			<point x="563" y="-184"/>
			<point x="563" y="-59" type="curve" smooth="yes"/>
			<point x="563" y="164.3830734967"/>
			<point x="502.5661872968" y="252.0938819166"/>
			<point x="487" y="440" type="curve" smooth="yes"/>
			<point x="484" y="478"/>
			<point x="469" y="513"/>
		</contour>
	</outline>
	<anchor name="top" x="286" y="532"/>
	<anchor name="bottom" x="361" y="-250"/>
</glyph>
<glyph name="h" format="2">
  <advance width="613"/>
  <unicode hex="0068"/>
  <anchor x="323" y="0" name="bottom"/>
  <anchor x="162" y="750" name="top"/>
  <outline>
    <contour>
      <point x="560" y="-10" type="curve" smooth="yes"/>
      <point x="578.667" y="-10"/>
      <point x="595" y="4"/>
      <point x="595" y="20" type="curve" smooth="yes"/>
      <point x="595" y="32"/>
      <point x="591" y="43"/>
      <point x="585" y="53" type="curve" smooth="yes"/>
      <point x="563" y="90"/>
      <point x="549.016" y="131.836"/>
      <point x="536" y="268" type="curve" smooth="yes"/>
      <point x="521.279" y="428.804"/>
      <point x="503.196" y="524"/>
      <point x="419" y="524" type="curve" smooth="yes"/>
      <point x="319.821" y="524"/>
      <point x="203" y="425"/>
      <point x="107" y="108" type="curve"/>
      <point x="125" y="106" type="line"/>
      <point x="121.379" y="277.092"/>
      <point x="174.863" y="453.345"/>
      <point x="193" y="593" type="curve" smooth="yes"/>
      <point x="208" y="714"/>
      <point x="197" y="758"/>
      <point x="162" y="759" type="curve" smooth="yes"/>
      <point x="142" y="759"/>
      <point x="133" y="741"/>
      <point x="130" y="722" type="curve" smooth="yes"/>
      <point x="125" y="681"/>
      <point x="129" y="630"/>
      <point x="122" y="574" type="curve" smooth="yes"/>
      <point x="107.516" y="455.411"/>
      <point x="55" y="310.098"/>
      <point x="55" y="95" type="curve" smooth="yes"/>
      <point x="55" y="20"/>
      <point x="77" y="-10"/>
      <point x="103" y="-10" type="curve" smooth="yes"/>
      <point x="124" y="-10"/>
      <point x="140" y="-2"/>
      <point x="149" y="28" type="curve" smooth="yes"/>
      <point x="228.512" y="301.762"/>
      <point x="341" y="459"/>
      <point x="418" y="459" type="curve"/>
      <point x="447.109" y="415.918"/>
      <point x="463" y="358"/>
      <point x="473" y="204" type="curve" smooth="yes"/>
      <point x="481" y="85"/>
      <point x="520" y="-10"/>
    </contour>
  </outline>
</glyph>
<glyph name="k" format="2">
	<unicode hex="006B"/>
	<advance width="558"/>
	<image fileName="b.png" xScale="2.580311745" yScale="2.580311745" xOffset="-1523.246456254" yOffset="-580.570142633" color="0,0,0,0.24109"/>
	<outline>
		<contour>
			<point x="501" y="-7" type="curve" smooth="yes"/>
			<point x="521" y="-7"/>
			<point x="531" y="3"/>
			<point x="531" y="19" type="curve" smooth="yes"/>
			<point x="531" y="36"/>
			<point x="521" y="50"/>
			<point x="468" y="66" type="curve" smooth="yes"/>
			<point x="319" y="109"/>
			<point x="239" y="179.2236024845"/>
			<point x="239" y="209" type="curve" smooth="yes"/>
			<point x="239" y="248.8275862069"/>
			<point x="329.2014885848" y="339.3883626877"/>
			<point x="414" y="374" type="curve" smooth="yes"/>
			<point x="441" y="385"/>
			<point x="455" y="397"/>
			<point x="455" y="418" type="curve" smooth="yes"/>
			<point x="455" y="436"/>
			<point x="443" y="445"/>
			<point x="421" y="445" type="curve" smooth="yes"/>
			<point x="352.2795698925" y="445"/>
			<point x="172" y="298.5925925926"/>
			<point x="172" y="209" type="curve" smooth="yes"/>
			<point x="172" y="107.406779661"/>
			<point x="407" y="-7"/>
		</contour>
		<contour>
			<point x="179" y="759" type="curve" smooth="yes"/>
			<point x="160" y="760"/>
			<point x="149" y="749"/>
			<point x="146" y="731" type="curve" smooth="yes"/>
			<point x="139" y="686"/>
			<point x="145" y="679"/>
			<point x="124" y="541" type="curve" smooth="yes"/>
			<point x="98.0173606787" y="373.4567740313"/>
			<point x="75" y="199.1670471052"/>
			<point x="75" y="117" type="curve" smooth="yes"/>
			<point x="75" y="15"/>
			<point x="99.5" y="-10"/>
			<point x="124" y="-10" type="curve" smooth="yes"/>
			<point x="140.1111111111" y="-10"/>
			<point x="149" y="1"/>
			<point x="149" y="25" type="curve" smooth="yes"/>
			<point x="149" y="58"/>
			<point x="144" y="86.6"/>
			<point x="144" y="129" type="curve" smooth="yes"/>
			<point x="144" y="253.9378761552"/>
			<point x="153.5602228036" y="296.3763189903"/>
			<point x="192" y="544" type="curve" smooth="yes"/>
			<point x="218" y="715"/>
			<point x="209" y="759"/>
		</contour>
	</outline>
	<anchor name="top" x="176" y="750"/>
	<anchor name="bottom" x="263" y="0"/>
</glyph>
<glyph name="l" format="2">
  <advance width="338"/>
  <unicode hex="006C"/>
  <image fileName="b.png" xScale="2.58031" yScale="2.58031" xOffset="-2454.311" yOffset="-580.57"/>
  <anchor x="192" y="0" name="bottom"/>
  <anchor x="127" y="750" name="top"/>
  <outline>
    <contour>
      <point x="157" y="701" type="curve" smooth="yes"/>
      <point x="157" y="744"/>
      <point x="145" y="760"/>
      <point x="126" y="760" type="curve" smooth="yes"/>
      <point x="108" y="760"/>
      <point x="98" y="743"/>
      <point x="89" y="691" type="curve" smooth="yes"/>
      <point x="73" y="586"/>
      <point x="61" y="491"/>
      <point x="61" y="317" type="curve" smooth="yes"/>
      <point x="61" y="27.18"/>
      <point x="113" y="-11"/>
      <point x="195" y="-11" type="curve" smooth="yes"/>
      <point x="260.814" y="-11"/>
      <point x="332" y="24.697"/>
      <point x="332" y="65" type="curve" smooth="yes"/>
      <point x="332" y="82"/>
      <point x="326" y="94"/>
      <point x="308" y="94" type="curve" smooth="yes"/>
      <point x="272.062" y="94"/>
      <point x="261.701" y="56"/>
      <point x="193" y="56" type="curve" smooth="yes"/>
      <point x="157" y="56"/>
      <point x="129" y="113.973"/>
      <point x="129" y="297" type="curve" smooth="yes"/>
      <point x="129" y="544"/>
      <point x="157" y="628"/>
    </contour>
  </outline>
</glyph>
<glyph name="m" format="2">
	<unicode hex="006D"/>
	<advance width="867"/>
	<image fileName="b.png" xScale="2.580311745" yScale="2.580311745" xOffset="-2898.3109110762" yOffset="-580.570142633" color="0,0,0,0.24109"/>
	<outline>
		<contour>
			<point x="154" y="310" type="curve" smooth="yes"/>
			<point x="154" y="373"/>
			<point x="144" y="408"/>
			<point x="111" y="408" type="curve" smooth="yes"/>
			<point x="95" y="408"/>
			<point x="83" y="399"/>
			<point x="83" y="388" type="curve" smooth="yes"/>
			<point x="83" y="361"/>
			<point x="93" y="335"/>
			<point x="93" y="304" type="curve" smooth="yes"/>
			<point x="93" y="247"/>
			<point x="84" y="184"/>
			<point x="84" y="127" type="curve" smooth="yes"/>
			<point x="84" y="80"/>
			<point x="93" y="35"/>
			<point x="122" y="35" type="curve" smooth="yes"/>
			<point x="137" y="35"/>
			<point x="151" y="42"/>
			<point x="154" y="71" type="curve" smooth="yes"/>
			<point x="167" y="187"/>
			<point x="198" y="343"/>
			<point x="281" y="392" type="curve" smooth="yes"/>
			<point x="313" y="409"/>
			<point x="231" y="410"/>
			<point x="254" y="395" type="curve" smooth="yes"/>
			<point x="299" y="366"/>
			<point x="316" y="310"/>
			<point x="334" y="206" type="curve" smooth="yes"/>
			<point x="352" y="101"/>
			<point x="376" y="35"/>
			<point x="423" y="35" type="curve" smooth="yes"/>
			<point x="441" y="35"/>
			<point x="459" y="47"/>
			<point x="466" y="68" type="curve" smooth="yes"/>
			<point x="514" y="217"/>
			<point x="554" y="331"/>
			<point x="643" y="401" type="curve" smooth="yes"/>
			<point x="670" y="423"/>
			<point x="600" y="413"/>
			<point x="625" y="395" type="curve" smooth="yes"/>
			<point x="658" y="371"/>
			<point x="670" y="358"/>
			<point x="687" y="224" type="curve" smooth="yes"/>
			<point x="704" y="93"/>
			<point x="730" y="35"/>
			<point x="768" y="35" type="curve" smooth="yes"/>
			<point x="783" y="35"/>
			<point x="799" y="40"/>
			<point x="799" y="62" type="curve" smooth="yes"/>
			<point x="799" y="99"/>
			<point x="768" y="97"/>
			<point x="751" y="252" type="curve" smooth="yes"/>
			<point x="736" y="387"/>
			<point x="708" y="450"/>
			<point x="634" y="450" type="curve" smooth="yes"/>
			<point x="548" y="450"/>
			<point x="461" y="304"/>
			<point x="410" y="103" type="curve" smooth="yes"/>
			<point x="400" y="64"/>
			<point x="462" y="66"/>
			<point x="437" y="99" type="curve" smooth="yes"/>
			<point x="422" y="119"/>
			<point x="411" y="147"/>
			<point x="399" y="224" type="curve" smooth="yes"/>
			<point x="376" y="360"/>
			<point x="341" y="450"/>
			<point x="271" y="450" type="curve" smooth="yes"/>
			<point x="218" y="450"/>
			<point x="175" y="408"/>
			<point x="142" y="295" type="curve" smooth="yes"/>
			<point x="118" y="212"/>
			<point x="154" y="200"/>
		</contour>
	</outline>
	<anchor name="top" x="440" y="441"/>
	<anchor name="bottom" x="423" y="44"/>
</glyph>
<glyph name="n" format="2">
	<unicode hex="006E"/>
	<advance width="612"/>
	<outline>
		<contour>
			<point x="524" y="-20" type="curve" smooth="yes"/>
			<point x="549" y="-20"/>
			<point x="559" y="-2"/>
			<point x="559" y="13" type="curve" smooth="yes"/>
			<point x="559" y="29"/>
			<point x="555" y="36"/>
			<point x="545" y="44" type="curve" smooth="yes"/>
			<point x="500" y="82"/>
			<point x="494" y="193"/>
			<point x="494" y="352" type="curve" smooth="yes"/>
			<point x="494" y="442"/>
			<point x="456" y="506"/>
			<point x="399" y="506" type="curve" smooth="yes"/>
			<point x="302" y="506"/>
			<point x="198" y="348"/>
			<point x="131" y="73" type="curve"/>
			<point x="143" y="81" type="line"/>
			<point x="133" y="233"/>
			<point x="168" y="279"/>
			<point x="168" y="369" type="curve" smooth="yes"/>
			<point x="168" y="418"/>
			<point x="145" y="435"/>
			<point x="128" y="435" type="curve" smooth="yes"/>
			<point x="111" y="435"/>
			<point x="101" y="422"/>
			<point x="101" y="405" type="curve" smooth="yes"/>
			<point x="101" y="280"/>
			<point x="75" y="266"/>
			<point x="75" y="151" type="curve" smooth="yes"/>
			<point x="75" y="58"/>
			<point x="98.8" y="-9"/>
			<point x="145" y="-9" type="curve" smooth="yes"/>
			<point x="170.2777777778" y="-9"/>
			<point x="184.154669954" y="11.6781682598"/>
			<point x="197" y="68" type="curve" smooth="yes"/>
			<point x="244" y="263"/>
			<point x="345" y="439"/>
			<point x="393" y="439" type="curve" smooth="yes"/>
			<point x="416" y="439"/>
			<point x="427" y="428"/>
			<point x="443" y="406" type="curve"/>
			<point x="441" y="452"/>
			<point x="418" y="472"/>
			<point x="374" y="468" type="curve"/>
			<point x="414" y="437"/>
			<point x="426" y="425"/>
			<point x="426" y="275" type="curve" smooth="yes"/>
			<point x="426" y="74"/>
			<point x="460" y="-20"/>
		</contour>
	</outline>
</glyph>
<glyph name="o" format="2">
	<unicode hex="006F"/>
	<advance width="600"/>
	<outline>
		<contour>
			<point x="310" y="28" type="curve" smooth="yes"/>
			<point x="424" y="28"/>
			<point x="510" y="117"/>
			<point x="510" y="236" type="curve" smooth="yes"/>
			<point x="510" y="370"/>
			<point x="436" y="454"/>
			<point x="316" y="454" type="curve" smooth="yes"/>
			<point x="229" y="454"/>
			<point x="147" y="377"/>
			<point x="147" y="323" type="curve" smooth="yes"/>
			<point x="147" y="303"/>
			<point x="155" y="294"/>
			<point x="173" y="294" type="curve" smooth="yes"/>
			<point x="199" y="294"/>
			<point x="197" y="318"/>
			<point x="229" y="350" type="curve" smooth="yes"/>
			<point x="254" y="375"/>
			<point x="279" y="389"/>
			<point x="324" y="389" type="curve" smooth="yes"/>
			<point x="398" y="389"/>
			<point x="442" y="334"/>
			<point x="442" y="242" type="curve" smooth="yes"/>
			<point x="442" y="152"/>
			<point x="390" y="94"/>
			<point x="307" y="94" type="curve" smooth="yes"/>
			<point x="215" y="94"/>
			<point x="157" y="152"/>
			<point x="157" y="243" type="curve" smooth="yes"/>
			<point x="157" y="305"/>
			<point x="201" y="344"/>
			<point x="244" y="372" type="curve" smooth="yes"/>
			<point x="267" y="387"/>
			<point x="275" y="398"/>
			<point x="275" y="418" type="curve" smooth="yes"/>
			<point x="275" y="434"/>
			<point x="265" y="439"/>
			<point x="250" y="439" type="curve" smooth="yes"/>
			<point x="206" y="439"/>
			<point x="90" y="361"/>
			<point x="90" y="236" type="curve" smooth="yes"/>
			<point x="90" y="115"/>
			<point x="182" y="28"/>
		</contour>
	</outline>
	<anchor name="top" x="319" y="450"/>
	<anchor name="bottom" x="313" y="36"/>
	<anchor name="ogonek" x="416" y="65"/>
</glyph>
<glyph name="p" format="2">
	<unicode hex="0070"/>
	<advance width="550"/>
	<outline>
		<contour>
			<point x="131" y="354" type="curve" smooth="yes"/>
			<point x="131" y="204.2325581395"/>
			<point x="187" y="90.7441860465"/>
			<point x="187" y="-46" type="curve" smooth="yes"/>
			<point x="187" y="-186"/>
			<point x="157" y="-261"/>
			<point x="113" y="-261" type="curve" smooth="yes"/>
			<point x="93" y="-261"/>
			<point x="84" y="-254"/>
			<point x="84" y="-233" type="curve" smooth="yes"/>
			<point x="84" y="-200"/>
			<point x="119" y="-181"/>
			<point x="119" y="-50" type="curve" smooth="yes"/>
			<point x="119" y="83.5921052632"/>
			<point x="61" y="229.3289473684"/>
			<point x="61" y="376" type="curve" smooth="yes"/>
			<point x="61" y="411"/>
			<point x="72" y="426"/>
			<point x="94" y="426" type="curve" smooth="yes"/>
			<point x="118" y="426"/>
			<point x="131" y="393"/>
		</contour>
		<contour>
			<point x="76" y="443"/>
			<point x="107" y="464"/>
			<point x="189" y="464" type="curve" smooth="yes"/>
			<point x="368" y="464"/>
			<point x="502" y="365.8783269962"/>
			<point x="502" y="211" type="curve" smooth="yes"/>
			<point x="502" y="102"/>
			<point x="414" y="40"/>
			<point x="294" y="40" type="curve" smooth="yes"/>
			<point x="204" y="40"/>
			<point x="136" y="79"/>
			<point x="136" y="117" type="curve" smooth="yes"/>
			<point x="136" y="131"/>
			<point x="140" y="142"/>
			<point x="156" y="142" type="curve" smooth="yes"/>
			<point x="180" y="142"/>
			<point x="183" y="106"/>
			<point x="289" y="106" type="curve" smooth="yes"/>
			<point x="375" y="106"/>
			<point x="434" y="136"/>
			<point x="434" y="217" type="curve" smooth="yes"/>
			<point x="434" y="325.0625"/>
			<point x="333" y="399"/>
			<point x="196" y="399" type="curve" smooth="yes"/>
			<point x="161" y="399"/>
			<point x="124" y="388"/>
			<point x="104" y="388" type="curve" smooth="yes"/>
			<point x="85" y="388"/>
			<point x="76" y="402"/>
			<point x="76" y="417" type="curve" smooth="yes"/>
		</contour>
	</outline>
	<anchor name="top" x="269" y="446"/>
	<anchor name="bottom" x="116" y="-250"/>
</glyph>
<glyph name="q" format="2">
	<unicode hex="0071"/>
	<advance width="558"/>
	<outline>
		<contour>
			<point x="429" y="317" type="curve" smooth="yes"/>
			<point x="444" y="317"/>
			<point x="457" y="331"/>
			<point x="457" y="346" type="curve" smooth="yes"/>
			<point x="457" y="398"/>
			<point x="396" y="465"/>
			<point x="309" y="465" type="curve" smooth="yes"/>
			<point x="179" y="465"/>
			<point x="45" y="311.504587156"/>
			<point x="45" y="168" type="curve" smooth="yes"/>
			<point x="45" y="79.0337078652"/>
			<point x="98" y="20"/>
			<point x="205" y="20" type="curve" smooth="yes"/>
			<point x="293" y="20"/>
			<point x="389.1901076855" y="74.734725895"/>
			<point x="432" y="175" type="curve" smooth="yes"/>
			<point x="444.5580379215" y="204.4329013786"/>
			<point x="413" y="204"/>
			<point x="412" y="175" type="curve" smooth="yes"/>
			<point x="406" y="-1"/>
			<point x="417" y="-11"/>
			<point x="417" y="-214" type="curve" smooth="yes"/>
			<point x="417" y="-248"/>
			<point x="431" y="-260"/>
			<point x="451" y="-260" type="curve" smooth="yes"/>
			<point x="483" y="-260"/>
			<point x="590" y="-170"/>
			<point x="627" y="-138" type="curve" smooth="yes"/>
			<point x="639" y="-127"/>
			<point x="647" y="-111"/>
			<point x="647" y="-93" type="curve" smooth="yes"/>
			<point x="647" y="-81"/>
			<point x="638" y="-71"/>
			<point x="628" y="-71" type="curve" smooth="yes"/>
			<point x="600" y="-71"/>
			<point x="589" y="-79"/>
			<point x="467" y="-181" type="curve"/>
			<point x="483" y="-183" type="line"/>
			<point x="483" y="-15"/>
			<point x="476" y="53"/>
			<point x="472" y="223" type="curve"/>
			<point x="485" y="256"/>
			<point x="492" y="292"/>
			<point x="492" y="324" type="curve" smooth="yes"/>
			<point x="492" y="348"/>
			<point x="481" y="368"/>
			<point x="464" y="368" type="curve" smooth="yes"/>
			<point x="442" y="368"/>
			<point x="430" y="356"/>
			<point x="426" y="335" type="curve" smooth="yes"/>
			<point x="395.5011729093" y="178.9177672417"/>
			<point x="306" y="85"/>
			<point x="205" y="85" type="curve" smooth="yes"/>
			<point x="146.2903225806" y="85"/>
			<point x="114" y="112.4054054054"/>
			<point x="114" y="163" type="curve" smooth="yes"/>
			<point x="114" y="277.0666666667"/>
			<point x="214.9644670051" y="399"/>
			<point x="309" y="399" type="curve" smooth="yes"/>
			<point x="350" y="399"/>
			<point x="367" y="382"/>
			<point x="395" y="340" type="curve" smooth="yes"/>
			<point x="404" y="325"/>
			<point x="415" y="317"/>
		</contour>
	</outline>
	<anchor name="top" x="309" y="451"/>
	<anchor name="bottom" x="451" y="-250"/>
</glyph>
<glyph name="t" format="2">
  <advance width="443"/>
  <unicode hex="0074"/>
  <anchor x="243" y="0" name="bottom"/>
  <anchor x="173" y="750" name="top"/>
  <outline>
    <contour>
      <point x="138" y="216" type="curve" smooth="yes"/>
      <point x="138" y="380"/>
      <point x="176" y="437"/>
      <point x="198" y="607" type="curve" smooth="yes"/>
      <point x="211" y="704"/>
      <point x="207" y="756"/>
      <point x="173" y="756" type="curve" smooth="yes"/>
      <point x="152" y="756"/>
      <point x="146" y="744"/>
      <point x="144" y="729" type="curve" smooth="yes"/>
      <point x="140" y="695"/>
      <point x="137" y="659"/>
      <point x="129" y="594" type="curve" smooth="yes"/>
      <point x="113" y="479"/>
      <point x="71" y="372"/>
      <point x="71" y="212" type="curve" smooth="yes"/>
      <point x="71" y="77"/>
      <point x="122" y="-13"/>
      <point x="261" y="-13" type="curve" smooth="yes"/>
      <point x="325" y="-13"/>
      <point x="361" y="18"/>
      <point x="361" y="49" type="curve" smooth="yes"/>
      <point x="361" y="67"/>
      <point x="355" y="76"/>
      <point x="341" y="76" type="curve" smooth="yes"/>
      <point x="314" y="76"/>
      <point x="315" y="53"/>
      <point x="258" y="53" type="curve" smooth="yes"/>
      <point x="179" y="53"/>
      <point x="138" y="93.951"/>
    </contour>
    <contour>
      <point x="144" y="387" type="curve" smooth="yes"/>
      <point x="215" y="408"/>
      <point x="275" y="421"/>
      <point x="381" y="430" type="curve" smooth="yes"/>
      <point x="406" y="432"/>
      <point x="416" y="438"/>
      <point x="416" y="456" type="curve" smooth="yes"/>
      <point x="416" y="475"/>
      <point x="397" y="490"/>
      <point x="369" y="490" type="curve" smooth="yes"/>
      <point x="306" y="490"/>
      <point x="218" y="473"/>
      <point x="159" y="454" type="curve" smooth="yes"/>
      <point x="108" y="439"/>
      <point x="101" y="429"/>
      <point x="101" y="405" type="curve" smooth="yes"/>
      <point x="101" y="386"/>
      <point x="111" y="377"/>
    </contour>
  </outline>
</glyph>
<glyph name="u" format="2">
	<unicode hex="0075"/>
	<advance width="579"/>
	<outline>
		<contour>
			<point x="303" y="10" type="curve" smooth="yes"/>
			<point x="410" y="10"/>
			<point x="495" y="117.431884058"/>
			<point x="495" y="338" type="curve" smooth="yes"/>
			<point x="495" y="442"/>
			<point x="475" y="472"/>
			<point x="444" y="472" type="curve" smooth="yes"/>
			<point x="426" y="472"/>
			<point x="421" y="461"/>
			<point x="421" y="444" type="curve" smooth="yes"/>
			<point x="421" y="409"/>
			<point x="428" y="393"/>
			<point x="428" y="337" type="curve" smooth="yes"/>
			<point x="428" y="156.6989247312"/>
			<point x="377" y="75"/>
			<point x="291" y="75" type="curve" smooth="yes"/>
			<point x="216" y="75"/>
			<point x="132" y="183.712962963"/>
			<point x="132" y="274" type="curve" smooth="yes"/>
			<point x="132" y="381"/>
			<point x="156" y="391"/>
			<point x="156" y="434" type="curve" smooth="yes"/>
			<point x="156" y="455"/>
			<point x="146" y="469"/>
			<point x="127" y="469" type="curve" smooth="yes"/>
			<point x="113" y="469"/>
			<point x="101" y="460"/>
			<point x="97" y="448" type="curve" smooth="yes"/>
			<point x="75" y="391"/>
			<point x="65" y="336"/>
			<point x="65" y="274" type="curve" smooth="yes"/>
			<point x="65" y="163.1387900356"/>
			<point x="158" y="10"/>
		</contour>
	</outline>
	<anchor name="top" x="289" y="485"/>
	<anchor name="bottom" x="289" y="0"/>
	<anchor name="ogonek" x="368" y="12"/>
</glyph>
<glyph name="v" format="2">
  <advance width="506"/>
  <unicode hex="0076"/>
  <anchor x="242.0" y="485" name="top"/>
  <anchor x="244.0" y="0" name="bottom"/>
  <outline>
    <contour>
      <point x="199" y="27" type="curve" smooth="yes"/>
      <point x="216" y="1"/>
      <point x="228" y="-10"/>
      <point x="245" y="-10" type="curve" smooth="yes"/>
      <point x="264" y="-10"/>
      <point x="273" y="-1"/>
      <point x="284" y="25" type="curve" smooth="yes"/>
      <point x="362" y="207"/>
      <point x="372" y="320"/>
      <point x="476" y="451" type="curve" smooth="yes"/>
      <point x="483" y="460"/>
      <point x="488" y="470"/>
      <point x="488" y="482" type="curve" smooth="yes"/>
      <point x="488" y="497"/>
      <point x="473" y="514"/>
      <point x="456" y="514" type="curve" smooth="yes"/>
      <point x="439" y="514"/>
      <point x="432" y="506"/>
      <point x="419" y="491" type="curve" smooth="yes"/>
      <point x="328" y="376"/>
      <point x="301" y="232"/>
      <point x="228" y="64" type="curve"/>
      <point x="258" y="67" type="line"/>
      <point x="214" y="139"/>
      <point x="188" y="258"/>
      <point x="156" y="346" type="curve" smooth="yes"/>
      <point x="132" y="409"/>
      <point x="113" y="472"/>
      <point x="62" y="472" type="curve" smooth="yes"/>
      <point x="43" y="472"/>
      <point x="33" y="462"/>
      <point x="33" y="452" type="curve" smooth="yes"/>
      <point x="33" y="418"/>
      <point x="60" y="422"/>
      <point x="115" y="266" type="curve" smooth="yes"/>
      <point x="147" y="179"/>
      <point x="171" y="72"/>
    </contour>
  </outline>
</glyph>
<glyph name="x" format="2">
	<unicode hex="0078"/>
	<advance width="499"/>
	<image fileName="b.png" xScale="2.580311745" yScale="2.580311745" xOffset="-6195.2985653972" yOffset="-580.570142633" color="0,0,0,0.24109"/>
	<outline>
		<contour>
			<point x="436" y="406" type="curve" smooth="yes"/>
			<point x="269.1900133008" y="307.0260745585"/>
			<point x="163" y="128"/>
			<point x="96" y="-97" type="curve" smooth="yes"/>
			<point x="88" y="-123"/>
			<point x="75" y="-133"/>
			<point x="64" y="-133" type="curve" smooth="yes"/>
			<point x="51" y="-133"/>
			<point x="34" y="-128"/>
			<point x="34" y="-99" type="curve" smooth="yes"/>
			<point x="34" y="-12"/>
			<point x="136" y="245"/>
			<point x="327" y="407" type="curve" smooth="yes"/>
			<point x="399" y="468"/>
			<point x="421" y="477"/>
			<point x="444" y="477" type="curve" smooth="yes"/>
			<point x="460" y="477"/>
			<point x="470" y="468"/>
			<point x="470" y="454" type="curve" smooth="yes"/>
			<point x="470" y="438"/>
			<point x="462" y="422"/>
		</contour>
		<contour>
			<point x="203.6968997022" y="369.9267958024"/>
			<point x="347.1604166088" y="208.586314736"/>
			<point x="402" y="132" type="curve" smooth="yes"/>
			<point x="443" y="74"/>
			<point x="449" y="47"/>
			<point x="449" y="28" type="curve" smooth="yes"/>
			<point x="449" y="17"/>
			<point x="443" y="10"/>
			<point x="433" y="10" type="curve" smooth="yes"/>
			<point x="417" y="10"/>
			<point x="395" y="20"/>
			<point x="374" y="51" type="curve" smooth="yes"/>
			<point x="293.1409015166" y="163.2514543652"/>
			<point x="174.2887619144" y="312.5504065459"/>
			<point x="89" y="385" type="curve" smooth="yes"/>
			<point x="56" y="413"/>
			<point x="36" y="432"/>
			<point x="36" y="454" type="curve" smooth="yes"/>
			<point x="36" y="465"/>
			<point x="43" y="475"/>
			<point x="60" y="475" type="curve" smooth="yes"/>
			<point x="86" y="475"/>
			<point x="103" y="464"/>
			<point x="143" y="427" type="curve" smooth="yes"/>
		</contour>
	</outline>
	<anchor name="top" x="244" y="485"/>
	<anchor name="bottom" x="258" y="0"/>
</glyph>
<glyph name="y" format="2">
	<unicode hex="0079"/>
	<advance width="563"/>
	<image fileName="b.png" xScale="2.580311745" yScale="2.580311745" xOffset="-6701.815296469" yOffset="-580.570142633" color="0,0,0,0.24109"/>
	<outline>
		<contour>
			<point x="139" y="471" type="curve" smooth="yes"/>
			<point x="143" y="533"/>
			<point x="132" y="547"/>
			<point x="113" y="547" type="curve" smooth="yes"/>
			<point x="88" y="547"/>
			<point x="68" y="522"/>
			<point x="68" y="393" type="curve" smooth="yes"/>
			<point x="68" y="201"/>
			<point x="132" y="118"/>
			<point x="236" y="118" type="curve" smooth="yes"/>
			<point x="306" y="118"/>
			<point x="384" y="173"/>
			<point x="423" y="349" type="curve" smooth="yes"/>
			<point x="430" y="386"/>
			<point x="394" y="386"/>
			<point x="397" y="349" type="curve" smooth="yes"/>
			<point x="400.4932815853" y="148.7185224429"/>
			<point x="418" y="77.6776315789"/>
			<point x="418" y="-5" type="curve" smooth="yes"/>
			<point x="418" y="-117.8358208955"/>
			<point x="386" y="-194"/>
			<point x="281" y="-194" type="curve" smooth="yes"/>
			<point x="178.7" y="-194"/>
			<point x="168.8" y="-164"/>
			<point x="138" y="-164" type="curve" smooth="yes"/>
			<point x="117" y="-164"/>
			<point x="108" y="-175"/>
			<point x="108" y="-191" type="curve" smooth="yes"/>
			<point x="108" y="-236.5"/>
			<point x="179.2962962963" y="-261"/>
			<point x="283" y="-261" type="curve" smooth="yes"/>
			<point x="401" y="-261"/>
			<point x="485" y="-187"/>
			<point x="485" y="-5" type="curve" smooth="yes"/>
			<point x="485" y="210.7037037037"/>
			<point x="442.9211137754" y="260.3334251786"/>
			<point x="462" y="450" type="curve" smooth="yes"/>
			<point x="470" y="526"/>
			<point x="445" y="546"/>
			<point x="424" y="546" type="curve" smooth="yes"/>
			<point x="404" y="546"/>
			<point x="399" y="539"/>
			<point x="395" y="502" type="curve" smooth="yes"/>
			<point x="376" y="320"/>
			<point x="321" y="183"/>
			<point x="232" y="183" type="curve" smooth="yes"/>
			<point x="160" y="183"/>
			<point x="128" y="300"/>
		</contour>
	</outline>
</glyph>
<glyph name="z" format="2">
	<unicode hex="007A"/>
	<advance width="603"/>
	<image fileName="b.png" xScale="2.580311745" yScale="2.580311745" xOffset="-7272.5472265012" yOffset="-580.570142633" color="0,0,0,0.24109"/>
	<outline>
		<contour>
			<point x="106" y="492" type="curve" smooth="yes"/>
			<point x="166" y="511"/>
			<point x="249" y="526"/>
			<point x="315" y="526" type="curve" smooth="yes"/>
			<point x="474.6767676768" y="526"/>
			<point x="523" y="468"/>
			<point x="523" y="410" type="curve" smooth="yes"/>
			<point x="523" y="317.8214285714"/>
			<point x="421.9528255992" y="192.8638152268"/>
			<point x="103" y="54" type="curve"/>
			<point x="113" y="74" type="line"/>
			<point x="135.4538728728" y="28.2606293332"/>
			<point x="164.3333333333" y="26"/>
			<point x="223" y="26" type="curve" smooth="yes"/>
			<point x="302.0128755365" y="26"/>
			<point x="401.3433476395" y="38"/>
			<point x="486" y="38" type="curve" smooth="yes"/>
			<point x="533" y="38"/>
			<point x="564" y="22"/>
			<point x="564" y="0" type="curve" smooth="yes"/>
			<point x="564" y="-16"/>
			<point x="550" y="-30"/>
			<point x="528" y="-30" type="curve" smooth="yes"/>
			<point x="442.8947368421" y="-30"/>
			<point x="313.5789473684" y="-40"/>
			<point x="213" y="-40" type="curve" smooth="yes"/>
			<point x="90.6043165468" y="-40"/>
			<point x="54" y="14.3442622951"/>
			<point x="54" y="62" type="curve" smooth="yes"/>
			<point x="54" y="86"/>
			<point x="64" y="110"/>
			<point x="97" y="124" type="curve" smooth="yes"/>
			<point x="333.2073788935" y="226.1734243586"/>
			<point x="472.7398702837" y="339.7447330557"/>
			<point x="461" y="439" type="curve"/>
			<point x="478" y="392" type="line"/>
			<point x="442.8630992232" y="443.8269286457"/>
			<point x="403.9635036496" y="460"/>
			<point x="331" y="460" type="curve" smooth="yes"/>
			<point x="217" y="460"/>
			<point x="148" y="426"/>
			<point x="108" y="426" type="curve" smooth="yes"/>
			<point x="95" y="426"/>
			<point x="81" y="443"/>
			<point x="81" y="462" type="curve" smooth="yes"/>
			<point x="81" y="479"/>
			<point x="87" y="486"/>
		</contour>
	</outline>
	<anchor name="top" x="290" y="485"/>
	<anchor name="bottom" x="307" y="0"/>
</glyph>
<glyph name="brokenbar" format="2">
	<unicode hex="00A6"/>
	<advance width="296"/>
	<outline>
		<contour>
			<point x="184" y="752" type="curve" smooth="yes"/>
			<point x="184" y="704"/>
			<point x="172" y="675.9166666667"/>
			<point x="172" y="586" type="curve" smooth="yes"/>
			<point x="172" y="478.976744186"/>
			<point x="182" y="464.5697674419"/>
			<point x="182" y="409" type="curve" smooth="yes"/>
			<point x="182" y="374"/>
			<point x="169" y="364"/>
			<point x="154" y="364" type="curve" smooth="yes"/>
			<point x="136" y="364"/>
			<point x="124" y="378"/>
			<point x="120" y="400" type="curve" smooth="yes"/>
			<point x="95" y="555"/>
			<point x="116" y="690"/>
			<point x="116" y="770" type="curve" smooth="yes"/>
			<point x="116" y="795"/>
			<point x="127" y="811"/>
			<point x="146" y="811" type="curve" smooth="yes"/>
			<point x="169" y="811"/>
			<point x="184" y="791"/>
		</contour>
		<contour>
			<point x="118" y="-100" type="curve" smooth="yes"/>
			<point x="118" y="-50"/>
			<point x="120" y="-21"/>
			<point x="120" y="72" type="curve" smooth="yes"/>
			<point x="120" y="176"/>
			<point x="110" y="190"/>
			<point x="110" y="244" type="curve" smooth="yes"/>
			<point x="110" y="279"/>
			<point x="121" y="289"/>
			<point x="141" y="289" type="curve" smooth="yes"/>
			<point x="157" y="289"/>
			<point x="168" y="277"/>
			<point x="172" y="253" type="curve" smooth="yes"/>
			<point x="197" y="105"/>
			<point x="186" y="-38"/>
			<point x="186" y="-121" type="curve" smooth="yes"/>
			<point x="186" y="-141"/>
			<point x="176" y="-159"/>
			<point x="158" y="-159" type="curve" smooth="yes"/>
			<point x="132" y="-159"/>
			<point x="118" y="-141"/>
		</contour>
	</outline>
</glyph>
<glyph name="degree" format="2">
  <advance width="553"/>
  <unicode hex="00B0"/>
  <outline>
    <contour>
      <point x="279" y="290" type="curve" smooth="yes"/>
      <point x="393.413" y="290"/>
      <point x="482" y="382"/>
      <point x="483" y="503" type="curve" smooth="yes"/>
      <point x="485" y="628.003"/>
      <point x="410.417" y="706"/>
      <point x="288" y="706" type="curve" smooth="yes"/>
      <point x="217" y="706"/>
      <point x="148" y="642"/>
      <point x="147" y="595" type="curve" smooth="yes"/>
      <point x="147" y="574"/>
      <point x="156" y="566"/>
      <point x="171" y="566" type="curve" smooth="yes"/>
      <point x="193" y="566"/>
      <point x="194" y="584"/>
      <point x="220" y="609" type="curve" smooth="yes"/>
      <point x="242" y="631"/>
      <point x="260" y="645"/>
      <point x="295" y="645" type="curve" smooth="yes"/>
      <point x="371.481" y="645"/>
      <point x="417" y="592.002"/>
      <point x="416" y="507" type="curve" smooth="yes"/>
      <point x="415" y="412.999"/>
      <point x="359.952" y="351"/>
      <point x="277" y="351" type="curve" smooth="yes"/>
      <point x="190" y="351"/>
      <point x="136" y="410"/>
      <point x="137" y="501" type="curve" smooth="yes"/>
      <point x="138" y="552"/>
      <point x="162" y="591"/>
      <point x="216" y="625" type="curve" smooth="yes"/>
      <point x="242" y="639"/>
      <point x="248" y="654"/>
      <point x="248" y="675" type="curve" smooth="yes"/>
      <point x="248" y="692"/>
      <point x="237" y="697"/>
      <point x="222" y="697" type="curve" smooth="yes"/>
      <point x="178" y="697"/>
      <point x="72" y="619"/>
      <point x="70" y="496" type="curve" smooth="yes"/>
      <point x="69" y="377"/>
      <point x="156" y="290"/>
    </contour>
  </outline>
</glyph>
<glyph name="paragraph" format="2">
	<unicode hex="00B6"/>
	<advance width="759"/>
	<image fileName="paragraph.png" xScale="1.8658943304" yScale="1.8658943304" xOffset="-95.4880853232" yOffset="-402.248029519" color="0,0,0,0.19656"/>
	<outline>
		<contour>
			<point x="666" y="676" type="curve" smooth="yes"/>
			<point x="723" y="194"/>
			<point x="602" y="22"/>
			<point x="626" y="-203" type="curve" smooth="yes"/>
			<point x="629" y="-233"/>
			<point x="624" y="-253"/>
			<point x="597" y="-253" type="curve" smooth="yes"/>
			<point x="570" y="-253"/>
			<point x="559" y="-241"/>
			<point x="555" y="-203" type="curve" smooth="yes"/>
			<point x="532" y="16"/>
			<point x="657" y="189"/>
			<point x="595" y="672" type="curve" smooth="yes"/>
			<point x="591" y="703"/>
			<point x="600" y="716"/>
			<point x="620" y="716" type="curve" smooth="yes"/>
			<point x="646" y="716"/>
			<point x="662.3618939951" y="699.0413380311"/>
		</contour>
		<contour>
			<point x="390" y="179" type="curve" smooth="yes"/>
			<point x="161.4569167735" y="221.100041647"/>
			<point x="45" y="304.3215859031"/>
			<point x="45" y="403" type="curve" smooth="yes"/>
			<point x="45" y="541"/>
			<point x="191" y="704"/>
			<point x="339" y="704" type="curve" smooth="yes"/>
			<point x="445" y="704"/>
			<point x="472" y="652"/>
			<point x="472" y="409" type="curve" smooth="yes"/>
			<point x="472" y="105"/>
			<point x="384" y="-80"/>
			<point x="432" y="-221" type="curve" smooth="yes"/>
			<point x="439.303840481" y="-242.9115214431"/>
			<point x="425" y="-267"/>
			<point x="399" y="-267" type="curve" smooth="yes"/>
			<point x="385" y="-267"/>
			<point x="371" y="-257"/>
			<point x="366" y="-243" type="curve" smooth="yes"/>
			<point x="316" y="-98"/>
			<point x="402" y="92"/>
			<point x="402" y="413" type="curve" smooth="yes"/>
			<point x="402" y="619.7692307692"/>
			<point x="380.8918918919" y="637"/>
			<point x="331" y="637" type="curve" smooth="yes"/>
			<point x="230.6056338028" y="637"/>
			<point x="115" y="510.3407079646"/>
			<point x="115" y="408" type="curve" smooth="yes"/>
			<point x="115" y="346"/>
			<point x="220" y="278"/>
			<point x="401" y="244" type="curve" smooth="yes"/>
			<point x="420" y="240"/>
			<point x="433" y="222"/>
			<point x="429" y="204" type="curve" smooth="yes"/>
			<point x="426.3151659505" y="186.9960510198"/>
			<point x="407.5116801302" y="176.081386645"/>
		</contour>
	</outline>
</glyph>
<glyph name="questiondown" format="2">
  <advance width="302"/>
  <unicode hex="00BF"/>
  <outline>
    <contour>
      <point x="358" y="-198" type="curve" smooth="yes"/>
      <point x="315" y="-220"/>
      <point x="240" y="-236"/>
      <point x="185" y="-236" type="curve" smooth="yes"/>
      <point x="46" y="-236"/>
      <point x="-13" y="-172"/>
      <point x="-13" y="-93" type="curve" smooth="yes"/>
      <point x="-13" y="-43"/>
      <point x="-1" y="0"/>
      <point x="90" y="64" type="curve" smooth="yes"/>
      <point x="165" y="115"/>
      <point x="173" y="134"/>
      <point x="173" y="159" type="curve" smooth="yes"/>
      <point x="173" y="203"/>
      <point x="121" y="203"/>
      <point x="121" y="242" type="curve" smooth="yes"/>
      <point x="121" y="257"/>
      <point x="132" y="268"/>
      <point x="148" y="268" type="curve" smooth="yes"/>
      <point x="194" y="268"/>
      <point x="243" y="220"/>
      <point x="243" y="163" type="curve" smooth="yes"/>
      <point x="243" y="127"/>
      <point x="239" y="88"/>
      <point x="126" y="8" type="curve" smooth="yes"/>
      <point x="66" y="-36"/>
      <point x="55" y="-59"/>
      <point x="55" y="-93" type="curve" smooth="yes"/>
      <point x="55" y="-141"/>
      <point x="92" y="-168"/>
      <point x="185" y="-168" type="curve" smooth="yes"/>
      <point x="272" y="-168"/>
      <point x="309" y="-134"/>
      <point x="342" y="-134" type="curve" smooth="yes"/>
      <point x="362" y="-134"/>
      <point x="376" y="-149"/>
      <point x="376" y="-168" type="curve" smooth="yes"/>
      <point x="376" y="-180"/>
      <point x="369" y="-192"/>
    </contour>
    <contour>
      <point x="154" y="494" type="curve" smooth="yes"/>
      <point x="118" y="494"/>
      <point x="104" y="468"/>
      <point x="104" y="443" type="curve" smooth="yes"/>
      <point x="104" y="406"/>
      <point x="125" y="371"/>
      <point x="179" y="371" type="curve" smooth="yes"/>
      <point x="206" y="371"/>
      <point x="229" y="393"/>
      <point x="229" y="423" type="curve" smooth="yes"/>
      <point x="229" y="468"/>
      <point x="195" y="494"/>
    </contour>
  </outline>
</glyph>
<glyph name="ae" format="2">
  <advance width="876"/>
  <unicode hex="00E6"/>
  <anchor x="452" y="485" name="top"/>
  <outline>
    <contour>
      <point x="538" y="179" type="curve" smooth="yes"/>
      <point x="677" y="179"/>
      <point x="782" y="244.129"/>
      <point x="782" y="352" type="curve" smooth="yes"/>
      <point x="782" y="447.986"/>
      <point x="725" y="495"/>
      <point x="637" y="495" type="curve" smooth="yes"/>
      <point x="480.837" y="495"/>
      <point x="382" y="338"/>
      <point x="382" y="200" type="curve" smooth="yes"/>
      <point x="382" y="77"/>
      <point x="443.088" y="-10"/>
      <point x="583" y="-10" type="curve" smooth="yes"/>
      <point x="699" y="-10"/>
      <point x="814" y="66"/>
      <point x="814" y="121" type="curve" smooth="yes"/>
      <point x="814" y="134"/>
      <point x="808" y="143"/>
      <point x="795" y="143" type="curve" smooth="yes"/>
      <point x="761" y="143"/>
      <point x="721" y="55"/>
      <point x="580" y="55" type="curve" smooth="yes"/>
      <point x="482" y="55"/>
      <point x="446" y="121"/>
      <point x="446" y="201" type="curve" smooth="yes"/>
      <point x="446" y="320"/>
      <point x="525" y="429"/>
      <point x="634" y="429" type="curve" smooth="yes"/>
      <point x="692" y="429"/>
      <point x="715" y="403"/>
      <point x="715" y="353" type="curve" smooth="yes"/>
      <point x="715" y="286"/>
      <point x="644" y="241"/>
      <point x="534" y="241" type="curve" smooth="yes"/>
      <point x="481.538" y="241"/>
      <point x="459" y="252"/>
      <point x="441" y="252" type="curve" smooth="yes"/>
      <point x="422" y="252"/>
      <point x="416" y="245"/>
      <point x="416" y="230" type="curve" smooth="yes"/>
      <point x="416" y="207"/>
      <point x="453" y="179"/>
    </contour>
    <contour>
      <point x="290" y="306" type="curve" smooth="yes"/>
      <point x="148.721" y="306"/>
      <point x="42" y="240"/>
      <point x="42" y="132" type="curve" smooth="yes"/>
      <point x="42" y="37"/>
      <point x="100.572" y="-10"/>
      <point x="191" y="-10" type="curve" smooth="yes"/>
      <point x="346.55" y="-10"/>
      <point x="445" y="147"/>
      <point x="445" y="285" type="curve" smooth="yes"/>
      <point x="445" y="407"/>
      <point x="390.294" y="495"/>
      <point x="265" y="495" type="curve" smooth="yes"/>
      <point x="168" y="495"/>
      <point x="71" y="441.737"/>
      <point x="71" y="403" type="curve" smooth="yes"/>
      <point x="71" y="388.227"/>
      <point x="78.263" y="378"/>
      <point x="94" y="378" type="curve" smooth="yes"/>
      <point x="121.117" y="378"/>
      <point x="153.883" y="430"/>
      <point x="268" y="430" type="curve" smooth="yes"/>
      <point x="351.373" y="430"/>
      <point x="382" y="364"/>
      <point x="382" y="284" type="curve" smooth="yes"/>
      <point x="382" y="165"/>
      <point x="303" y="56"/>
      <point x="194" y="56" type="curve" smooth="yes"/>
      <point x="133.136" y="56"/>
      <point x="109" y="82"/>
      <point x="109" y="132" type="curve" smooth="yes"/>
      <point x="109" y="199"/>
      <point x="181.569" y="244"/>
      <point x="294" y="244" type="curve" smooth="yes"/>
      <point x="345.897" y="244"/>
      <point x="368" y="232"/>
      <point x="386" y="232" type="curve" smooth="yes"/>
      <point x="405" y="232"/>
      <point x="411" y="239"/>
      <point x="411" y="254" type="curve" smooth="yes"/>
      <point x="411" y="275"/>
      <point x="374" y="306"/>
    </contour>
  </outline>
</glyph>
<glyph name="eth" format="2">
	<unicode hex="00F0"/>
	<advance width="590"/>
	<outline>
		<contour>
			<point x="194" y="680" type="curve" smooth="yes"/>
			<point x="360.4767871042" y="547.9666860898"/>
			<point x="458" y="373.9775196703"/>
			<point x="458" y="239" type="curve" smooth="yes"/>
			<point x="458" y="101"/>
			<point x="387" y="55"/>
			<point x="289" y="55" type="curve" smooth="yes"/>
			<point x="209" y="55"/>
			<point x="133" y="97.7397260274"/>
			<point x="133" y="211" type="curve" smooth="yes"/>
			<point x="133" y="279"/>
			<point x="167" y="355"/>
			<point x="270" y="355" type="curve" smooth="yes"/>
			<point x="394" y="355"/>
			<point x="412" y="289"/>
			<point x="448" y="289" type="curve" smooth="yes"/>
			<point x="465" y="289"/>
			<point x="470" y="297"/>
			<point x="470" y="315" type="curve" smooth="yes"/>
			<point x="470" y="364"/>
			<point x="396" y="420"/>
			<point x="266" y="420" type="curve" smooth="yes"/>
			<point x="131" y="420"/>
			<point x="65" y="324"/>
			<point x="65" y="200" type="curve" smooth="yes"/>
			<point x="65" y="95"/>
			<point x="141" y="-10"/>
			<point x="289" y="-10" type="curve" smooth="yes"/>
			<point x="455" y="-10"/>
			<point x="525" y="82"/>
			<point x="525" y="239" type="curve" smooth="yes"/>
			<point x="525" y="387.8670520231"/>
			<point x="423.2723166455" y="578.2462103798"/>
			<point x="238" y="728" type="curve" smooth="yes"/>
			<point x="208" y="751"/>
			<point x="194" y="760"/>
			<point x="180" y="760" type="curve" smooth="yes"/>
			<point x="164" y="760"/>
			<point x="151" y="751"/>
			<point x="151" y="733" type="curve" smooth="yes"/>
			<point x="151" y="717"/>
			<point x="156" y="709"/>
		</contour>
		<contour>
			<point x="130" y="521" type="curve" smooth="yes"/>
			<point x="233.2974928339" y="563.5969042614"/>
			<point x="312.7648123802" y="583.1832827275"/>
			<point x="469" y="597" type="curve" smooth="yes"/>
			<point x="494" y="599"/>
			<point x="504" y="606"/>
			<point x="504" y="625" type="curve" smooth="yes"/>
			<point x="504" y="643"/>
			<point x="483" y="658"/>
			<point x="458" y="658" type="curve" smooth="yes"/>
			<point x="362.9864864865" y="658"/>
			<point x="252.2506602419" y="631.5342113467"/>
			<point x="142" y="593" type="curve" smooth="yes"/>
			<point x="89" y="574"/>
			<point x="81" y="560"/>
			<point x="81" y="539" type="curve" smooth="yes"/>
			<point x="81" y="517"/>
			<point x="102" y="510"/>
		</contour>
	</outline>
</glyph>
<glyph name="oslash" format="2">
  <advance width="600"/>
  <unicode hex="00F8"/>
  <anchor x="323" y="485" name="top"/>
  <outline>
    <contour>
      <point x="154" y="129.0"/>
      <point x="130.36613342447714" y="91.20289960833853"/>
      <point x="48" y="-33" type="curve" smooth="yes"/>
      <point x="29" y="-62"/>
      <point x="39" y="-94"/>
      <point x="71" y="-94" type="curve" smooth="yes"/>
      <point x="82" y="-94"/>
      <point x="94" y="-86"/>
      <point x="106" y="-68" type="curve" smooth="yes"/>
      <point x="176.08307780095686" y="37.785777812765104"/>
      <point x="214.0" y="78"/>
      <point x="214" y="98" type="curve" smooth="yes"/>
      <point x="214" y="119"/>
      <point x="201" y="129"/>
      <point x="179" y="129" type="curve" smooth="yes"/>
    </contour>
    <contour>
      <point x="561" y="474" type="curve" smooth="yes"/>
      <point x="604" y="517"/>
      <point x="592" y="553"/>
      <point x="564" y="553" type="curve" smooth="yes"/>
      <point x="539.0" y="553.0"/>
      <point x="524" y="543"/>
      <point x="497" y="514" type="curve" smooth="yes"/>
      <point x="190.65385190295297" y="178.58450938279515"/>
      <point x="161" y="136"/>
      <point x="161" y="101" type="curve" smooth="yes"/>
      <point x="161" y="88"/>
      <point x="173" y="76"/>
      <point x="187" y="76" type="curve" smooth="yes"/>
      <point x="222" y="76.0"/>
      <point x="243.5164985817703" y="153.17456698789425"/>
    </contour>
    <component base="o"/>
  </outline>
</glyph>
<glyph name="dcroat" format="2">
	<unicode hex="0111"/>
	<advance width="603"/>
	<outline>
		<contour>
			<point x="223" y="561" type="curve" smooth="yes"/>
			<point x="269" y="561"/>
			<point x="346" y="572"/>
			<point x="554" y="572" type="curve" smooth="yes"/>
			<point x="581" y="572"/>
			<point x="596" y="581"/>
			<point x="596" y="598" type="curve" smooth="yes"/>
			<point x="596" y="618"/>
			<point x="581" y="635"/>
			<point x="541" y="635" type="curve" smooth="yes"/>
			<point x="429" y="635"/>
			<point x="332" y="632"/>
			<point x="215" y="622" type="curve" smooth="yes"/>
			<point x="190" y="619"/>
			<point x="177" y="610"/>
			<point x="177" y="592" type="curve" smooth="yes"/>
			<point x="177" y="574"/>
			<point x="190" y="561"/>
		</contour>
		<component base="d"/>
	</outline>
</glyph>
<glyph name="Hcircumflex" format="2">
	<unicode hex="0124"/>
	<advance width="711"/>
	<outline>
		<contour>
			<point x="81.7307692308" y="0" type="line"/>
			<point x="134.1346153846" y="0" type="line"/>
			<point x="134.1346153846" y="337.0192307692" type="line"/>
			<point x="576.4423076923" y="337.0192307692" type="line"/>
			<point x="576.4423076923" y="0" type="line"/>
			<point x="628.8461538462" y="0" type="line"/>
			<point x="628.8461538462" y="700" type="line"/>
			<point x="576.4423076923" y="700" type="line"/>
			<point x="576.4423076923" y="385.0961538462" type="line"/>
			<point x="134.1346153846" y="385.0961538462" type="line"/>
			<point x="134.1346153846" y="700" type="line"/>
			<point x="81.7307692308" y="700" type="line"/>
		</contour>
		<contour>
			<point x="377.6960784314" y="964.1025641025" type="line"/>
			<point x="331.5893665158" y="964.1025641025" type="line"/>
			<point x="177.7432126697" y="798.0769230769" type="line"/>
			<point x="235.1150075415" y="798.0769230769" type="line"/>
			<point x="354.8076923077" y="924.4343891403" type="line"/>
			<point x="469.391025641" y="798.0769230769" type="line"/>
			<point x="527.5452488688" y="798.0769230769" type="line"/>
		</contour>
	</outline>
</glyph>
<glyph name="hbar" format="2">
	<unicode hex="0127"/>
	<advance width="613"/>
	<outline>
		<contour>
			<point x="108" y="572" type="curve" smooth="yes"/>
			<point x="159.5168067227" y="572"/>
			<point x="242.5588235294" y="582"/>
			<point x="474" y="582" type="curve" smooth="yes"/>
			<point x="506" y="582"/>
			<point x="525" y="593"/>
			<point x="525" y="611" type="curve" smooth="yes"/>
			<point x="525" y="624"/>
			<point x="503" y="645"/>
			<point x="441" y="645" type="curve" smooth="yes"/>
			<point x="318.8987341772" y="645"/>
			<point x="203.8622733248" y="638.6886226257"/>
			<point x="77" y="631" type="curve" smooth="yes"/>
			<point x="52" y="629"/>
			<point x="45" y="613"/>
			<point x="45" y="602" type="curve" smooth="yes"/>
			<point x="45" y="587"/>
			<point x="67" y="572"/>
		</contour>
		<component base="h"/>
	</outline>
</glyph>
<glyph name="IJ" format="2">
	<unicode hex="0132"/>
	<advance width="651"/>
	<outline>
		<contour>
			<point x="123" y="188"/>
			<point x="103" y="164"/>
			<point x="103" y="131" type="curve" smooth="yes"/>
			<point x="103" y="41"/>
			<point x="198" y="-12"/>
			<point x="336" y="-12" type="curve" smooth="yes"/>
			<point x="492" y="-12"/>
			<point x="577" y="56"/>
			<point x="577" y="206" type="curve" smooth="yes"/>
			<point x="577" y="315"/>
			<point x="537" y="501"/>
			<point x="502" y="622" type="curve" smooth="yes"/>
			<point x="491" y="662"/>
			<point x="478" y="677"/>
			<point x="452" y="677" type="curve" smooth="yes"/>
			<point x="426" y="677"/>
			<point x="424" y="645"/>
			<point x="432" y="616" type="curve" smooth="yes"/>
			<point x="464" y="501"/>
			<point x="509" y="311"/>
			<point x="509" y="212" type="curve" smooth="yes"/>
			<point x="509" y="103"/>
			<point x="467" y="53"/>
			<point x="336" y="53" type="curve" smooth="yes"/>
			<point x="221" y="53"/>
			<point x="171" y="89"/>
			<point x="171" y="143" type="curve" smooth="yes"/>
			<point x="171" y="171"/>
			<point x="168" y="188"/>
			<point x="147" y="188" type="curve" smooth="yes"/>
		</contour>
		<contour>
			<point x="329" y="636" type="curve" smooth="yes"/>
			<point x="381" y="636"/>
			<point x="463" y="646"/>
			<point x="548" y="646" type="curve" smooth="yes"/>
			<point x="581" y="646"/>
			<point x="598" y="657"/>
			<point x="598" y="676" type="curve" smooth="yes"/>
			<point x="598" y="705"/>
			<point x="574" y="712"/>
			<point x="552" y="712" type="curve" smooth="yes"/>
			<point x="459" y="712"/>
			<point x="412" y="702"/>
			<point x="344" y="702" type="curve" smooth="yes"/>
			<point x="303" y="702"/>
			<point x="297" y="706"/>
			<point x="270" y="706" type="curve" smooth="yes"/>
			<point x="252" y="706"/>
			<point x="242" y="696"/>
			<point x="242" y="680" type="curve" smooth="yes"/>
			<point x="242" y="648"/>
			<point x="293" y="636"/>
		</contour>
		<contour>
			<point x="100" y="584"/>
			<point x="83" y="462"/>
			<point x="83" y="337" type="curve" smooth="yes"/>
			<point x="83" y="296"/>
			<point x="101" y="270"/>
			<point x="128" y="270" type="curve" smooth="yes"/>
			<point x="143" y="270"/>
			<point x="152" y="279"/>
			<point x="152" y="299" type="curve" smooth="yes"/>
			<point x="152" y="455"/>
			<point x="169" y="580"/>
			<point x="169" y="645" type="curve" smooth="yes"/>
			<point x="169" y="684"/>
			<point x="149" y="715"/>
			<point x="125" y="715" type="curve" smooth="yes"/>
			<point x="106" y="715"/>
			<point x="100" y="701"/>
			<point x="100" y="674" type="curve" smooth="yes"/>
		</contour>
	</outline>
</glyph>
<glyph name="kra" format="2">
	<unicode hex="0138"/>
	<advance width="529"/>
	<outline>
		<contour>
			<point x="122.1153846154" y="520.1923076923" type="line"/>
			<point x="71.1538461538" y="520.1923076923" type="line"/>
			<point x="71.1538461538" y="0" type="line"/>
			<point x="122.1153846154" y="0" type="line"/>
		</contour>
		<contour>
			<point x="519.7115384615" y="520.1923076923" type="line"/>
			<point x="458.1730769231" y="520.1923076923" type="line"/>
			<point x="254.8076923077" y="285.0961538462" type="line"/>
			<point x="103.8461538462" y="285.0961538462" type="line"/>
			<point x="103.8461538462" y="237.0192307692" type="line"/>
			<point x="275.9615384615" y="237.0192307692" type="line"/>
		</contour>
		<contour>
			<point x="470.6730769231" y="0" type="line"/>
			<point x="537.0192307692" y="0" type="line"/>
			<point x="274.5192307692" y="300" type="line"/>
			<point x="259.6153846154" y="239.9038461538" type="line"/>
		</contour>
	</outline>
</glyph>
<glyph name="Ldot" format="2">
	<unicode hex="013F"/>
	<advance width="556"/>
	<outline>
		<contour>
			<point x="443" y="313" type="curve" smooth="yes"/>
			<point x="477" y="313"/>
			<point x="490" y="339"/>
			<point x="490" y="364" type="curve" smooth="yes"/>
			<point x="490" y="399"/>
			<point x="461" y="442"/>
			<point x="413" y="442" type="curve" smooth="yes"/>
			<point x="387" y="442"/>
			<point x="365" y="422"/>
			<point x="365" y="394" type="curve" smooth="yes"/>
			<point x="365" y="353"/>
			<point x="401" y="313"/>
		</contour>
		<component base="L"/>
	</outline>
</glyph>
<glyph name="ldot" format="2">
	<unicode hex="0140"/>
	<advance width="368"/>
	<outline>
		<contour>
			<point x="293" y="333" type="curve" smooth="yes"/>
			<point x="327" y="333"/>
			<point x="340" y="359"/>
			<point x="340" y="384" type="curve" smooth="yes"/>
			<point x="340" y="419"/>
			<point x="311" y="462"/>
			<point x="263" y="462" type="curve" smooth="yes"/>
			<point x="237" y="462"/>
			<point x="215" y="442"/>
			<point x="215" y="414" type="curve" smooth="yes"/>
			<point x="215" y="373"/>
			<point x="251" y="333"/>
		</contour>
		<component base="l"/>
	</outline>
	<anchor name="bottom" x="192" y="0"/>
	<anchor name="top" x="127" y="750"/>
</glyph>
<glyph name="Lslash" format="2">
	<unicode hex="0141"/>
	<advance width="556"/>
	<outline>
		<contour>
			<point x="70" y="238" type="curve" smooth="yes"/>
			<point x="112" y="260"/>
			<point x="172" y="293"/>
			<point x="360" y="396" type="curve" smooth="yes"/>
			<point x="402" y="419"/>
			<point x="389" y="462"/>
			<point x="363" y="462" type="curve" smooth="yes"/>
			<point x="348" y="462"/>
			<point x="338" y="458"/>
			<point x="306" y="440" type="curve" smooth="yes"/>
			<point x="190" y="373"/>
			<point x="118" y="340"/>
			<point x="16" y="280" type="curve" smooth="yes"/>
			<point x="-20" y="258"/>
			<point x="-6" y="224"/>
			<point x="24" y="224" type="curve" smooth="yes"/>
			<point x="36" y="224"/>
			<point x="52" y="228"/>
		</contour>
		<component base="L"/>
	</outline>
	<note>
		just draw this
	</note>
</glyph>
<glyph name="Eng" format="2">
	<unicode hex="014A"/>
	<advance width="754"/>
	<outline>
		<contour>
			<point x="117" y="-8" type="curve" smooth="yes"/>
			<point x="99" y="-8"/>
			<point x="83" y="4"/>
			<point x="83" y="43" type="curve" smooth="yes"/>
			<point x="83" y="96"/>
			<point x="123" y="140"/>
			<point x="123" y="342" type="curve" smooth="yes"/>
			<point x="123" y="457"/>
			<point x="107" y="605"/>
			<point x="107" y="638" type="curve" smooth="yes"/>
			<point x="107" y="678"/>
			<point x="124" y="710"/>
			<point x="156" y="710" type="curve" smooth="yes"/>
			<point x="354" y="710"/>
			<point x="432" y="68"/>
			<point x="576" y="68" type="curve" smooth="yes"/>
			<point x="596" y="68"/>
			<point x="610" y="52.1025641026"/>
			<point x="610" y="37" type="curve" smooth="yes"/>
			<point x="610" y="12.8974358974"/>
			<point x="597.7142857143" y="-10"/>
			<point x="567" y="-10" type="curve" smooth="yes"/>
			<point x="374" y="-10"/>
			<point x="353" y="486"/>
			<point x="164" y="637" type="curve"/>
			<point x="175" y="641" type="line"/>
			<point x="188" y="515"/>
			<point x="193" y="420"/>
			<point x="193" y="342" type="curve" smooth="yes"/>
			<point x="193" y="217"/>
			<point x="182" y="114"/>
			<point x="154" y="29" type="curve" smooth="yes"/>
			<point x="148" y="8"/>
			<point x="135" y="-8"/>
		</contour>
		<contour>
			<point x="591" y="39" type="curve" smooth="yes"/>
			<point x="591" y="271"/>
			<point x="552" y="489"/>
			<point x="590" y="662" type="curve" smooth="yes"/>
			<point x="597" y="694"/>
			<point x="608" y="707"/>
			<point x="629" y="707" type="curve" smooth="yes"/>
			<point x="654" y="707"/>
			<point x="667" y="674"/>
			<point x="660" y="637" type="curve" smooth="yes"/>
			<point x="622" y="448"/>
			<point x="661" y="269"/>
			<point x="661" y="44" type="curve" smooth="yes"/>
			<point x="661" y="-158"/>
			<point x="574" y="-260"/>
			<point x="426" y="-260" type="curve" smooth="yes"/>
			<point x="340" y="-260"/>
			<point x="291" y="-234"/>
			<point x="291" y="-203" type="curve" smooth="yes"/>
			<point x="291" y="-183"/>
			<point x="303" y="-172"/>
			<point x="321" y="-172" type="curve" smooth="yes"/>
			<point x="356" y="-172"/>
			<point x="375" y="-194"/>
			<point x="417" y="-194" type="curve" smooth="yes"/>
			<point x="528" y="-194"/>
			<point x="591" y="-116"/>
		</contour>
	</outline>
</glyph>
<glyph name="eng" format="2">
  <advance width="581"/>
  <unicode hex="014B"/>
  <outline>
    <contour>
      <point x="428" y="121" type="curve" smooth="yes"/>
      <point x="428" y="-88.656"/>
      <point x="373" y="-194"/>
      <point x="277" y="-194" type="curve" smooth="yes"/>
      <point x="235" y="-194"/>
      <point x="216" y="-172"/>
      <point x="181" y="-172" type="curve" smooth="yes"/>
      <point x="163" y="-172"/>
      <point x="151" y="-183"/>
      <point x="151" y="-203" type="curve" smooth="yes"/>
      <point x="151" y="-234"/>
      <point x="200" y="-260"/>
      <point x="286" y="-260" type="curve" smooth="yes"/>
      <point x="420" y="-260"/>
      <point x="498" y="-130"/>
      <point x="498" y="126" type="curve" smooth="yes"/>
      <point x="498" y="380"/>
      <point x="449" y="496"/>
      <point x="378" y="496" type="curve" smooth="yes"/>
      <point x="295" y="496"/>
      <point x="180.095" y="346.486"/>
      <point x="136" y="73" type="curve"/>
      <point x="148" y="81" type="line"/>
      <point x="138" y="260"/>
      <point x="176" y="339"/>
      <point x="176" y="429" type="curve" smooth="yes"/>
      <point x="176" y="478"/>
      <point x="153" y="495"/>
      <point x="136" y="495" type="curve" smooth="yes"/>
      <point x="119" y="495"/>
      <point x="109" y="482"/>
      <point x="109" y="465" type="curve" smooth="yes"/>
      <point x="109" y="340"/>
      <point x="80" y="288"/>
      <point x="80" y="151" type="curve" smooth="yes"/>
      <point x="80" y="58"/>
      <point x="104" y="-9"/>
      <point x="150" y="-9" type="curve" smooth="yes"/>
      <point x="175" y="-9"/>
      <point x="189" y="12"/>
      <point x="199" y="69" type="curve" smooth="yes"/>
      <point x="232.902" y="266.43"/>
      <point x="334.824" y="429"/>
      <point x="378" y="429" type="curve" smooth="yes"/>
      <point x="401" y="429"/>
      <point x="412" y="418"/>
      <point x="428" y="396" type="curve"/>
      <point x="426" y="442"/>
      <point x="403" y="462"/>
      <point x="365" y="439" type="curve"/>
      <point x="406.196" y="385.053"/>
      <point x="428" y="321.689"/>
    </contour>
  </outline>
</glyph>
<glyph name="tcaron" format="2">
  <advance width="443"/>
  <unicode hex="0165"/>
  <outline>
    <contour>
      <point x="416" y="792"/>
      <point x="396" y="809"/>
      <point x="364" y="809" type="curve" smooth="yes"/>
      <point x="338.0" y="809.0"/>
      <point x="327.0" y="793"/>
      <point x="327" y="758" type="curve" smooth="yes"/>
      <point x="327" y="719"/>
      <point x="321" y="690"/>
      <point x="304" y="658" type="curve" smooth="yes"/>
      <point x="287" y="625"/>
      <point x="284" y="615"/>
      <point x="284" y="602" type="curve" smooth="yes"/>
      <point x="284.0" y="587.0"/>
      <point x="294.0" y="578.0"/>
      <point x="313" y="578" type="curve" smooth="yes"/>
      <point x="331" y="578"/>
      <point x="348" y="585"/>
      <point x="365" y="606" type="curve" smooth="yes"/>
      <point x="398" y="647"/>
      <point x="416.0" y="707"/>
      <point x="416" y="745" type="curve" smooth="yes"/>
    </contour>
    <component base="t"/>
  </outline>
</glyph>
<glyph name="Ohorn" format="2">
	<unicode hex="01A0"/>
	<advance width="687"/>
	<outline>
		<contour>
			<point x="489" y="552" type="curve" smooth="yes"/>
			<point x="477" y="552"/>
			<point x="470" y="542"/>
			<point x="470" y="532" type="curve" smooth="yes"/>
			<point x="470" y="510"/>
			<point x="484" y="490"/>
			<point x="510" y="490" type="curve" smooth="yes"/>
			<point x="613" y="490"/>
			<point x="698" y="537"/>
			<point x="698" y="621" type="curve" smooth="yes"/>
			<point x="698" y="683"/>
			<point x="666" y="718"/>
			<point x="632" y="718" type="curve" smooth="yes"/>
			<point x="614" y="718"/>
			<point x="604" y="706"/>
			<point x="604" y="688" type="curve" smooth="yes"/>
			<point x="604" y="663"/>
			<point x="626" y="649"/>
			<point x="626" y="618" type="curve" smooth="yes"/>
			<point x="626" y="577"/>
			<point x="580" y="552"/>
		</contour>
		<component base="O"/>
	</outline>
	<anchor name="top" x="340" y="616"/>
	<anchor name="bottom" x="340" y="44"/>
</glyph>
<glyph name="ohorn" format="2">
	<unicode hex="01A1"/>
	<advance width="546"/>
	<outline>
		<contour>
			<point x="409" y="412" type="curve" smooth="yes"/>
			<point x="391" y="412"/>
			<point x="380" y="402"/>
			<point x="380" y="392" type="curve" smooth="yes"/>
			<point x="380" y="372"/>
			<point x="398" y="354"/>
			<point x="432" y="354" type="curve" smooth="yes"/>
			<point x="531" y="354"/>
			<point x="582" y="397"/>
			<point x="582" y="463" type="curve" smooth="yes"/>
			<point x="582" y="530"/>
			<point x="553" y="568"/>
			<point x="522" y="568" type="curve" smooth="yes"/>
			<point x="504" y="568"/>
			<point x="494" y="556"/>
			<point x="494" y="538" type="curve" smooth="yes"/>
			<point x="494" y="513"/>
			<point x="517" y="499"/>
			<point x="517" y="468" type="curve" smooth="yes"/>
			<point x="517" y="433"/>
			<point x="481" y="412"/>
		</contour>
		<component base="o"/>
	</outline>
	<anchor name="bottom" x="293" y="36"/>
	<anchor name="top" x="299" y="450"/>
	<anchor name="ogonek" x="396" y="65"/>
</glyph>
<glyph name="Uhorn" format="2">
	<unicode hex="01AF"/>
	<advance width="704"/>
	<outline>
		<contour>
			<point x="549" y="602" type="curve" smooth="yes"/>
			<point x="537" y="602"/>
			<point x="530" y="592"/>
			<point x="530" y="582" type="curve" smooth="yes"/>
			<point x="530" y="560"/>
			<point x="544" y="540"/>
			<point x="570" y="540" type="curve" smooth="yes"/>
			<point x="662" y="540"/>
			<point x="738" y="583"/>
			<point x="738" y="661" type="curve" smooth="yes"/>
			<point x="738" y="723"/>
			<point x="706" y="758"/>
			<point x="672" y="758" type="curve" smooth="yes"/>
			<point x="654" y="758"/>
			<point x="644" y="746"/>
			<point x="644" y="728" type="curve" smooth="yes"/>
			<point x="644" y="703"/>
			<point x="666" y="689"/>
			<point x="666" y="658" type="curve" smooth="yes"/>
			<point x="666" y="623"/>
			<point x="627" y="602"/>
		</contour>
		<component base="U" xOffset="-2"/>
	</outline>
	<anchor name="bottom" x="344" y="51"/>
	<anchor name="top" x="340" y="613"/>
	<anchor name="ogonek" x="451" y="63"/>
</glyph>
<glyph name="uhorn" format="2">
	<unicode hex="01B0"/>
	<advance width="619"/>
	<outline>
		<contour>
			<point x="462" y="453" type="curve" smooth="yes"/>
			<point x="440" y="453"/>
			<point x="427" y="438"/>
			<point x="427" y="424" type="curve" smooth="yes"/>
			<point x="427" y="408"/>
			<point x="439" y="394"/>
			<point x="462" y="394" type="curve" smooth="yes"/>
			<point x="561" y="394"/>
			<point x="612" y="437"/>
			<point x="612" y="503" type="curve" smooth="yes"/>
			<point x="612" y="570"/>
			<point x="583" y="608"/>
			<point x="552" y="608" type="curve" smooth="yes"/>
			<point x="534" y="608"/>
			<point x="524" y="596"/>
			<point x="524" y="578" type="curve" smooth="yes"/>
			<point x="524" y="553"/>
			<point x="547" y="539"/>
			<point x="547" y="508" type="curve" smooth="yes"/>
			<point x="547" y="474"/>
			<point x="519" y="453"/>
		</contour>
		<component base="u"/>
	</outline>
	<anchor name="top" x="289" y="460"/>
	<anchor name="bottom" x="297" y="18"/>
</glyph>
<glyph name="Gcaron" format="2">
	<unicode hex="01E6"/>
	<advance width="667"/>
	<outline>
		<contour>
			<point x="55.2884615385" y="337.7073906486" type="line" smooth="yes"/>
			<point x="55.2884615385" y="171.5429948989"/>
			<point x="226.7571644042" y="-14.4230769231"/>
			<point x="371.6138763198" y="-14.4230769231" type="qcurve" smooth="yes"/>
			<point x="463.7285753462" y="-14.4230769231"/>
			<point x="591.210713862" y="39.100655255"/>
			<point x="628.7160633484" y="74.6323529412" type="qcurve"/>
			<point x="628.7160633484" y="335.4600301659" type="line"/>
			<point x="360.4619155354" y="335.4600301659" type="line"/>
			<point x="360.4619155354" y="286.8401206637" type="line"/>
			<point x="577.8601055807" y="286.8401206637" type="line"/>
			<point x="577.8601055807" y="95.7748868778" type="line"/>
			<point x="535.1691886627" y="64.0888822552"/>
			<point x="437.8898387854" y="35.1979638009"/>
			<point x="371.6138763198" y="35.1979638009" type="qcurve" smooth="yes"/>
			<point x="246.3195225738" y="35.1979638009"/>
			<point x="108.4954751131" y="191.3527044731"/>
			<point x="108.4954751131" y="337.7073906486" type="qcurve" smooth="yes"/>
			<point x="108.4954751131" y="362.2926093514" type="line" smooth="yes"/>
			<point x="108.4954751131" y="508.6480661888"/>
			<point x="246.5493106825" y="664.8020361991"/>
			<point x="354.6719457013" y="664.8020361991" type="qcurve" smooth="yes"/>
			<point x="463.011487965" y="664.8020361991"/>
			<point x="568.100807196" y="566.6249255026"/>
			<point x="574.7511312217" y="497.2850678733" type="qcurve" smooth="yes"/>
			<point x="575.2319004525" y="492.4773755656" type="line"/>
			<point x="628.3861236802" y="492.4773755656" type="line"/>
			<point x="627.9053544495" y="497.2850678733" type="line" smooth="yes"/>
			<point x="618.5803167421" y="594.8755656109"/>
			<point x="481.5613093739" y="714.4230769231"/>
			<point x="354.6719457013" y="714.4230769231" type="qcurve" smooth="yes"/>
			<point x="225.814479638" y="714.4230769231"/>
			<point x="55.2884615385" y="528.4653092006"/>
			<point x="55.2884615385" y="362.2926093514" type="qcurve" smooth="yes"/>
		</contour>
		<contour>
			<point x="329.9962292609" y="798.0769230769" type="line"/>
			<point x="376.1029411765" y="798.0769230769" type="line"/>
			<point x="529.9490950226" y="964.1025641025" type="line"/>
			<point x="472.5773001508" y="964.1025641025" type="line"/>
			<point x="352.8846153846" y="837.7450980392" type="line"/>
			<point x="238.6312217195" y="964.1025641025" type="line"/>
			<point x="180.1470588235" y="964.1025641025" type="line"/>
		</contour>
	</outline>
</glyph>
<glyph name="Odieresismacron" format="2">
	<unicode hex="022A"/>
	<advance width="721"/>
	<outline>
		<contour>
			<point x="55.2884615385" y="337.641402715" type="line" smooth="yes"/>
			<point x="55.2884615385" y="171.3895173454"/>
			<point x="226.2631975867" y="-14.4230769231"/>
			<point x="360.435520362" y="-14.4230769231" type="qcurve" smooth="yes"/>
			<point x="494.6078431373" y="-14.4230769231"/>
			<point x="665.1018099548" y="171.3895173454"/>
			<point x="665.1018099548" y="337.641402715" type="qcurve" smooth="yes"/>
			<point x="665.1018099548" y="362.358597285" type="line" smooth="yes"/>
			<point x="665.1018099548" y="528.6104826546"/>
			<point x="494.6078431373" y="714.4230769231"/>
			<point x="360.435520362" y="714.4230769231" type="qcurve" smooth="yes"/>
			<point x="225.9332579186" y="714.4230769231"/>
			<point x="55.2884615385" y="528.6104826546"/>
			<point x="55.2884615385" y="362.358597285" type="qcurve" smooth="yes"/>
		</contour>
		<contour>
			<point x="108.5878582202" y="337.641402715" type="qcurve" smooth="yes"/>
			<point x="108.5878582202" y="362.358597285" type="line" smooth="yes"/>
			<point x="108.5878582202" y="510.6429110106"/>
			<point x="247.4453242836" y="664.6964555053"/>
			<point x="360.435520362" y="664.6964555053" type="qcurve" smooth="yes"/>
			<point x="472.9449472097" y="664.6964555053"/>
			<point x="611.802413273" y="510.6429110106"/>
			<point x="611.802413273" y="362.358597285" type="qcurve" smooth="yes"/>
			<point x="611.802413273" y="337.641402715" type="line" smooth="yes"/>
			<point x="611.802413273" y="189.3570889894"/>
			<point x="472.9449472097" y="35.3035444947"/>
			<point x="360.435520362" y="35.3035444947" type="qcurve" smooth="yes"/>
			<point x="247.4453242836" y="35.3035444947"/>
			<point x="108.5878582202" y="189.3570889894"/>
		</contour>
		<contour>
			<point x="187.0899321267" y="813.4049773756" type="qcurve" smooth="yes"/>
			<point x="187.0899321267" y="796.6063348416"/>
			<point x="212.6838235294" y="775.9615384615"/>
			<point x="234.5823906486" y="775.9615384615" type="qcurve" smooth="yes"/>
			<point x="258.2532051282" y="775.9615384615"/>
			<point x="282.4047888386" y="795.6447963801"/>
			<point x="282.4047888386" y="813.4049773756" type="qcurve" smooth="yes"/>
			<point x="282.4047888386" y="830.5335595777"/>
			<point x="256.4809577677" y="851.6591251886"/>
			<point x="234.5823906486" y="851.6591251886" type="qcurve" smooth="yes"/>
			<point x="211.7222850679" y="851.6591251886"/>
			<point x="187.0899321267" y="831.97586727"/>
		</contour>
		<contour>
			<point x="438.5982277526" y="813.4049773756" type="qcurve" smooth="yes"/>
			<point x="438.5982277526" y="796.6063348416"/>
			<point x="464.1921191553" y="775.9615384615"/>
			<point x="486.0906862745" y="775.9615384615" type="qcurve" smooth="yes"/>
			<point x="509.7615007541" y="775.9615384615"/>
			<point x="533.9130844646" y="795.6447963801"/>
			<point x="533.9130844646" y="813.4049773756" type="qcurve" smooth="yes"/>
			<point x="533.9130844646" y="830.5335595777"/>
			<point x="507.9892533937" y="851.6591251886"/>
			<point x="486.0906862745" y="851.6591251886" type="qcurve" smooth="yes"/>
			<point x="463.2305806938" y="851.6591251886"/>
			<point x="438.5982277526" y="831.97586727"/>
		</contour>
		<contour>
			<point x="192.5480769231" y="949.7360482655" type="line"/>
			<point x="528.125" y="949.7360482655" type="line"/>
			<point x="528.125" y="995.8898944193" type="line"/>
			<point x="192.5480769231" y="995.8898944193" type="line"/>
		</contour>
	</outline>
</glyph>
<glyph name="otildemacron" format="2">
	<unicode hex="022D"/>
	<advance width="595"/>
	<outline>
		<contour>
			<point x="40.8653846154" y="254.1153846154" type="line" smooth="yes"/>
			<point x="40.8653846154" y="135.7595441596"/>
			<point x="180.5859728507" y="-14.4230769231"/>
			<point x="297.2986425339" y="-14.4230769231" type="qcurve" smooth="yes"/>
			<point x="414.0113122172" y="-14.4230769231"/>
			<point x="553.7319004525" y="135.7595441596"/>
			<point x="553.7319004525" y="254.1153846154" type="qcurve" smooth="yes"/>
			<point x="553.7319004525" y="269.5" type="line" smooth="yes"/>
			<point x="553.7319004525" y="387.8381801125"/>
			<point x="414.0113122172" y="538.0384615385"/>
			<point x="297.2986425339" y="538.0384615385" type="qcurve" smooth="yes"/>
			<point x="180.5859728507" y="538.0384615385"/>
			<point x="40.8653846154" y="387.8381801125"/>
			<point x="40.8653846154" y="269.5" type="qcurve" smooth="yes"/>
		</contour>
		<contour>
			<point x="92.9502262443" y="269.5" type="qcurve" smooth="yes"/>
			<point x="92.9502262443" y="254.1153846154" type="line" smooth="yes"/>
			<point x="92.9502262443" y="161.8181298689"/>
			<point x="196.8774509804" y="34.0950226244"/>
			<point x="297.2986425339" y="34.0950226244" type="qcurve" smooth="yes"/>
			<point x="397.7198340875" y="34.0950226244"/>
			<point x="501.6470588235" y="161.8181298689"/>
			<point x="501.6470588235" y="254.1153846154" type="qcurve" smooth="yes"/>
			<point x="501.6470588235" y="269.5" type="line" smooth="yes"/>
			<point x="501.6470588235" y="361.833746319"/>
			<point x="397.7198340875" y="489.520361991"/>
			<point x="297.2986425339" y="489.520361991" type="qcurve" smooth="yes"/>
			<point x="196.8774509804" y="489.520361991"/>
			<point x="92.9502262443" y="361.833746319"/>
		</contour>
		<contour>
			<point x="107.7064479638" y="652.3095776772" type="qcurve"/>
			<point x="135.7324660634" y="622.9260935143" type="line"/>
			<point x="145.8569004525" y="638.4898190045"/>
			<point x="192.0013197587" y="674.9057315234"/>
			<point x="218.8584087481" y="674.9057315234" type="qcurve" smooth="yes"/>
			<point x="235.4119532428" y="674.9057315234"/>
			<point x="274.1657239819" y="656.9381598793"/>
			<point x="293.7829939668" y="646.6628959276" type="qcurve" smooth="yes"/>
			<point x="311.4771870287" y="638.0090497738"/>
			<point x="365.012254902" y="615.3846153846"/>
			<point x="399.0808823529" y="615.3846153846" type="qcurve" smooth="yes"/>
			<point x="434.2901583711" y="615.3846153846"/>
			<point x="491.9070512821" y="648.4351432881"/>
			<point x="507.6781674208" y="680.3733031674" type="qcurve"/>
			<point x="477.8799019608" y="708.314479638" type="line"/>
			<point x="464.6917420814" y="689.3853695325"/>
			<point x="423.8640648567" y="660.1809954751"/>
			<point x="401.032239819" y="660.1809954751" type="qcurve" smooth="yes"/>
			<point x="379.1619532428" y="660.1809954751"/>
			<point x="334.7897812971" y="677.5169683258"/>
			<point x="315.3233408748" y="689.2345399699" type="qcurve" smooth="yes"/>
			<point x="294.2637631976" y="701.5837104073"/>
			<point x="251.3338989442" y="720.0320512821"/>
			<point x="228.0213046757" y="720.0320512821" type="qcurve" smooth="yes"/>
			<point x="189.7483031674" y="720.0320512821"/>
			<point x="126.032239819" y="685.8408748114"/>
		</contour>
		<contour>
			<point x="463.0703242836" y="856.0886123681" type="line"/>
			<point x="131.641214178" y="856.0886123681" type="line"/>
			<point x="131.641214178" y="811.8012820513" type="line"/>
			<point x="463.0703242836" y="811.8012820513" type="line"/>
		</contour>
	</outline>
</glyph>
<glyph name="Ymacron" format="2">
	<unicode hex="0232"/>
	<advance width="618"/>
	<outline>
		<contour>
			<point x="282.5773001508" y="0" type="line"/>
			<point x="334.4664404223" y="0" type="line"/>
			<point x="334.4664404223" y="275.0773001508" type="line"/>
			<point x="610.492081448" y="700" type="line"/>
			<point x="549.6134992459" y="700" type="line"/>
			<point x="349.1327300151" y="381.5516591252" type="line" smooth="yes"/>
			<point x="339.8190045249" y="367.4585218703"/>
			<point x="322.124811463" y="338.282428356"/>
			<point x="313.5935143288" y="323.5294117647" type="qcurve"/>
			<point x="308.7858220211" y="323.5294117647" type="line"/>
			<point x="300.584464555" y="338.282428356"/>
			<point x="283.5501508296" y="367.1285822021"/>
			<point x="273.9064856712" y="381.5516591252" type="qcurve" smooth="yes"/>
			<point x="70.9653092006" y="700" type="line"/>
			<point x="7.2115384615" y="700" type="line"/>
			<point x="282.5773001508" y="275.0773001508" type="line"/>
		</contour>
		<contour>
			<point x="127.0126319759" y="804.8076923077" type="line"/>
			<point x="491.1057692308" y="804.8076923077" type="line"/>
			<point x="491.1057692308" y="850.7447209653" type="line"/>
			<point x="127.0126319759" y="850.7447209653" type="line"/>
		</contour>
	</outline>
</glyph>
<glyph name="apostrophemod" format="2">
	<unicode hex="02BC"/>
	<advance width="288"/>
	<outline>
		<contour>
			<point x="74.5192307692" y="510.5769230769" type="qcurve"/>
			<point x="90.8653846154" y="487.0192307692" type="line"/>
			<point x="131.25" y="511.0576923077"/>
			<point x="192.7884615385" y="613.9423076923"/>
			<point x="192.7884615385" y="667.3076923077" type="qcurve" smooth="yes"/>
			<point x="192.7884615385" y="700.9615384615"/>
			<point x="155.7692307692" y="743.2692307692"/>
			<point x="133.1730769231" y="743.2692307692" type="qcurve" smooth="yes"/>
			<point x="108.6538461538" y="743.2692307692"/>
			<point x="77.4038461538" y="709.6153846154"/>
			<point x="77.4038461538" y="684.1346153846" type="qcurve" smooth="yes"/>
			<point x="77.4038461538" y="658.1730769231"/>
			<point x="108.1730769231" y="625.4807692308"/>
			<point x="135.5769230769" y="625.4807692308" type="qcurve"/>
			<point x="129.8076923077" y="595.6730769231"/>
			<point x="89.9038461538" y="525"/>
		</contour>
	</outline>
</glyph>
<glyph name="gravecomb" format="2">
  <unicode hex="0300"/>
  <anchor x="0" y="522" name="_side"/>
  <anchor x="0" y="485" name="_top"/>
  <outline>
    <contour>
      <point x="41" y="593" type="curve" smooth="yes"/>
      <point x="41" y="625.286"/>
      <point x="-20.371" y="619.654"/>
      <point x="-50" y="706" type="curve" smooth="yes"/>
      <point x="-69" y="755"/>
      <point x="-78" y="764"/>
      <point x="-104" y="764" type="curve" smooth="yes"/>
      <point x="-130" y="764"/>
      <point x="-141" y="748"/>
      <point x="-141" y="724" type="curve" smooth="yes"/>
      <point x="-141" y="656.444"/>
      <point x="-60.581" y="564"/>
      <point x="11" y="564" type="curve" smooth="yes"/>
      <point x="32" y="564"/>
      <point x="41" y="575"/>
    </contour>
  </outline>
</glyph>
<glyph name="acutecomb" format="2">
	<unicode hex="0301"/>
	<outline>
		<contour>
			<point x="108" y="816"/>
			<point x="79" y="816" type="curve" smooth="yes"/>
			<point x="63" y="816"/>
			<point x="52" y="807"/>
			<point x="43" y="771" type="curve" smooth="yes"/>
			<point x="31" y="723"/>
			<point x="16" y="704"/>
			<point x="-31" y="670" type="curve" smooth="yes"/>
			<point x="-59" y="650"/>
			<point x="-75" y="641"/>
			<point x="-75" y="622" type="curve" smooth="yes"/>
			<point x="-75" y="606.8214285714"/>
			<point x="-63" y="597"/>
			<point x="-41" y="597" type="curve" smooth="yes"/>
			<point x="31" y="597"/>
			<point x="120" y="686"/>
			<point x="120" y="775" type="curve" smooth="yes"/>
			<point x="120" y="801"/>
		</contour>
	</outline>
	<anchor name="_top" x="0" y="515"/>
</glyph>
<glyph name="circumflexcomb" format="2">
	<unicode hex="0302"/>
	<image fileName="accents.png" xScale="8.3736395703" yScale="8.3736395703" xOffset="-1726.4771943907" yOffset="-810.5627197247" color="0,0,0,0.26066"/>
	<outline>
		<contour>
			<point x="-7" y="685" type="line"/>
			<point x="72" y="572"/>
			<point x="104" y="554"/>
			<point x="149" y="554" type="curve" smooth="yes"/>
			<point x="169" y="554"/>
			<point x="182" y="564"/>
			<point x="182" y="581" type="curve" smooth="yes"/>
			<point x="182" y="611"/>
			<point x="138" y="606"/>
			<point x="75" y="700" type="curve" smooth="yes"/>
			<point x="48" y="741"/>
			<point x="31" y="751"/>
			<point x="2" y="751" type="curve" smooth="yes"/>
			<point x="-37" y="751"/>
			<point x="-40" y="728"/>
			<point x="-102" y="672" type="curve" smooth="yes"/>
			<point x="-174" y="608"/>
			<point x="-181" y="598"/>
			<point x="-181" y="585" type="curve" smooth="yes"/>
			<point x="-181" y="570"/>
			<point x="-168" y="557"/>
			<point x="-146" y="557" type="curve" smooth="yes"/>
			<point x="-124" y="557"/>
			<point x="-104" y="563"/>
			<point x="10" y="686" type="curve"/>
		</contour>
	</outline>
	<anchor name="_top" x="0" y="485"/>
	<anchor name="side" x="170" y="689"/>
	<anchor name="top" x="0" y="681"/>
</glyph>
<glyph name="tildecomb" format="2">
	<unicode hex="0303"/>
	<image fileName="S_creen S_hot 2020-09-24 at 10.58.01 P_M_.png" xScale="5.88565" yScale="5.88565" xOffset="-8568.991" yOffset="-705.564"/>
	<outline>
		<contour>
			<point x="-161" y="600" type="curve" smooth="yes"/>
			<point x="-118" y="600"/>
			<point x="-156" y="693"/>
			<point x="-92" y="693" type="curve" smooth="yes"/>
			<point x="-31" y="693"/>
			<point x="-1" y="589"/>
			<point x="86" y="589" type="curve" smooth="yes"/>
			<point x="157" y="589"/>
			<point x="198" y="642"/>
			<point x="198" y="718" type="curve" smooth="yes"/>
			<point x="198" y="754"/>
			<point x="183" y="766"/>
			<point x="164" y="766" type="curve" smooth="yes"/>
			<point x="120" y="766"/>
			<point x="158" y="660"/>
			<point x="86" y="660" type="curve" smooth="yes"/>
			<point x="38" y="660"/>
			<point x="12" y="765"/>
			<point x="-90" y="765" type="curve" smooth="yes"/>
			<point x="-172" y="765"/>
			<point x="-198" y="701"/>
			<point x="-198" y="649" type="curve" smooth="yes"/>
			<point x="-198" y="620"/>
			<point x="-182" y="600"/>
		</contour>
	</outline>
	<anchor name="_top" x="0" y="485"/>
	<anchor name="top" x="0" y="700"/>
</glyph>
<glyph name="brevecomb" format="2">
  <unicode hex="0306"/>
  <anchor x="0" y="485" name="_top"/>
  <anchor x="0" y="703" name="top"/>
  <outline>
    <contour>
      <point x="0" y="636" type="curve" smooth="yes"/>
      <point x="-49.398" y="636"/>
      <point x="-88" y="657"/>
      <point x="-98" y="706" type="curve" smooth="yes"/>
      <point x="-108" y="753"/>
      <point x="-118" y="764"/>
      <point x="-139" y="764" type="curve" smooth="yes"/>
      <point x="-162" y="764"/>
      <point x="-174" y="751"/>
      <point x="-174" y="711" type="curve" smooth="yes"/>
      <point x="-174" y="638.342"/>
      <point x="-114.766" y="571"/>
      <point x="-1" y="571" type="curve" smooth="yes"/>
      <point x="116.933" y="571"/>
      <point x="173" y="642.899"/>
      <point x="173" y="729" type="curve" smooth="yes"/>
      <point x="173" y="757"/>
      <point x="163" y="769"/>
      <point x="144" y="769" type="curve" smooth="yes"/>
      <point x="124" y="769"/>
      <point x="115" y="757"/>
      <point x="104" y="707" type="curve" smooth="yes"/>
      <point x="91" y="655"/>
      <point x="51.972" y="636"/>
    </contour>
  </outline>
</glyph>
<glyph name="dotaccentcmb" format="2">
	<unicode hex="0307"/>
	<outline>
		<contour>
			<point x="-9" y="587" type="curve" smooth="yes"/>
			<point x="39" y="587"/>
			<point x="64" y="619"/>
			<point x="64" y="655" type="curve" smooth="yes"/>
			<point x="64" y="682"/>
			<point x="42" y="711"/>
			<point x="1" y="711" type="curve" smooth="yes"/>
			<point x="-37" y="711"/>
			<point x="-67" y="678"/>
			<point x="-67" y="641" type="curve" smooth="yes"/>
			<point x="-67" y="611"/>
			<point x="-45" y="587"/>
		</contour>
	</outline>
	<anchor name="_top" x="0" y="484"/>
	<anchor name="top" x="0" y="650"/>
</glyph>
<glyph name="dieresiscomb" format="2">
	<unicode hex="0308"/>
	<outline>
		<contour>
			<point x="-114" y="584" type="curve" smooth="yes"/>
			<point x="-69" y="584"/>
			<point x="-50" y="603"/>
			<point x="-50" y="635" type="curve" smooth="yes"/>
			<point x="-50" y="672"/>
			<point x="-75" y="714"/>
			<point x="-127" y="714" type="curve" smooth="yes"/>
			<point x="-159" y="714"/>
			<point x="-181" y="689"/>
			<point x="-181" y="658" type="curve" smooth="yes"/>
			<point x="-181" y="617"/>
			<point x="-154" y="584"/>
		</contour>
		<contour>
			<point x="117" y="594" type="curve" smooth="yes"/>
			<point x="163" y="594"/>
			<point x="181" y="621"/>
			<point x="181" y="642" type="curve" smooth="yes"/>
			<point x="181" y="676"/>
			<point x="153" y="718"/>
			<point x="108" y="718" type="curve" smooth="yes"/>
			<point x="75" y="718"/>
			<point x="50" y="694"/>
			<point x="50" y="663" type="curve" smooth="yes"/>
			<point x="50" y="628"/>
			<point x="81" y="594"/>
		</contour>
	</outline>
	<anchor name="_top" x="0" y="485"/>
	<anchor name="top" x="-1" y="660"/>
</glyph>
<glyph name="hookabovecmb" format="2">
	<unicode hex="0309"/>
	<outline>
		<contour>
			<point x="9" y="553" type="curve" smooth="yes"/>
			<point x="81" y="553"/>
			<point x="138" y="593"/>
			<point x="138" y="655" type="curve" smooth="yes"/>
			<point x="138" y="717"/>
			<point x="95" y="762"/>
			<point x="22" y="762" type="curve" smooth="yes"/>
			<point x="-56" y="762"/>
			<point x="-94" y="737"/>
			<point x="-94" y="709" type="curve" smooth="yes"/>
			<point x="-94" y="695"/>
			<point x="-86" y="685"/>
			<point x="-65" y="685" type="curve" smooth="yes"/>
			<point x="-42" y="685"/>
			<point x="-27" y="697"/>
			<point x="18" y="697" type="curve" smooth="yes"/>
			<point x="52" y="697"/>
			<point x="68" y="682"/>
			<point x="68" y="656" type="curve" smooth="yes"/>
			<point x="68" y="598"/>
			<point x="-31" y="623"/>
			<point x="-31" y="581" type="curve" smooth="yes"/>
			<point x="-31" y="566"/>
			<point x="-20" y="553"/>
		</contour>
	</outline>
	<anchor name="_top" x="0" y="485"/>
	<anchor name="_side" x="0" y="522"/>
	<anchor name="top" x="0" y="710"/>
</glyph>
<glyph name="ringcomb" format="2">
	<unicode hex="030A"/>
	<outline>
		<contour>
			<point x="9" y="583" type="curve" smooth="yes"/>
			<point x="102" y="583"/>
			<point x="173" y="652"/>
			<point x="173" y="745" type="curve" smooth="yes"/>
			<point x="173" y="832"/>
			<point x="113" y="892"/>
			<point x="10" y="892" type="curve" smooth="yes"/>
			<point x="-72" y="892"/>
			<point x="-118" y="853"/>
			<point x="-118" y="805" type="curve" smooth="yes"/>
			<point x="-118" y="786"/>
			<point x="-110" y="783"/>
			<point x="-93" y="783" type="curve" smooth="yes"/>
			<point x="-66" y="783"/>
			<point x="-59" y="829"/>
			<point x="16" y="829" type="curve" smooth="yes"/>
			<point x="69" y="829"/>
			<point x="102" y="794"/>
			<point x="102" y="747" type="curve" smooth="yes"/>
			<point x="102" y="682"/>
			<point x="67" y="646"/>
			<point x="1" y="646" type="curve" smooth="yes"/>
			<point x="-59" y="646"/>
			<point x="-102" y="681"/>
			<point x="-102" y="736" type="curve" smooth="yes"/>
			<point x="-102" y="786"/>
			<point x="-84" y="817"/>
			<point x="-26" y="838" type="curve" smooth="yes"/>
			<point x="0" y="847"/>
			<point x="9" y="855"/>
			<point x="9" y="869" type="curve" smooth="yes"/>
			<point x="9" y="889"/>
			<point x="1" y="899"/>
			<point x="-21" y="899" type="curve" smooth="yes"/>
			<point x="-102" y="899"/>
			<point x="-173" y="825"/>
			<point x="-173" y="745" type="curve" smooth="yes"/>
			<point x="-173" y="647"/>
			<point x="-107" y="583"/>
		</contour>
	</outline>
	<anchor name="_top" x="0" y="515"/>
	<anchor name="top" x="0" y="758"/>
</glyph>
<glyph name="hungarumlautcmb" format="2">
	<unicode hex="030B"/>
	<outline>
		<contour>
			<point x="-14" y="754" type="curve" smooth="yes"/>
			<point x="-32" y="754"/>
			<point x="-44" y="744"/>
			<point x="-50" y="718" type="curve" smooth="yes"/>
			<point x="-57.974" y="686.106"/>
			<point x="-64.752" y="671.578"/>
			<point x="-87" y="639" type="curve" smooth="yes"/>
			<point x="-108" y="608"/>
			<point x="-113" y="594"/>
			<point x="-113" y="581" type="curve" smooth="yes"/>
			<point x="-113" y="566"/>
			<point x="-103" y="558"/>
			<point x="-89" y="558" type="curve" smooth="yes"/>
			<point x="-49.44" y="558"/>
			<point x="26" y="648.475"/>
			<point x="26" y="715" type="curve" smooth="yes"/>
			<point x="26" y="742"/>
			<point x="11" y="754"/>
		</contour>
		<contour>
			<point x="161" y="769" type="curve" smooth="yes"/>
			<point x="142" y="769"/>
			<point x="131" y="758"/>
			<point x="124" y="730" type="curve" smooth="yes"/>
			<point x="114.129" y="691.338"/>
			<point x="106.386" y="668.618"/>
			<point x="86" y="636" type="curve" smooth="yes"/>
			<point x="72" y="614"/>
			<point x="65" y="600"/>
			<point x="65" y="584" type="curve" smooth="yes"/>
			<point x="65" y="570"/>
			<point x="73" y="563"/>
			<point x="88" y="563" type="curve" smooth="yes"/>
			<point x="132.984" y="563"/>
			<point x="200" y="645.891"/>
			<point x="200" y="727" type="curve" smooth="yes"/>
			<point x="200" y="756"/>
			<point x="185" y="769"/>
		</contour>
	</outline>
	<anchor name="_top" x="0" y="485"/>
</glyph>
<glyph name="commaturnedabovecmb" format="2">
	<unicode hex="0312"/>
	<outline>
		<contour>
			<point x="-49" y="613"/>
			<point x="-30" y="597"/>
			<point x="0" y="597" type="curve" smooth="yes"/>
			<point x="24" y="597"/>
			<point x="35" y="612"/>
			<point x="35" y="646" type="curve" smooth="yes"/>
			<point x="35" y="683"/>
			<point x="40" y="711"/>
			<point x="56" y="742" type="curve" smooth="yes"/>
			<point x="72" y="773"/>
			<point x="75" y="783"/>
			<point x="75" y="795" type="curve" smooth="yes"/>
			<point x="75" y="809"/>
			<point x="65" y="818"/>
			<point x="48" y="818" type="curve" smooth="yes"/>
			<point x="31" y="818"/>
			<point x="14" y="811"/>
			<point x="-1" y="791" type="curve" smooth="yes"/>
			<point x="-32" y="752"/>
			<point x="-49" y="695"/>
			<point x="-49" y="658" type="curve" smooth="yes"/>
		</contour>
	</outline>
	<anchor name="_top" x="0" y="485"/>
</glyph>
<glyph name="commaaccentbelowcmb" format="2">
	<unicode hex="0326"/>
	<outline>
		<contour>
			<point x="-1" y="-103" type="curve" smooth="yes"/>
			<point x="-27" y="-103"/>
			<point x="-38" y="-119"/>
			<point x="-38" y="-154" type="curve" smooth="yes"/>
			<point x="-38" y="-193"/>
			<point x="-44" y="-222"/>
			<point x="-61" y="-254" type="curve" smooth="yes"/>
			<point x="-78" y="-287"/>
			<point x="-81" y="-297"/>
			<point x="-81" y="-310" type="curve" smooth="yes"/>
			<point x="-81" y="-325"/>
			<point x="-71" y="-334"/>
			<point x="-52" y="-334" type="curve" smooth="yes"/>
			<point x="-34" y="-334"/>
			<point x="-17" y="-327"/>
			<point x="0" y="-306" type="curve" smooth="yes"/>
			<point x="33" y="-265"/>
			<point x="51" y="-205"/>
			<point x="51" y="-167" type="curve" smooth="yes"/>
			<point x="51" y="-120"/>
			<point x="31" y="-103"/>
		</contour>
	</outline>
	<anchor name="_bottom" x="0" y="0"/>
</glyph>
<glyph name="cedillacomb" format="2">
  <unicode hex="0327"/>
  <image fileName="S_creen S_hot 2020-09-24 at 10.58.01 P_M_.png" xScale="5.8856538257" yScale="5.8856538257" xOffset="-13240.9909182198" yOffset="-705.563910406" color="0,0,0,0.31859"/>
  <anchor x="1" y="0" name="_bottom"/>
  <outline>
    <contour>
      <point x="103" y="-84" type="curve" smooth="yes"/>
      <point x="103" y="-6"/>
      <point x="50" y="45"/>
      <point x="-17" y="45" type="curve" smooth="yes"/>
      <point x="-39" y="45"/>
      <point x="-51" y="35"/>
      <point x="-51" y="4" type="curve"/>
      <point x="20" y="-13"/>
      <point x="32" y="-43.6933333333"/>
      <point x="32" y="-69" type="curve" smooth="yes"/>
      <point x="32" y="-116"/>
      <point x="8.6057584753" y="-139.915486396"/>
      <point x="-88" y="-145" type="curve" smooth="yes"/>
      <point x="-126.9856722993" y="-146.9992652461"/>
      <point x="-136" y="-154"/>
      <point x="-136" y="-172" type="curve" smooth="yes"/>
      <point x="-136" y="-198"/>
      <point x="-115" y="-214"/>
      <point x="-75" y="-214" type="curve" smooth="yes"/>
      <point x="39" y="-214"/>
      <point x="103" y="-152"/>
    </contour>
  </outline>
</glyph>
<glyph name="ogonekcmb" format="2">
  <unicode hex="0328"/>
  <guideline x="26" y="-177" angle="48.145" identifier="4uLH7EeGYo"/>
  <anchor x="56" y="0" name="_ogonek"/>
  <outline>
    <contour>
      <point x="-107" y="-136" type="curve" smooth="yes"/>
      <point x="-107" y="-214"/>
      <point x="-61" y="-256"/>
      <point x="43" y="-256" type="curve" smooth="yes"/>
      <point x="87" y="-256"/>
      <point x="112" y="-246"/>
      <point x="112" y="-220" type="curve" smooth="yes"/>
      <point x="112" y="-202"/>
      <point x="98" y="-192"/>
      <point x="57" y="-192" type="curve" smooth="yes"/>
      <point x="-16" y="-192"/>
      <point x="-40" y="-169"/>
      <point x="-40" y="-126" type="curve" smooth="yes"/>
      <point x="-40" y="-77"/>
      <point x="-12" y="-30"/>
      <point x="40" y="-8" type="curve" smooth="yes"/>
      <point x="61" y="1"/>
      <point x="65" y="6"/>
      <point x="65" y="16" type="curve" smooth="yes"/>
      <point x="65" y="27"/>
      <point x="57" y="34"/>
      <point x="44" y="34" type="curve" smooth="yes"/>
      <point x="-39" y="34"/>
      <point x="-107" y="-47"/>
    </contour>
  </outline>
</glyph>
<glyph name="Omega" format="2">
  <advance width="843"/>
  <unicode hex="03A9"/>
  <outline>
    <contour>
      <point x="56" y="50" type="curve" smooth="yes"/>
      <point x="33" y="50"/>
      <point x="18" y="39"/>
      <point x="18" y="23" type="curve" smooth="yes"/>
      <point x="18" y="1"/>
      <point x="34" y="-19"/>
      <point x="68" y="-20" type="curve" smooth="yes"/>
      <point x="146" y="-21"/>
      <point x="228" y="-5"/>
      <point x="331" y="0" type="curve" smooth="yes"/>
      <point x="350" y="1"/>
      <point x="364" y="17"/>
      <point x="364" y="35" type="curve" smooth="yes"/>
      <point x="364" y="108"/>
      <point x="161" y="242"/>
      <point x="161" y="462" type="curve" smooth="yes"/>
      <point x="161" y="574"/>
      <point x="251" y="640"/>
      <point x="413" y="640" type="curve" smooth="yes"/>
      <point x="549" y="640"/>
      <point x="668" y="604"/>
      <point x="668" y="480" type="curve" smooth="yes"/>
      <point x="668" y="301"/>
      <point x="466" y="160"/>
      <point x="466" y="53" type="curve" smooth="yes"/>
      <point x="466" y="10"/>
      <point x="493" y="-11"/>
      <point x="543" y="-11" type="curve" smooth="yes"/>
      <point x="574" y="-11"/>
      <point x="607" y="-3"/>
      <point x="639" y="-3" type="curve" smooth="yes"/>
      <point x="727" y="-3"/>
      <point x="736" y="-20"/>
      <point x="784" y="-20" type="curve" smooth="yes"/>
      <point x="804" y="-20"/>
      <point x="826" y="-12"/>
      <point x="826" y="14" type="curve" smooth="yes"/>
      <point x="826" y="43"/>
      <point x="786" y="67"/>
      <point x="639" y="67" type="curve" smooth="yes"/>
      <point x="600" y="67"/>
      <point x="560" y="63"/>
      <point x="517" y="57" type="curve"/>
      <point x="536" y="39" type="line"/>
      <point x="525" y="138"/>
      <point x="738" y="261"/>
      <point x="738" y="480" type="curve" smooth="yes"/>
      <point x="738" y="635"/>
      <point x="613" y="710"/>
      <point x="413" y="710" type="curve" smooth="yes"/>
      <point x="183" y="710"/>
      <point x="91" y="604"/>
      <point x="91" y="462" type="curve" smooth="yes"/>
      <point x="91" y="269"/>
      <point x="204" y="178"/>
      <point x="299" y="17" type="curve"/>
      <point x="327" y="70" type="line"/>
      <point x="226" y="65"/>
      <point x="145" y="50"/>
    </contour>
  </outline>
</glyph>
<glyph name="pi" format="2">
  <advance width="700"/>
  <unicode hex="03C0"/>
  <outline>
    <contour>
      <point x="468" y="136" type="curve" smooth="yes"/>
      <point x="468" y="250"/>
      <point x="484" y="335"/>
      <point x="503" y="407" type="curve" smooth="yes"/>
      <point x="515" y="451"/>
      <point x="512" y="475"/>
      <point x="491" y="475" type="curve" smooth="yes"/>
      <point x="460" y="475"/>
      <point x="447" y="448"/>
      <point x="434" y="394" type="curve" smooth="yes"/>
      <point x="419" y="332"/>
      <point x="401" y="242"/>
      <point x="401" y="132" type="curve" smooth="yes"/>
      <point x="401" y="45"/>
      <point x="433" y="-13"/>
      <point x="521" y="-13" type="curve" smooth="yes"/>
      <point x="606" y="-13"/>
      <point x="654" y="14"/>
      <point x="654" y="43" type="curve" smooth="yes"/>
      <point x="654" y="58"/>
      <point x="646" y="66"/>
      <point x="631" y="66" type="curve" smooth="yes"/>
      <point x="601" y="66"/>
      <point x="603" y="53"/>
      <point x="518" y="53" type="curve" smooth="yes"/>
      <point x="485" y="53"/>
      <point x="468" y="74"/>
    </contour>
    <contour>
      <point x="226" y="-11" type="curve" smooth="yes"/>
      <point x="242" y="-11"/>
      <point x="250" y="0"/>
      <point x="248" y="35" type="curve" smooth="yes"/>
      <point x="246" y="64"/>
      <point x="244" y="122"/>
      <point x="244" y="189" type="curve" smooth="yes"/>
      <point x="244" y="266"/>
      <point x="249" y="358"/>
      <point x="261" y="425" type="curve" smooth="yes"/>
      <point x="267" y="458"/>
      <point x="244" y="476"/>
      <point x="220" y="476" type="curve" smooth="yes"/>
      <point x="199" y="476"/>
      <point x="189" y="460"/>
      <point x="186" y="436" type="curve" smooth="yes"/>
      <point x="176" y="353"/>
      <point x="172" y="293"/>
      <point x="172" y="194" type="curve" smooth="yes"/>
      <point x="172" y="157"/>
      <point x="174" y="104"/>
      <point x="182" y="42" type="curve" smooth="yes"/>
      <point x="188" y="7"/>
      <point x="203" y="-11"/>
    </contour>
    <contour>
      <point x="107" y="412" type="curve" smooth="yes"/>
      <point x="175.548" y="412"/>
      <point x="286.044" y="429"/>
      <point x="594" y="429" type="curve" smooth="yes"/>
      <point x="626" y="429"/>
      <point x="645" y="440"/>
      <point x="645" y="458" type="curve" smooth="yes"/>
      <point x="645" y="476"/>
      <point x="626" y="492"/>
      <point x="561" y="492" type="curve" smooth="yes"/>
      <point x="402" y="492"/>
      <point x="251.884" y="490.993"/>
      <point x="87" y="481" type="curve" smooth="yes"/>
      <point x="62" y="479"/>
      <point x="55" y="463"/>
      <point x="55" y="452" type="curve" smooth="yes"/>
      <point x="55" y="432"/>
      <point x="73.159" y="412"/>
    </contour>
  </outline>
</glyph>
<glyph name="Djecyr" format="2">
	<unicode hex="0402"/>
	<advance width="794"/>
	<outline>
		<contour>
			<point x="713" y="157" type="curve" smooth="yes"/>
			<point x="713" y="264"/>
			<point x="671.1633986928" y="439"/>
			<point x="540" y="439" type="curve" smooth="yes"/>
			<point x="439" y="439"/>
			<point x="319" y="312.1834319527"/>
			<point x="256" y="135" type="curve"/>
			<point x="277" y="132" type="line"/>
			<point x="270" y="213.6989690722"/>
			<point x="258" y="326.8206185567"/>
			<point x="273" y="513" type="curve" smooth="yes"/>
			<point x="278" y="592"/>
			<point x="271" y="617"/>
			<point x="242" y="617" type="curve" smooth="yes"/>
			<point x="225" y="617"/>
			<point x="215" y="599"/>
			<point x="213" y="573" type="curve" smooth="yes"/>
			<point x="189" y="337.6323529412"/>
			<point x="200" y="201.4444444444"/>
			<point x="210" y="133" type="curve" smooth="yes"/>
			<point x="221" y="56"/>
			<point x="238" y="31"/>
			<point x="260" y="31" type="curve" smooth="yes"/>
			<point x="285" y="31"/>
			<point x="289" y="52"/>
			<point x="304" y="88" type="curve" smooth="yes"/>
			<point x="378" y="265"/>
			<point x="471" y="358.5993883792"/>
			<point x="547" y="381" type="curve"/>
			<point x="600.2" y="338.1951219512"/>
			<point x="642" y="262"/>
			<point x="642" y="156" type="curve" smooth="yes"/>
			<point x="642" y="-9.2352941176"/>
			<point x="579" y="-81.9803921569"/>
			<point x="523" y="-109" type="curve" smooth="yes"/>
			<point x="497" y="-121"/>
			<point x="470" y="-128"/>
			<point x="470" y="-144" type="curve" smooth="yes"/>
			<point x="470" y="-157"/>
			<point x="480" y="-177"/>
			<point x="508" y="-177" type="curve" smooth="yes"/>
			<point x="616" y="-177"/>
			<point x="713" y="-41"/>
		</contour>
		<contour>
			<point x="112" y="592" type="curve" smooth="yes"/>
			<point x="229" y="588"/>
			<point x="298" y="587"/>
			<point x="437" y="587" type="curve" smooth="yes"/>
			<point x="501" y="587"/>
			<point x="566" y="601"/>
			<point x="566" y="631" type="curve" smooth="yes"/>
			<point x="566" y="646"/>
			<point x="556" y="657"/>
			<point x="534" y="657" type="curve" smooth="yes"/>
			<point x="503" y="657"/>
			<point x="493" y="650"/>
			<point x="400" y="650" type="curve" smooth="yes"/>
			<point x="276" y="650"/>
			<point x="210" y="656"/>
			<point x="58" y="656" type="curve" smooth="yes"/>
			<point x="30" y="656"/>
			<point x="19" y="647"/>
			<point x="19" y="635" type="curve" smooth="yes"/>
			<point x="19" y="614"/>
			<point x="34" y="594"/>
		</contour>
	</outline>
</glyph>
<glyph name="Eukrcyr" format="2">
	<unicode hex="0404"/>
	<advance width="621"/>
	<outline>
		<contour>
			<point x="282" y="383" type="curve" smooth="yes"/>
			<point x="213" y="383"/>
			<point x="140.3241758242" y="369"/>
			<point x="91" y="348" type="curve"/>
			<point x="93" y="295" type="line"/>
			<point x="131.5508982036" y="307"/>
			<point x="196" y="326"/>
			<point x="267" y="326" type="curve" smooth="yes"/>
			<point x="309" y="326"/>
			<point x="350.072" y="317"/>
			<point x="385" y="317" type="curve" smooth="yes"/>
			<point x="418" y="317"/>
			<point x="432" y="324"/>
			<point x="432" y="338" type="curve" smooth="yes"/>
			<point x="432" y="367"/>
			<point x="367" y="383"/>
		</contour>
		<contour>
			<point x="336" y="20" type="curve" smooth="yes"/>
			<point x="481.4482758621" y="20"/>
			<point x="558" y="103.7123287671"/>
			<point x="558" y="146" type="curve" smooth="yes"/>
			<point x="558" y="164"/>
			<point x="551" y="179"/>
			<point x="538" y="179" type="curve" smooth="yes"/>
			<point x="506.5492957746" y="179"/>
			<point x="480.8169014085" y="85"/>
			<point x="335" y="85" type="curve" smooth="yes"/>
			<point x="214" y="85"/>
			<point x="137" y="157.4319248826"/>
			<point x="137" y="288" type="curve" smooth="yes"/>
			<point x="137" y="462.487012987"/>
			<point x="246" y="606"/>
			<point x="404" y="606" type="curve" smooth="yes"/>
			<point x="450" y="606"/>
			<point x="463" y="588"/>
			<point x="463" y="570" type="curve" smooth="yes"/>
			<point x="463" y="538"/>
			<point x="456" y="510"/>
			<point x="486" y="510" type="curve" smooth="yes"/>
			<point x="516" y="510"/>
			<point x="531" y="542"/>
			<point x="531" y="575" type="curve" smooth="yes"/>
			<point x="531" y="633"/>
			<point x="490" y="671"/>
			<point x="406" y="671" type="curve" smooth="yes"/>
			<point x="207" y="671"/>
			<point x="70" y="497.4569892473"/>
			<point x="70" y="289" type="curve" smooth="yes"/>
			<point x="70" y="137.6272401434"/>
			<point x="143" y="20"/>
		</contour>
	</outline>
	<guideline x="101.4423076923" y="378.3653846154" angle="90" identifier="b1V3DjCVlD"/>
</glyph>
<glyph name="Ljecyr" format="2">
	<unicode hex="0409"/>
	<advance width="1013"/>
	<outline>
		<contour>
			<point x="165.3846153846" y="700" type="line"/>
			<point x="144.2307692308" y="271.6346153846" type="line" smooth="yes"/>
			<point x="138.4615384615" y="157.2115384615"/>
			<point x="98.5576923077" y="39.4230769231"/>
			<point x="54.8076923077" y="39.4230769231" type="qcurve" smooth="yes"/>
			<point x="35.5769230769" y="39.4230769231"/>
			<point x="15.3846153846" y="44.2307692308"/>
			<point x="4.8076923077" y="48.0769230769" type="qcurve"/>
			<point x="4.8076923077" y="-4.8076923077" type="line"/>
			<point x="18.75" y="-10.0961538462"/>
			<point x="39.9038461538" y="-14.4230769231"/>
			<point x="55.2884615385" y="-14.4230769231" type="qcurve" smooth="yes"/>
			<point x="129.8076923077" y="-14.4230769231"/>
			<point x="186.5384615385" y="129.8076923077"/>
			<point x="193.2692307692" y="265.8653846154" type="qcurve" smooth="yes"/>
			<point x="212.0192307692" y="651.9230769231" type="line"/>
			<point x="519.7115384615" y="651.9230769231" type="line"/>
			<point x="519.7115384615" y="0" type="line"/>
			<point x="750" y="0" type="line" smooth="yes"/>
			<point x="869.7115384615" y="0"/>
			<point x="989.9038461538" y="117.7884615385"/>
			<point x="989.9038461538" y="211.0576923077" type="qcurve" smooth="yes"/>
			<point x="989.9038461538" y="303.3653846154"/>
			<point x="869.7115384615" y="421.6346153846"/>
			<point x="750" y="421.6346153846" type="qcurve" smooth="yes"/>
			<point x="572.1153846154" y="421.6346153846" type="line"/>
			<point x="572.1153846154" y="700" type="line"/>
		</contour>
		<contour>
			<point x="572.1153846154" y="373.0769230769" type="line"/>
			<point x="750" y="373.0769230769" type="line" smooth="yes"/>
			<point x="853.8461538462" y="373.0769230769"/>
			<point x="937.0192307692" y="279.8076923077"/>
			<point x="937.0192307692" y="211.0576923077" type="qcurve" smooth="yes"/>
			<point x="937.0192307692" y="141.8269230769"/>
			<point x="853.8461538462" y="48.5576923077"/>
			<point x="750" y="48.5576923077" type="qcurve" smooth="yes"/>
			<point x="572.1153846154" y="48.5576923077" type="line"/>
		</contour>
	</outline>
	<guideline x="94.7115384615" y="657.6923076923" angle="0" identifier="b3w6f6co8h"/>
	<guideline x="94.7115384615" y="657.6923076923" angle="0" identifier="jdn5JLBvkG"/>
	<guideline x="94.7115384615" y="657.6923076923" angle="0" identifier="mF84iu6Knu"/>
</glyph>
<glyph name="Tshecyr" format="2">
	<unicode hex="040B"/>
	<advance width="757"/>
	<outline>
		<contour>
			<point x="110" y="562" type="curve" smooth="yes"/>
			<point x="227" y="558"/>
			<point x="296" y="557"/>
			<point x="435" y="557" type="curve" smooth="yes"/>
			<point x="499" y="557"/>
			<point x="564" y="571"/>
			<point x="564" y="601" type="curve" smooth="yes"/>
			<point x="564" y="616"/>
			<point x="554" y="627"/>
			<point x="532" y="627" type="curve" smooth="yes"/>
			<point x="501" y="627"/>
			<point x="491" y="620"/>
			<point x="398" y="620" type="curve" smooth="yes"/>
			<point x="274" y="620"/>
			<point x="208" y="626"/>
			<point x="56" y="626" type="curve" smooth="yes"/>
			<point x="28" y="626"/>
			<point x="17" y="617"/>
			<point x="17" y="605" type="curve" smooth="yes"/>
			<point x="17" y="584"/>
			<point x="32" y="564"/>
		</contour>
		<contour>
			<point x="302" y="84" type="curve" smooth="yes"/>
			<point x="380" y="265"/>
			<point x="440" y="344"/>
			<point x="523" y="388" type="curve"/>
			<point x="554" y="343"/>
			<point x="568" y="228"/>
			<point x="589" y="136" type="curve" smooth="yes"/>
			<point x="611" y="44"/>
			<point x="634" y="-6"/>
			<point x="674" y="-6" type="curve" smooth="yes"/>
			<point x="690" y="-6"/>
			<point x="698" y="2"/>
			<point x="698" y="14" type="curve" smooth="yes"/>
			<point x="698" y="43"/>
			<point x="680" y="70"/>
			<point x="667" y="110" type="curve" smooth="yes"/>
			<point x="650" y="155"/>
			<point x="629" y="266"/>
			<point x="616" y="340" type="curve" smooth="yes"/>
			<point x="607" y="390"/>
			<point x="589" y="450"/>
			<point x="528" y="450" type="curve" smooth="yes"/>
			<point x="430" y="450"/>
			<point x="319" y="303"/>
			<point x="254" y="131" type="curve"/>
			<point x="275" y="128" type="line"/>
			<point x="268" y="204"/>
			<point x="256" y="310"/>
			<point x="271" y="483" type="curve" smooth="yes"/>
			<point x="278" y="562"/>
			<point x="269" y="587"/>
			<point x="240" y="587" type="curve" smooth="yes"/>
			<point x="223" y="587"/>
			<point x="214" y="569"/>
			<point x="211" y="543" type="curve" smooth="yes"/>
			<point x="188" y="322"/>
			<point x="199" y="193"/>
			<point x="208" y="129" type="curve" smooth="yes"/>
			<point x="217" y="49"/>
			<point x="238" y="27"/>
			<point x="261" y="27" type="curve" smooth="yes"/>
			<point x="284" y="27"/>
			<point x="287" y="48"/>
		</contour>
	</outline>
</glyph>
<glyph name="Dzhecyr" format="2">
	<unicode hex="040F"/>
	<advance width="719"/>
	<outline>
		<contour>
			<point x="398" y="-142" type="curve" smooth="yes"/>
			<point x="393" y="-183"/>
			<point x="377" y="-197"/>
			<point x="356" y="-197" type="curve" smooth="yes"/>
			<point x="334.3529411765" y="-197"/>
			<point x="324" y="-178"/>
			<point x="324" y="-148" type="curve" smooth="yes"/>
			<point x="324" y="-77"/>
			<point x="383.8490566038" y="84"/>
			<point x="428" y="84" type="curve" smooth="yes"/>
			<point x="444" y="84"/>
			<point x="453" y="74"/>
			<point x="453" y="57" type="curve" smooth="yes"/>
			<point x="453" y="23"/>
			<point x="410" y="-43"/>
		</contour>
		<contour>
			<point x="181" y="583" type="curve" smooth="yes"/>
			<point x="181" y="509"/>
			<point x="172" y="446"/>
			<point x="172" y="365" type="curve" smooth="yes"/>
			<point x="172" y="245.4838709677"/>
			<point x="181" y="118"/>
			<point x="209" y="118" type="curve" smooth="yes"/>
			<point x="264.0054054054" y="118"/>
			<point x="327" y="238"/>
			<point x="401" y="373" type="curve" smooth="yes"/>
			<point x="443" y="450"/>
			<point x="480.0169491525" y="544.1627906977"/>
			<point x="512" y="603" type="curve" smooth="yes"/>
			<point x="529" y="642"/>
			<point x="545" y="668"/>
			<point x="559" y="668" type="curve" smooth="yes"/>
			<point x="586" y="668"/>
			<point x="599" y="634"/>
			<point x="599" y="573" type="curve" smooth="yes"/>
			<point x="599" y="543.5492957746"/>
			<point x="598" y="427.5245901639"/>
			<point x="603" y="369" type="curve" smooth="yes"/>
			<point x="614" y="219"/>
			<point x="667" y="92"/>
			<point x="667" y="59" type="curve" smooth="yes"/>
			<point x="667" y="42"/>
			<point x="658" y="28"/>
			<point x="644" y="28" type="curve" smooth="yes"/>
			<point x="605" y="28"/>
			<point x="593" y="63"/>
			<point x="579" y="108" type="curve" smooth="yes"/>
			<point x="560" y="169"/>
			<point x="539.8064516129" y="277.3795620438"/>
			<point x="534" y="381" type="curve" smooth="yes"/>
			<point x="530" y="449.7457627119"/>
			<point x="529" y="513.2033898305"/>
			<point x="529" y="537" type="curve"/>
			<point x="555" y="558" type="line"/>
			<point x="542" y="516"/>
			<point x="491" y="402"/>
			<point x="434" y="295" type="curve" smooth="yes"/>
			<point x="364" y="164"/>
			<point x="285.6322869955" y="36"/>
			<point x="201" y="36" type="curve" smooth="yes"/>
			<point x="120" y="36"/>
			<point x="100" y="159.0948905109"/>
			<point x="100" y="308" type="curve" smooth="yes"/>
			<point x="100" y="390"/>
			<point x="106" y="508"/>
			<point x="105" y="577" type="curve" smooth="yes"/>
			<point x="105" y="622"/>
			<point x="112" y="667"/>
			<point x="129" y="667" type="curve" smooth="yes"/>
			<point x="159" y="667"/>
			<point x="181" y="635"/>
		</contour>
	</outline>
</glyph>
<glyph name="Becyr" format="2">
	<unicode hex="0411"/>
	<advance width="595"/>
	<outline>
		<contour>
			<point x="81.7307692308" y="0" type="line"/>
			<point x="312.0192307692" y="0" type="line" smooth="yes"/>
			<point x="431.7307692308" y="0"/>
			<point x="551.9230769231" y="114.9038461538"/>
			<point x="551.9230769231" y="206.25" type="qcurve" smooth="yes"/>
			<point x="551.9230769231" y="296.6346153846"/>
			<point x="431.7307692308" y="412.0192307692"/>
			<point x="312.0192307692" y="412.0192307692" type="qcurve" smooth="yes"/>
			<point x="134.1346153846" y="412.0192307692" type="line"/>
			<point x="134.1346153846" y="651.9230769231" type="line"/>
			<point x="504.3269230769" y="651.9230769231" type="line"/>
			<point x="504.3269230769" y="700" type="line"/>
			<point x="81.7307692308" y="700" type="line"/>
		</contour>
		<contour>
			<point x="134.1346153846" y="363.9423076923" type="line"/>
			<point x="312.0192307692" y="363.9423076923" type="line" smooth="yes"/>
			<point x="415.8653846154" y="363.9423076923"/>
			<point x="499.0384615385" y="273.0769230769"/>
			<point x="499.0384615385" y="206.25" type="qcurve" smooth="yes"/>
			<point x="499.0384615385" y="138.9423076923"/>
			<point x="415.8653846154" y="48.0769230769"/>
			<point x="312.0192307692" y="48.0769230769" type="qcurve" smooth="yes"/>
			<point x="134.1346153846" y="48.0769230769" type="line"/>
		</contour>
	</outline>
</glyph>
<glyph name="Gecyr" format="2">
	<unicode hex="0413"/>
	<advance width="516"/>
	<outline>
		<contour>
			<point x="183" y="656" type="curve"/>
			<point x="109" y="651" type="line"/>
			<point x="117" y="555.3178807947"/>
			<point x="119" y="445.6821192053"/>
			<point x="119" y="350" type="curve" smooth="yes"/>
			<point x="119" y="212.9180887372"/>
			<point x="103" y="100"/>
			<point x="103" y="73" type="curve" smooth="yes"/>
			<point x="103" y="41"/>
			<point x="118.3414634146" y="9"/>
			<point x="140" y="9" type="curve" smooth="yes"/>
			<point x="159" y="9"/>
			<point x="166" y="25"/>
			<point x="171" y="48" type="curve" smooth="yes"/>
			<point x="179" y="87"/>
			<point x="189" y="202.3944099379"/>
			<point x="189" y="353" type="curve" smooth="yes"/>
			<point x="189" y="448.6842105263"/>
			<point x="188" y="563.3059210526"/>
		</contour>
		<contour>
			<point x="112" y="682" type="curve" smooth="yes"/>
			<point x="68" y="678"/>
			<point x="52" y="666"/>
			<point x="52" y="651" type="curve" smooth="yes"/>
			<point x="52" y="634.5"/>
			<point x="75" y="618"/>
			<point x="115" y="618" type="curve" smooth="yes"/>
			<point x="180.725388601" y="618"/>
			<point x="238" y="627"/>
			<point x="330" y="627" type="curve" smooth="yes"/>
			<point x="398" y="627"/>
			<point x="426.4266666667" y="623"/>
			<point x="458" y="623" type="curve" smooth="yes"/>
			<point x="489" y="623"/>
			<point x="508" y="632"/>
			<point x="508" y="647" type="curve" smooth="yes"/>
			<point x="508" y="671"/>
			<point x="457" y="692"/>
			<point x="384" y="692" type="curve" smooth="yes"/>
			<point x="293" y="692"/>
			<point x="156" y="686"/>
		</contour>
	</outline>
	<anchor name="top" x="282" y="700"/>
</glyph>
